<?xml version="1.0" encoding="utf-8"?>
<!-- Generator: Adobe Illustrator 27.5.0, SVG Export Plug-In . SVG Version: 6.00 Build 0)  -->
<svg version="1.1" id="Layer_1" xmlns="http://www.w3.org/2000/svg" xmlns:xlink="http://www.w3.org/1999/xlink" x="0px" y="0px"
	 viewBox="0 0 200.9 90.1" style="enable-background:new 0 0 200.9 90.1;" xml:space="preserve">
<style type="text/css">
	.st0{fill:#FFF1A9;}
	.st1{fill:#CDB4DB;}
	.st2{fill:#FDE35E;}
	.st3{fill:#E8DFF5;}
</style>
<path class="st0" d="M81.5,81.7c-3.6-0.3-6.2-2-7.6-5.1c-0.4-0.8-1.2-3.9-2.4-9.4l-22.3-1.9c-2.1,5.1-3.4,8-4,8.7
	c-1.9,2.8-4.7,4.1-8.2,3.8c-2.5-0.2-4.5-1.3-6.2-3.1c-1.7-1.9-2.4-4-2.1-6.6c0.1-1.1,0.4-2.3,1.1-3.7l22.9-48.6
	c1.2-2.5,3-4.6,5.2-6.1c2.3-1.5,4.8-2.2,7.7-1.9C71.3,8.3,75,11.7,76.7,18l13.7,51.8c0.4,1.7,0.6,3.1,0.6,4.3
	c-0.2,2.5-1.3,4.4-3.1,5.8C86,81.3,83.9,81.9,81.5,81.7z M63.2,30.9c-1.3,3.9-3.6,9.8-6.9,17.6l11.2,0.9L63.2,30.9z M114.9,28.4
	c2-2.2,4.8-3.1,8.6-2.9c2.3,0.2,4.3,1.1,5.8,2.8c1.7,1.9,2.4,4.3,2.2,7.2c-0.2,2.7-1.7,4.8-4.5,6.1c-2.7,0.9-5.3,1.9-8,2.8
	c-2.8,1.2-4.4,3-4.5,5.4l-1.4,20.4c-0.2,2.8-1.3,5-3.1,6.8c-1.8,1.7-4,2.5-6.7,2.3c-2.6-0.2-4.7-1.2-6.2-3.1c-1.5-2-2.2-4.4-2-7.1
	l2.5-36.2c0.2-2.8,1.4-5,3.5-6.6c1.9-1.4,4-1.9,6.3-1.8C111.1,24.6,113.6,26,114.9,28.4z M159.7,44l-1.4-0.4l-6.4,27.7
	c-0.6,2.3-1.6,4.2-3.2,5.7c-1.6,1.4-3.5,2-5.7,2c-0.7,0-1.4-0.1-2.1-0.2c-2.1-0.5-3.8-1.5-5-3.1c-1.2-1.7-1.9-3.6-1.9-5.7
	c0-0.9,0.1-1.7,0.3-2.6l6.5-27.8l-0.6-0.1c-4.3-1-6.4-3.5-6.4-7.6c0-0.7,0.1-1.5,0.3-2.2c0.4-1.9,1.4-3.4,2.8-4.5
	c1.5-1.2,3.2-1.8,5-1.8c0.7,0,1.3,0.1,1.9,0.2l0.6,0.2l1.3-5.6c0.6-2.3,1.6-4.1,3.1-5.6c1.6-1.4,3.5-2.1,5.7-2.1
	c0.7,0,1.4,0.1,2.1,0.3c2.2,0.5,3.8,1.5,5,3.1c1.2,1.6,1.9,3.5,1.9,5.7c0,0.9-0.1,1.7-0.3,2.6l-1.3,5.6l1.5,0.3
	c4.6,1,6.9,3.6,6.9,7.7c0,0.7-0.1,1.4-0.2,2.2c-1,4.2-3.6,6.3-7.9,6.3C161.4,44.3,160.6,44.2,159.7,44z"/>
<path class="st1" d="M76.3,77.5c-0.3,0-0.6,0-0.9,0h0c-4.3-0.4-7.3-2.4-9-6.1c-0.3-0.6-0.8-2.1-2.2-8.5l-19.8-1.7
	c-2.5,5.9-3.3,7.3-3.7,7.9c-2.2,3.3-5.6,4.9-9.8,4.5c-2.9-0.3-5.4-1.5-7.3-3.6c-2-2.2-2.9-4.9-2.6-7.9c0.1-1.3,0.5-2.8,1.3-4.3
	L45,9.1c1.4-2.8,3.3-5.1,5.8-6.8c2.6-1.8,5.6-2.5,8.8-2.3c6.6,0.6,10.9,4.4,12.7,11.5l13.7,51.8c0.5,1.9,0.7,3.4,0.6,4.8
	c-0.3,3-1.6,5.4-3.8,7.1C80.9,76.8,78.7,77.5,76.3,77.5z M75.7,74c1.9,0.2,3.6-0.3,5.1-1.5c1.5-1.1,2.3-2.6,2.5-4.6
	c0-0.9-0.1-2.2-0.5-3.6L69,12.4c-1.5-5.6-4.6-8.5-9.7-8.9c-2.5-0.2-4.6,0.3-6.6,1.7c-1.9,1.4-3.5,3.2-4.6,5.4L25.3,59.2
	c-0.6,1.2-0.9,2.2-0.9,3.1c-0.2,2.1,0.3,3.8,1.7,5.3c1.4,1.5,3,2.3,5.1,2.5c2.9,0.3,5.1-0.7,6.6-3c0.3-0.4,1.1-1.7,3.8-8.4l0.5-1.2
	l24.9,2.2l0.3,1.2c1.6,7.2,2.1,8.7,2.3,9C70.7,72.4,72.6,73.7,75.7,74z M98.2,75c-0.3,0-0.6,0-0.9,0c-3.1-0.2-5.6-1.5-7.4-3.8
	c-1.8-2.3-2.6-5.1-2.4-8.3l2.5-36.2c0.3-3.4,1.7-6,4.2-7.9c2.2-1.6,4.7-2.3,7.5-2.1c3.3,0.2,5.9,1.3,7.6,3.1c2.2-1.6,5-2.3,8.4-2
	c2.8,0.2,5.2,1.3,7,3.3c0.7,0.8,1.2,1.6,1.6,2.5c0-0.1,0.1-0.2,0.1-0.4c0.5-2.3,1.7-4.1,3.4-5.5c1.8-1.4,3.8-2.1,6.1-2.1
	c0.4,0,0.9,0,1.3,0.1l0.9-3.9c0.6-2.6,1.9-4.8,3.7-6.4c2-1.7,4.2-2.6,6.8-2.6c0.8,0,1.7,0.1,2.6,0.3c2.5,0.6,4.6,1.9,6,3.8
	c1.4,1.9,2.2,4.2,2.2,6.8c0,1-0.1,2-0.3,3l-0.9,3.8c6.6,1.6,8,6,8,9.3c0,0.8-0.1,1.6-0.2,2.5l0,0.1c-1.2,5-4.5,7.6-9.6,7.6
	c-0.8,0-1.7-0.1-2.6-0.3l-6,26c-0.6,2.7-1.9,4.9-3.8,6.6c-2.5,2.1-5.6,2.9-9.2,2.3l-0.1,0c-2.5-0.6-4.5-1.9-6-3.8
	c-1.5-2-2.2-4.3-2.2-6.8c0-1,0.1-2,0.3-3l6.1-26.1c-2.6-0.8-4.4-2.2-5.5-4.2c-0.5,2.8-2.4,5-5.4,6.5l-0.2,0.1l-7.9,2.8
	c-2.9,1.3-3.4,2.8-3.4,3.9l-1.4,20.4c-0.3,3.2-1.5,5.9-3.6,7.9C103.3,74.1,100.9,75,98.2,75z M100.6,20.1c-1.7,0-3.1,0.5-4.4,1.5
	c-1.7,1.2-2.6,3-2.8,5.3l-2.5,36.2c-0.2,2.4,0.4,4.3,1.7,5.9c1.2,1.5,2.8,2.3,5,2.5c2.1,0.1,3.9-0.4,5.3-1.8
	c1.5-1.4,2.3-3.3,2.5-5.7l1.4-20.3c0.2-2.1,1.3-5,5.6-6.9l0.1,0l7.9-2.7c2.2-1.1,3.3-2.6,3.5-4.6c0.2-2.4-0.4-4.4-1.8-6
	c-1.2-1.3-2.7-2-4.7-2.2c-3.2-0.2-5.6,0.5-7.2,2.3l-1.7,1.8l-1.2-2.2c-1-1.9-3-2.9-6-3.1C101.1,20.1,100.9,20.1,100.6,20.1z
	 M135.3,71.1c2.6,0.4,4.6,0,6.3-1.5c1.3-1.2,2.2-2.7,2.7-4.7l6.8-29.5l3.1,0.8c0.7,0.2,1.4,0.2,2.1,0.2c3.4,0,5.3-1.5,6.2-4.9
	c0.1-0.7,0.2-1.3,0.2-1.9c0-3.3-1.7-5.1-5.5-6l-3.2-0.6l1.7-7.3c0.2-0.7,0.2-1.5,0.2-2.2c0-1.8-0.5-3.4-1.5-4.7
	c-1-1.3-2.3-2.1-4-2.5c-0.6-0.2-1.2-0.2-1.7-0.2c-1.7,0-3.2,0.6-4.5,1.7c-1.3,1.2-2.1,2.7-2.6,4.7l-1.7,7.3l-2.3-0.7
	c-0.5-0.1-1-0.1-1.5-0.1c-1.5,0-2.7,0.5-3.9,1.4c-1.1,0.9-1.8,2-2.2,3.6c-0.2,0.6-0.2,1.2-0.2,1.8c0,3.2,1.5,5.1,5,5.9l2.5,0.4
	L130,61.8c-0.2,0.7-0.2,1.5-0.2,2.2c0,1.8,0.5,3.3,1.5,4.7C132.3,69.9,133.6,70.7,135.3,71.1z M63.7,45.3l-16-1.3l0.9-2.2
	c3.3-7.8,5.6-13.6,6.9-17.5l2-5.9L63.7,45.3z M52.8,40.9l6.4,0.5L56.8,31C55.7,33.8,54.4,37.1,52.8,40.9z"/>
<path class="st2" d="M15.3,90.1c-0.1,0-0.2,0-0.3,0C14,90,13.3,89,13.4,88l0.9-6.2c0.1-1,1.1-1.7,2.1-1.6c1,0.1,1.7,1.1,1.6,2.1
	l-0.9,6.2C17,89.5,16.2,90.1,15.3,90.1z M26.9,87.1c-0.6,0-1.1-0.3-1.5-0.7l-3.8-5c-0.6-0.8-0.5-2,0.4-2.6s2-0.5,2.6,0.4l3.8,5
	c0.6,0.8,0.5,2-0.4,2.6C27.7,87,27.3,87.1,26.9,87.1z M4.9,84.1c-0.6,0-1.1-0.3-1.5-0.7c-0.6-0.8-0.5-2,0.4-2.6l5-3.8
	c0.8-0.6,2-0.5,2.6,0.4c0.6,0.8,0.5,2-0.4,2.6l-5,3.8C5.7,83.9,5.3,84.1,4.9,84.1z M8.1,73.3c-0.1,0-0.2,0-0.3,0l-6.2-0.9
	c-1-0.1-1.7-1.1-1.6-2.1c0.1-1,1.1-1.7,2.1-1.6l6.2,0.9c1,0.1,1.7,1.1,1.6,2.1C9.8,72.6,9,73.3,8.1,73.3z M11.8,67.1
	c-0.6,0-1.1-0.3-1.5-0.7l-3.8-5c-0.6-0.8-0.5-2,0.4-2.6c0.8-0.6,2-0.5,2.6,0.4l3.8,5c0.6,0.8,0.5,2-0.4,2.6
	C12.5,66.9,12.1,67.1,11.8,67.1z"/>
<path class="st3" d="M182.1,38.3c-0.3,0-0.7-0.1-1-0.2c-1.2-0.4-2-1.4-2.2-2.6l-1.1-7.5l-6.8-3.4c-1.1-0.5-1.8-1.6-1.8-2.9
	s0.7-2.3,1.8-2.9l6.8-3.4l1.1-7.5c0.2-1.2,1-2.2,2.2-2.6c1.2-0.4,2.4-0.1,3.3,0.8l5.3,5.5l7.5-1.3c1.2-0.2,2.4,0.3,3.1,1.3
	c0.7,1,0.8,2.3,0.2,3.4l-3.5,6.7l3.5,6.7c0.6,1.1,0.5,2.4-0.2,3.4c-0.7,1-1.9,1.5-3.1,1.3l-7.5-1.3l-5.3,5.5
	C183.8,37.9,182.9,38.3,182.1,38.3z M175.4,21.8l5.1,2.5c0.9,0.5,1.6,1.4,1.7,2.4l0.8,5.6l3.9-4c0.7-0.8,1.8-1.1,2.8-0.9l5.6,1
	l-2.6-5c-0.5-0.9-0.5-2,0-3l2.6-5l-5.6,1c-1,0.2-2.1-0.2-2.8-0.9l-3.9-4l-0.8,5.6c-0.1,1-0.8,1.9-1.7,2.4L175.4,21.8z M177.7,27.3
	C177.7,27.3,177.7,27.3,177.7,27.3L177.7,27.3z M177.7,16.2C177.7,16.2,177.7,16.2,177.7,16.2L177.7,16.2z M181.1,9.4
	C181.1,9.4,181.1,9.4,181.1,9.4L181.1,9.4z"/>
</svg>
