<?xml version="1.0" encoding="utf-8"?>
<!-- Generator: Adobe Illustrator 27.5.0, SVG Export Plug-In . SVG Version: 6.00 Build 0)  -->
<svg version="1.1" id="Layer_1" xmlns="http://www.w3.org/2000/svg" xmlns:xlink="http://www.w3.org/1999/xlink" x="0px" y="0px"
	 viewBox="0 0 240.5 120" style="enable-background:new 0 0 240.5 120;" xml:space="preserve">
<style type="text/css">
	.st0{fill:#FFF1A9;}
	.st1{fill:#CDB4DB;}
	.st2{fill:#FDE35E;}
	.st3{fill:#E8DFF5;}
</style>
<path class="st0" d="M99.3,108.4c-4.3-0.4-7.5-2.4-9.2-6.1c-0.5-1-1.4-4.7-2.9-11.3l-26.9-2.3c-2.5,6.1-4.1,9.6-4.8,10.5
	c-2.3,3.4-5.7,4.9-9.9,4.6c-3-0.2-5.4-1.6-7.5-3.7c-2-2.3-2.9-4.8-2.5-8c0.1-1.3,0.5-2.8,1.3-4.5L64.6,29c1.4-3,3.6-5.5,6.3-7.4
	c2.8-1.8,5.8-2.7,9.3-2.3C87,19.9,91.4,24,93.5,31.6L110,94c0.5,2,0.7,3.7,0.7,5.2c-0.2,3-1.6,5.3-3.7,7
	C104.7,107.9,102.2,108.6,99.3,108.4z M77.2,47.2c-1.6,4.7-4.3,11.8-8.3,21.2l13.5,1.1L77.2,47.2z M139.5,44.1
	c2.4-2.7,5.8-3.7,10.4-3.5c2.8,0.2,5.2,1.3,7,3.4c2,2.3,2.9,5.2,2.7,8.7c-0.2,3.3-2,5.8-5.4,7.4c-3.3,1.1-6.4,2.3-9.6,3.4
	c-3.4,1.4-5.3,3.6-5.4,6.5l-1.7,24.6c-0.2,3.4-1.6,6-3.7,8.2c-2.2,2-4.8,3-8.1,2.8c-3.1-0.2-5.7-1.4-7.5-3.7
	c-1.8-2.4-2.7-5.3-2.4-8.6l3-43.6c0.2-3.4,1.7-6,4.2-8c2.3-1.7,4.8-2.3,7.6-2.2C134.9,39.6,138,41.3,139.5,44.1z M193.5,62.9
	l-1.7-0.5l-7.7,33.4c-0.7,2.8-1.9,5.1-3.9,6.9c-1.9,1.7-4.2,2.4-6.9,2.4c-0.8,0-1.7-0.1-2.5-0.2c-2.5-0.6-4.6-1.8-6-3.7
	c-1.4-2-2.3-4.3-2.3-6.9c0-1.1,0.1-2,0.4-3.1l7.8-33.5l-0.7-0.1c-5.2-1.2-7.7-4.2-7.7-9.2c0-0.8,0.1-1.8,0.4-2.7
	c0.5-2.3,1.7-4.1,3.4-5.4c1.8-1.4,3.9-2.2,6-2.2c0.8,0,1.6,0.1,2.3,0.2l0.7,0.2l1.6-6.7c0.7-2.8,1.9-4.9,3.7-6.7
	c1.9-1.7,4.2-2.5,6.9-2.5c0.8,0,1.7,0.1,2.5,0.4c2.7,0.6,4.6,1.8,6,3.7c1.4,1.9,2.3,4.2,2.3,6.9c0,1.1-0.1,2-0.4,3.1l-1.6,6.7
	l1.8,0.4c5.5,1.2,8.3,4.3,8.3,9.3c0,0.8-0.1,1.7-0.2,2.7c-1.2,5.1-4.3,7.6-9.5,7.6C195.6,63.3,194.6,63.2,193.5,62.9z"/>
<path class="st1" d="M93,103.3c-0.4,0-0.7,0-1.1,0l0,0c-5.2-0.5-8.8-2.9-10.8-7.4c-0.4-0.7-1-2.5-2.7-10.2l-23.9-2
	c-3,7.1-4,8.8-4.5,9.5c-2.7,4-6.7,5.9-11.8,5.4c-3.5-0.4-6.5-1.8-8.8-4.3c-2.4-2.7-3.5-5.9-3.1-9.5c0.1-1.6,0.6-3.4,1.6-5.2
	l27.4-58.7c1.7-3.4,4-6.1,7-8.2c3.1-2.2,6.7-3,10.6-2.8c8,0.7,13.1,5.3,15.3,13.9l16.5,62.4c0.6,2.3,0.8,4.1,0.7,5.8
	c-0.4,3.6-1.9,6.5-4.6,8.6C98.6,102.5,95.9,103.3,93,103.3z M92.3,99.1c2.3,0.2,4.3-0.4,6.1-1.8c1.8-1.3,2.8-3.1,3-5.5
	c0-1.1-0.1-2.7-0.6-4.3L84.2,24.9c-1.8-6.7-5.5-10.2-11.7-10.7c-3-0.2-5.5,0.4-8,2c-2.3,1.7-4.2,3.9-5.5,6.5L31.5,81.3
	c-0.7,1.4-1.1,2.7-1.1,3.7c-0.2,2.5,0.4,4.6,2,6.4c1.7,1.8,3.6,2.8,6.1,3c3.5,0.4,6.1-0.8,8-3.6c0.4-0.5,1.3-2,4.6-10.1l0.6-1.4
	l30,2.7l0.4,1.4c1.9,8.7,2.5,10.5,2.8,10.8C86.3,97.2,88.5,98.7,92.3,99.1z M119.4,100.3c-0.4,0-0.7,0-1.1,0
	c-3.7-0.2-6.7-1.8-8.9-4.6c-2.2-2.8-3.1-6.1-2.9-10l3-43.6c0.4-4.1,2-7.2,5.1-9.5c2.7-1.9,5.7-2.8,9-2.5c4,0.2,7.1,1.6,9.2,3.7
	c2.7-1.9,6-2.8,10.1-2.4c3.4,0.2,6.3,1.6,8.4,4c0.8,1,1.4,1.9,1.9,3c0-0.1,0.1-0.2,0.1-0.5c0.6-2.8,2-4.9,4.1-6.6
	c2.2-1.7,4.6-2.5,7.4-2.5c0.5,0,1.1,0,1.6,0.1l1.1-4.7c0.7-3.1,2.3-5.8,4.5-7.7c2.4-2,5.1-3.1,8.2-3.1c1,0,2,0.1,3.1,0.4
	c3,0.7,5.5,2.3,7.2,4.6c1.7,2.3,2.7,5.1,2.7,8.2c0,1.2-0.1,2.4-0.4,3.6l-1.1,4.6c8,1.9,9.6,7.2,9.6,11.2c0,1-0.1,1.9-0.2,3V49
	c-1.4,6-5.4,9.2-11.6,9.2c-1,0-2-0.1-3.1-0.4l-7.2,31.3c-0.7,3.3-2.3,5.9-4.6,8c-3,2.5-6.7,3.5-11.1,2.8h-0.1
	c-3-0.7-5.4-2.3-7.2-4.6c-1.8-2.4-2.7-5.2-2.7-8.2c0-1.2,0.1-2.4,0.4-3.6l7.4-31.5c-3.1-1-5.3-2.7-6.6-5.1c-0.6,3.4-2.9,6-6.5,7.8
	l-0.2,0.1l-9.5,3.4c-3.5,1.6-4.1,3.4-4.1,4.7l-1.7,24.6c-0.4,3.9-1.8,7.1-4.3,9.5C125.5,99.2,122.7,100.3,119.4,100.3z M122.3,34.1
	c-2,0-3.7,0.6-5.3,1.8c-2,1.4-3.1,3.6-3.4,6.4l-3,43.6c-0.2,2.9,0.5,5.2,2,7.1c1.4,1.8,3.4,2.8,6,3c2.5,0.1,4.7-0.5,6.4-2.2
	c1.8-1.7,2.8-4,3-6.9l1.7-24.5c0.2-2.5,1.6-6,6.7-8.3h0.1l9.5-3.3c2.7-1.3,4-3.1,4.2-5.5c0.2-2.9-0.5-5.3-2.2-7.2
	c-1.4-1.6-3.3-2.4-5.7-2.7c-3.9-0.2-6.7,0.6-8.7,2.8l-2,2.2l-1.4-2.7c-1.2-2.3-3.6-3.5-7.2-3.7C122.9,34.1,122.7,34.1,122.3,34.1z
	 M164.1,95.6c3.1,0.5,5.5,0,7.6-1.8c1.6-1.4,2.7-3.3,3.3-5.7l8.2-35.6l3.7,1c0.8,0.2,1.7,0.2,2.5,0.2c4.1,0,6.4-1.8,7.5-5.9
	c0.1-0.8,0.2-1.6,0.2-2.3c0-4-2-6.1-6.6-7.2l-3.9-0.7l2-8.8c0.2-0.8,0.2-1.8,0.2-2.7c0-2.2-0.6-4.1-1.8-5.7s-2.8-2.5-4.8-3
	c-0.7-0.2-1.4-0.2-2-0.2c-2,0-3.9,0.7-5.4,2c-1.6,1.4-2.5,3.3-3.1,5.7l-2,8.8l-2.8-0.8c-0.6-0.1-1.2-0.1-1.8-0.1
	c-1.8,0-3.3,0.6-4.7,1.7c-1.3,1.1-2.2,2.4-2.7,4.3c-0.2,0.7-0.2,1.4-0.2,2.2c0,3.9,1.8,6.1,6,7.1l3,0.5l-8.8,35.8
	c-0.2,0.8-0.2,1.8-0.2,2.7c0,2.2,0.6,4,1.8,5.7C160.5,94.2,162.1,95.1,164.1,95.6z M77.8,64.5l-19.3-1.6l1.1-2.7
	c4-9.4,6.7-16.4,8.3-21.1l2.4-7.1L77.8,64.5z M64.7,59.2l7.7,0.6l-2.9-12.5C68.2,50.7,66.6,54.6,64.7,59.2z"/>
<path class="st2" d="M18.2,120c-0.1,0-0.2,0-0.4,0c-1.2-0.1-2-1.3-1.9-2.5l1.2-7.5c0.1-1.2,1.3-2,2.5-1.9c1.2,0.1,2,1.3,1.9,2.5
	l-1.2,7.5C20.3,119.3,19.3,120,18.2,120z M32.2,116.5c-0.7,0-1.3-0.4-1.8-0.9l-4.5-6.1c-0.7-1-0.6-2.4,0.5-3.1s2.4-0.6,3.1,0.5
	l4.5,6.1c0.7,1,0.6,2.4-0.5,3.1C33.2,116.4,32.7,116.5,32.2,116.5z M5.8,112.6c-0.7,0-1.3-0.4-1.8-0.9c-0.7-1-0.6-2.4,0.5-3.1
	l6.1-4.5c1-0.7,2.4-0.6,3.1,0.5c0.7,1,0.6,2.4-0.5,3.1l-6.1,4.5C6.7,112.4,6.2,112.6,5.8,112.6z M9.7,99.7c-0.1,0-0.2,0-0.4,0
	l-7.5-1.2c-1.2-0.1-2-1.3-1.9-2.5c0.1-1.2,1.3-2,2.5-1.9l7.5,1.2c1.2,0.1,2,1.3,1.9,2.5C11.8,98.8,10.8,99.7,9.7,99.7z M14.3,92.2
	c-0.7,0-1.3-0.4-1.8-0.9L8,85.3c-0.7-1-0.6-2.4,0.5-3.1c1-0.7,2.4-0.6,3.1,0.5l4.5,6.1c0.7,1,0.6,2.4-0.5,3.1
	C15.1,92,14.6,92.2,14.3,92.2z"/>
<path class="st3" d="M210.8,38.7c-0.3-0.1-0.8-0.3-1.1-0.5c-1.3-0.8-1.9-2.2-1.8-3.7l1-9.1l-6.9-6.1c-1.1-0.9-1.6-2.4-1.2-3.9
	s1.5-2.5,3-2.8l9-1.9l3.6-8.4c0.6-1.3,1.8-2.3,3.4-2.3c1.5-0.1,2.8,0.6,3.6,2l4.5,8l9.1,0.8c1.5,0.1,2.7,1.1,3.2,2.5
	c0.5,1.4,0.2,2.9-0.8,4l-6.1,6.7l2,8.9c0.4,1.5-0.2,3-1.3,3.9c-1.1,0.9-2.7,1.2-4,0.6l-8.3-3.8l-7.9,4.8
	C212.9,38.8,211.7,39,210.8,38.7z M208.1,17.4l5.2,4.5c0.9,0.9,1.4,2.1,1.2,3.3l-0.8,6.8l5.8-3.5c1.1-0.7,2.4-0.7,3.5-0.2l6.2,2.9
	l-1.5-6.6c-0.3-1.2,0-2.5,0.9-3.5l4.6-5l-6.8-0.6c-1.2-0.1-2.4-0.9-3-1.9l-3.3-5.9l-2.7,6.3c-0.4,1.1-1.5,2-2.7,2.3L208.1,17.4z
	 M209.1,24.6L209.1,24.6L209.1,24.6z M212.5,11.6L212.5,11.6L212.5,11.6z M218.6,4.8L218.6,4.8L218.6,4.8z"/>
</svg>
