<?xml version="1.0" encoding="utf-8"?>
<!-- Generator: Adobe Illustrator 27.9.0, SVG Export Plug-In . SVG Version: 6.00 Build 0)  -->
<svg version="1.1" id="Layer_1" xmlns="http://www.w3.org/2000/svg" xmlns:xlink="http://www.w3.org/1999/xlink" x="0px" y="0px"
	 viewBox="0 0 779.9 121.8" style="enable-background:new 0 0 779.9 121.8;" xml:space="preserve">
<style type="text/css">
	.st0{fill:#FDE35E;}
	.st1{fill:#FFF1A9;}
	.st2{fill:#CDB4DB;}
	.st3{fill:#E8DFF5;}
</style>
<path class="st0" d="M278.3,121.8c-0.1,0-0.2-0.1-0.3-0.1c-1.3-0.5-2-1.9-1.6-3.2l2.7-8c0.5-1.3,1.9-2,3.2-1.6
	c1.3,0.5,2,1.9,1.6,3.2l-2.7,8C280.7,121.3,279.5,122,278.3,121.8z M294.4,120.8c-0.7-0.1-1.4-0.6-1.8-1.4l-3.7-7.6
	c-0.6-1.2-0.1-2.7,1.2-3.4c1.2-0.6,2.7-0.1,3.4,1.2l3.7,7.6c0.6,1.2,0.1,2.7-1.2,3.4C295.4,120.8,294.9,120.9,294.4,120.8z
	 M266.2,111.1c-0.7-0.1-1.4-0.6-1.8-1.4c-0.6-1.2-0.1-2.7,1.2-3.4l7.6-3.7c1.2-0.6,2.7-0.1,3.4,1.2c0.6,1.2,0.1,2.7-1.2,3.4
	l-7.6,3.7C267.3,111.1,266.8,111.2,266.2,111.1z M273.2,97.8c-0.1,0-0.2-0.1-0.3-0.1l-8-2.7c-1.3-0.5-2-1.9-1.6-3.2
	c0.5-1.3,1.9-2,3.2-1.6l8,2.7c1.3,0.5,2,1.9,1.6,3.2C275.7,97.3,274.4,98,273.2,97.8z M279.6,90.5c-0.7-0.1-1.4-0.6-1.8-1.4
	l-3.7-7.6c-0.6-1.2-0.1-2.7,1.2-3.4c1.2-0.6,2.7-0.1,3.4,1.2l3.7,7.6c0.6,1.2,0.1,2.7-1.2,3.4C280.7,90.6,280.1,90.6,279.6,90.5z"/>
<g>
	<g>
		<g>
			<path class="st1" d="M372.4,112.1c-4.6-0.4-7.7-2.5-9.5-6.4c-0.5-1-1.5-4.9-3-11.7l-28-2.4c-2.6,6.3-4.3,10-5,10.9
				c-2.4,3.6-5.8,5.1-10.3,4.8c-3.1-0.3-5.7-1.6-7.8-3.9c-2.1-2.3-3-5-2.7-8.2c0.1-1.4,0.5-2.9,1.4-4.6l28.7-61
				c1.5-3.2,3.7-5.7,6.6-7.7c2.8-1.9,6-2.7,9.6-2.4c7.3,0.6,12,4.9,14.1,12.8l17.2,64.9c0.5,2.1,0.8,3.9,0.7,5.3
				c-0.3,3.1-1.6,5.5-3.9,7.3C378,111.6,375.4,112.4,372.4,112.1z M349.4,48.4c-1.6,4.9-4.5,12.2-8.7,22.1l14.1,1.2L349.4,48.4z"/>
		</g>
		<g>
			<path class="st1" d="M414.1,45.3c2.5-2.7,6.1-3.9,10.8-3.6c2.9,0.2,5.4,1.4,7.3,3.5c2.1,2.4,3,5.4,2.8,9.1
				c-0.2,3.4-2.1,6-5.7,7.7c-3.3,1.2-6.7,2.3-10,3.5c-3.6,1.5-5.5,3.8-5.7,6.7l-1.7,25.5c-0.3,3.5-1.6,6.3-3.8,8.5
				c-2.2,2.2-5,3.1-8.4,2.9c-3.3-0.2-5.8-1.6-7.8-4c-1.9-2.4-2.8-5.4-2.6-8.9l3.1-45.4c0.3-3.6,1.8-6.3,4.4-8.2
				c2.3-1.7,5-2.4,7.9-2.2C409.4,40.6,412.5,42.2,414.1,45.3z"/>
		</g>
		<g>
			<path class="st1" d="M470.4,64.9l-1.7-0.5l-8,34.7c-0.7,2.9-2.1,5.3-4.1,7c-2,1.7-4.4,2.6-7.1,2.6c-0.9,0-1.7-0.1-2.7-0.2
				c-2.6-0.6-4.7-2-6.3-4c-1.5-2.1-2.3-4.4-2.3-7.1c0-1.1,0.1-2.2,0.3-3.3l8.1-34.8l-0.8-0.1c-5.3-1.2-8-4.4-8-9.5
				c0-0.9,0.1-1.9,0.3-2.8c0.5-2.4,1.7-4.3,3.5-5.7c1.8-1.4,3.9-2.1,6.2-2.1c0.9,0,1.7,0.1,2.4,0.2l0.8,0.2l1.6-7c0.7-2.9,2-5.2,4-7
				c2-1.8,4.3-2.7,7-2.7c0.9,0,1.7,0.1,2.7,0.3c2.7,0.6,4.8,1.9,6.3,3.9c1.5,2,2.3,4.4,2.3,7.2c0,1.1-0.1,2.2-0.3,3.3l-1.6,7
				l1.9,0.3c5.7,1.3,8.6,4.5,8.6,9.6c0,0.9-0.1,1.8-0.2,2.8c-1.2,5.3-4.5,7.9-9.9,7.9C472.5,65.2,471.5,65.1,470.4,64.9z"/>
		</g>
	</g>
	<g>
		<g>
			<g>
				<path class="st2" d="M365.6,106.3c-0.4,0-0.8,0-1.2,0l0,0c-5.3-0.5-9-3-11.1-7.5c-0.3-0.7-1-2.7-2.8-10.7l-25.1-2.2
					c-3.1,7.4-4.1,9.2-4.7,10c-2.8,4.2-6.9,6-12.1,5.6c-3.6-0.4-6.6-1.9-9.1-4.5c-2.5-2.7-3.5-5.9-3.2-9.7c0.1-1.6,0.6-3.4,1.6-5.4
					l28.7-60.9c1.7-3.5,4.1-6.3,7.2-8.4c3.2-2.2,6.8-3.1,10.9-2.8c8.2,0.7,13.5,5.5,15.8,14.2l17.2,64.9c0.6,2.3,0.8,4.3,0.8,5.9
					l0,0.1c-0.4,3.6-1.9,6.6-4.7,8.7C371.3,105.4,368.6,106.3,365.6,106.3z M364.7,102.4c2.5,0.2,4.6-0.4,6.5-1.9
					c1.9-1.4,2.9-3.4,3.2-5.9c0.1-1.3-0.2-2.8-0.6-4.7l-17.2-64.9c-1.9-7.1-5.9-10.8-12.3-11.3c-3.1-0.3-5.8,0.4-8.3,2.1
					c-2.5,1.7-4.5,4.1-5.9,6.9l-28.7,60.9c-0.7,1.5-1.1,2.8-1.2,3.9l0,0.1c-0.3,2.6,0.5,4.8,2.2,6.7c1.8,1.9,3.9,3,6.5,3.3
					c3.7,0.3,6.5-1,8.5-3.9l0.1-0.1c0.3-0.4,1.3-2.1,4.8-10.5l0.5-1.3l30.8,2.7l0.3,1.4c2.1,9,2.7,10.9,2.9,11.3
					C358.3,100.3,360.9,102,364.7,102.4z M349.4,66L330,64.3l1.1-2.5c4.1-9.7,7.1-17.1,8.7-21.9l2.2-6.6L349.4,66z M335.7,60.9
					l8.7,0.7l-3.3-14.1C339.7,51.2,337.9,55.7,335.7,60.9z"/>
			</g>
			<g>
				<path class="st2" d="M392.8,103.2c-0.4,0-0.7,0-1.1,0c-3.8-0.3-6.9-1.9-9.2-4.7c-2.2-2.8-3.2-6.3-3-10.2l3.1-45.4
					c0.4-4.2,2.1-7.4,5.2-9.7c2.7-2,5.8-2.8,9.2-2.6c4.2,0.3,7.4,1.6,9.5,4c2.7-2,6.3-2.9,10.6-2.6c3.5,0.3,6.4,1.7,8.6,4.1
					c2.5,2.8,3.6,6.4,3.3,10.5c-0.3,4.1-2.6,7.3-6.8,9.3l-0.2,0.1l-9.9,3.5c-2.8,1.2-4.3,2.9-4.5,5.1L406,89.9
					c-0.4,4-1.8,7.3-4.4,9.8C399.2,102,396.2,103.2,392.8,103.2z M395.9,34.3c-2.1,0-4,0.6-5.7,1.9c-2.2,1.6-3.4,3.8-3.6,6.8
					l-3.1,45.4c-0.2,3,0.5,5.5,2.1,7.5c1.6,2,3.7,3.1,6.4,3.3c2.8,0.2,5-0.6,6.9-2.4c1.9-1.8,3-4.2,3.2-7.2l1.7-25.5
					c0.3-3.7,2.6-6.5,6.9-8.4l0.1-0.1l9.9-3.4c2.9-1.4,4.3-3.3,4.5-6c0.2-3.1-0.6-5.6-2.3-7.6c-1.6-1.7-3.5-2.6-6-2.8
					c-4.1-0.3-7.1,0.7-9.2,3l-1.9,2l-1.3-2.4c-1.3-2.4-3.8-3.7-7.7-4C396.5,34.4,396.2,34.3,395.9,34.3z"/>
			</g>
			<g>
				<path class="st2" d="M441.7,102.9c-1,0-2-0.1-3-0.3l-0.1,0c-3.1-0.7-5.6-2.3-7.4-4.7c-1.8-2.4-2.7-5.2-2.7-8.3
					c0-1.2,0.1-2.4,0.4-3.7l7.7-32.9c-5.5-1.6-8.4-5.5-8.4-11.1c0-1.1,0.1-2.2,0.4-3.3c0.6-2.8,2.1-5.1,4.2-6.8
					c2.2-1.7,4.7-2.6,7.4-2.6c0.6,0,1.2,0,1.8,0.1l1.2-5.1c0.8-3.3,2.3-5.9,4.6-8c2.3-2.1,5.1-3.2,8.3-3.2c1,0,2.1,0.1,3.1,0.4
					c3.1,0.7,5.6,2.3,7.4,4.7c1.8,2.4,2.7,5.2,2.7,8.4c0,1.2-0.1,2.5-0.4,3.7l-1.2,5c8.3,1.9,10,7.3,10,11.5c0,0.9-0.1,2-0.3,3.1
					l0,0.2c-1.4,6.2-5.5,9.4-11.8,9.4c-1.1,0-2.3-0.1-3.4-0.4l-7.6,32.8c-0.8,3.3-2.4,6.1-4.7,8.1
					C447.7,101.9,444.9,102.9,441.7,102.9z M439.4,98.8c3.3,0.5,5.9,0,8.1-1.9c1.7-1.5,2.8-3.4,3.4-6l8.5-36.7l3.7,1
					c0.9,0.2,1.8,0.3,2.7,0.3c4.4,0,6.9-2,7.9-6.3c0.1-0.9,0.2-1.7,0.2-2.4c0-4.2-2.2-6.6-7-7.7l-3.8-0.7l2.1-9
					c0.2-0.9,0.3-1.9,0.3-2.8c0-2.4-0.6-4.3-1.9-6c-1.2-1.6-2.9-2.7-5.2-3.2c-0.8-0.2-1.5-0.3-2.2-0.3c-2.2,0-4.1,0.7-5.7,2.2
					c-1.7,1.5-2.8,3.5-3.4,6l-2.1,9l-2.7-0.8c-0.6-0.1-1.3-0.2-2-0.2c-1.9,0-3.5,0.6-5,1.7c-1.5,1.2-2.4,2.7-2.8,4.6
					c-0.2,0.8-0.3,1.6-0.3,2.4c0,4.1,2,6.6,6.4,7.6l2.8,0.4l-8.6,36.9c-0.2,0.9-0.3,1.9-0.3,2.8c0,2.3,0.6,4.2,1.9,6
					C435.6,97.2,437.2,98.3,439.4,98.8z"/>
			</g>
		</g>
	</g>
</g>
<path class="st3" d="M507.4,48.9c-0.4,0-0.9-0.1-1.3-0.2c-1.4-0.5-2.5-1.7-2.7-3.2l-1.6-12.1L491,27.8c-1.4-0.7-2.2-2.1-2.2-3.6
	c0-1.5,0.9-2.9,2.3-3.5l11-5.2l1.9-12.1c0.2-1.5,1.3-2.7,2.7-3.2c1.5-0.5,3,0,4.1,1.1l8.4,8.9l12.1-1.9c1.5-0.2,3,0.4,3.9,1.6
	c0.9,1.2,1,2.8,0.2,4.2l-5.9,10.7l5.5,10.9c0.7,1.4,0.5,3-0.4,4.2c-0.9,1.2-2.4,1.8-3.9,1.5l-12-2.3l-8.7,8.6
	C509.4,48.5,508.4,48.9,507.4,48.9z M498.9,24.3l7.2,3.7c1.2,0.6,2,1.7,2.1,3l1,8.1l5.8-5.7c0.9-0.9,2.3-1.3,3.5-1.1l8,1.5l-3.7-7.3
	c-0.6-1.2-0.6-2.5,0.1-3.7l3.9-7.1l-8,1.3c-1.3,0.2-2.6-0.2-3.5-1.2l-5.6-5.9l-1.3,8c-0.2,1.3-1,2.4-2.2,3L498.9,24.3z M517.4,38.9
	C517.4,38.9,517.4,38.9,517.4,38.9L517.4,38.9z M529.1,38.7C529.1,38.7,529.1,38.7,529.1,38.7L529.1,38.7z M501.7,31.9
	C501.7,31.9,501.7,31.9,501.7,31.9L501.7,31.9z M528.9,26.1L528.9,26.1C528.9,26.1,528.9,26.1,528.9,26.1z"/>
</svg>
