<?xml version="1.0" encoding="utf-8"?>
<!-- Generator: Adobe Illustrator 27.9.0, SVG Export Plug-In . SVG Version: 6.00 Build 0)  -->
<svg version="1.1" id="Layer_1" xmlns="http://www.w3.org/2000/svg" xmlns:xlink="http://www.w3.org/1999/xlink" x="0px" y="0px"
	 viewBox="0 0 779.9 121.8" style="enable-background:new 0 0 779.9 121.8;" xml:space="preserve">
<style type="text/css">
	.st0{fill:#FDE35E;}
	.st1{fill:#E8DFF5;}
	.st2{fill:#FFF1A9;}
	.st3{fill:#CDB4DB;}
</style>
<path class="st0" d="M301.3,121.8c-0.1,0-0.2-0.1-0.3-0.1c-1.3-0.5-2-1.9-1.6-3.2l2.7-8c0.5-1.3,1.9-2,3.2-1.6
	c1.3,0.5,2,1.9,1.6,3.2l-2.7,8C303.7,121.3,302.5,122,301.3,121.8z M317.4,120.8c-0.7-0.1-1.4-0.6-1.8-1.4l-3.7-7.6
	c-0.6-1.2-0.1-2.7,1.2-3.4c1.2-0.6,2.7-0.1,3.4,1.2l3.7,7.6c0.6,1.2,0.1,2.7-1.2,3.4C318.4,120.8,317.9,120.9,317.4,120.8z
	 M289.2,111.1c-0.7-0.1-1.4-0.6-1.8-1.4c-0.6-1.2-0.1-2.7,1.2-3.4l7.6-3.7c1.2-0.6,2.7-0.1,3.4,1.2c0.6,1.2,0.1,2.7-1.2,3.4
	l-7.6,3.7C290.3,111.1,289.8,111.2,289.2,111.1z M296.2,97.8c-0.1,0-0.2-0.1-0.3-0.1l-8-2.7c-1.3-0.5-2-1.9-1.6-3.2
	c0.5-1.3,1.9-2,3.2-1.6l8,2.7c1.3,0.5,2,1.9,1.6,3.2C298.7,97.3,297.4,98,296.2,97.8z M302.6,90.5c-0.7-0.1-1.4-0.6-1.8-1.4
	l-3.7-7.6c-0.6-1.2-0.1-2.7,1.2-3.4c1.2-0.6,2.7-0.1,3.4,1.2l3.7,7.6c0.6,1.2,0.1,2.7-1.2,3.4C303.7,90.6,303.1,90.6,302.6,90.5z"/>
<path class="st1" d="M484.4,48.9c-0.4,0-0.9-0.1-1.3-0.2c-1.4-0.5-2.5-1.7-2.7-3.2l-1.6-12.1L468,27.8c-1.4-0.7-2.2-2.1-2.2-3.6
	s0.9-2.9,2.3-3.5l11-5.2L481,3.4c0.2-1.5,1.3-2.7,2.7-3.2c1.5-0.5,3,0,4.1,1.1l8.4,8.9l12.1-1.9c1.5-0.2,3,0.4,3.9,1.6
	s1,2.8,0.2,4.2l-5.9,10.7l5.5,10.9c0.7,1.4,0.5,3-0.4,4.2s-2.4,1.8-3.9,1.5l-12-2.3l-8.7,8.6C486.4,48.5,485.4,48.9,484.4,48.9z
	 M475.9,24.3l7.2,3.7c1.2,0.6,2,1.7,2.1,3l1,8.1l5.8-5.7c0.9-0.9,2.3-1.3,3.5-1.1l8,1.5l-3.7-7.3c-0.6-1.2-0.6-2.5,0.1-3.7l3.9-7.1
	l-8,1.3c-1.3,0.2-2.6-0.2-3.5-1.2l-5.6-5.9l-1.3,8c-0.2,1.3-1,2.4-2.2,3L475.9,24.3z M494.4,38.9L494.4,38.9L494.4,38.9z
	 M506.1,38.7L506.1,38.7L506.1,38.7z M478.7,31.9L478.7,31.9L478.7,31.9z M505.9,26.1L505.9,26.1L505.9,26.1z"/>
<g>
	<g>
		<g>
			<path class="st2" d="M375.9,101.9c-3.7-0.3-6.2-2-7.6-5.1c-0.4-0.8-1.2-3.9-2.4-9.4l-22.5-1.9c-2.1,5.1-3.5,8-4,8.7
				c-1.9,2.9-4.7,4.1-8.3,3.9c-2.5-0.2-4.6-1.3-6.3-3.1c-1.7-1.8-2.4-4-2.2-6.6c0.1-1.1,0.4-2.3,1.1-3.7l23-49
				c1.2-2.6,3-4.6,5.3-6.2c2.2-1.5,4.8-2.2,7.7-1.9c5.9,0.5,9.6,3.9,11.3,10.3L385,90c0.4,1.7,0.6,3.1,0.6,4.3
				c-0.2,2.5-1.3,4.4-3.1,5.9C380.4,101.5,378.3,102.2,375.9,101.9z M357.5,50.8c-1.3,3.9-3.6,9.8-7,17.7l11.3,1L357.5,50.8z"/>
		</g>
		<g>
			<path class="st2" d="M409.4,48.3c2-2.2,4.9-3.1,8.7-2.9c2.3,0.2,4.3,1.1,5.9,2.8c1.7,1.9,2.4,4.3,2.2,7.3
				c-0.2,2.7-1.7,4.8-4.6,6.2c-2.6,1-5.4,1.8-8,2.8c-2.9,1.2-4.4,3-4.6,5.4l-1.4,20.5c-0.2,2.8-1.3,5.1-3,6.8
				c-1.8,1.8-4,2.5-6.7,2.3c-2.6-0.2-4.7-1.3-6.3-3.2c-1.5-1.9-2.2-4.3-2.1-7.1l2.5-36.4c0.2-2.9,1.4-5.1,3.5-6.6
				c1.8-1.4,4-1.9,6.3-1.8C405.6,44.6,408.1,45.8,409.4,48.3z"/>
		</g>
		<g>
			<path class="st2" d="M454.6,64.1l-1.4-0.4l-6.4,27.8c-0.6,2.3-1.7,4.3-3.3,5.6c-1.6,1.4-3.5,2.1-5.7,2.1c-0.7,0-1.4-0.1-2.2-0.2
				c-2.1-0.5-3.8-1.6-5.1-3.2c-1.2-1.7-1.8-3.5-1.8-5.7c0-0.9,0.1-1.8,0.2-2.6l6.5-27.9l-0.6-0.1c-4.3-1-6.4-3.5-6.4-7.6
				c0-0.7,0.1-1.5,0.2-2.2c0.4-1.9,1.4-3.5,2.8-4.6c1.4-1.1,3.1-1.7,5-1.7c0.7,0,1.4,0.1,1.9,0.2l0.6,0.2l1.3-5.6
				c0.6-2.3,1.6-4.2,3.2-5.6c1.6-1.4,3.5-2.2,5.6-2.2c0.7,0,1.4,0.1,2.2,0.2c2.2,0.5,3.9,1.5,5.1,3.1c1.2,1.6,1.8,3.5,1.8,5.8
				c0,0.9-0.1,1.8-0.2,2.6l-1.3,5.6l1.5,0.2c4.6,1,6.9,3.6,6.9,7.7c0,0.7-0.1,1.4-0.2,2.2c-1,4.3-3.6,6.3-7.9,6.3
				C456.3,64.3,455.5,64.2,454.6,64.1z"/>
		</g>
	</g>
	<g>
		<g>
			<g>
				<path class="st3" d="M370.5,97.3c-0.3,0-0.6,0-1,0l0,0c-4.3-0.4-7.2-2.4-8.9-6c-0.2-0.6-0.8-2.2-2.2-8.6l-20.1-1.8
					c-2.5,5.9-3.3,7.4-3.8,8c-2.2,3.4-5.5,4.8-9.7,4.5c-2.9-0.3-5.3-1.5-7.3-3.6c-2-2.2-2.8-4.7-2.6-7.8c0.1-1.3,0.5-2.7,1.3-4.3
					l23-48.9c1.4-2.8,3.3-5.1,5.8-6.7c2.6-1.8,5.5-2.5,8.7-2.2c6.6,0.6,10.8,4.4,12.7,11.4l13.8,52.1c0.5,1.8,0.6,3.5,0.6,4.7v0.1
					c-0.3,2.9-1.5,5.3-3.8,7C375,96.6,372.9,97.3,370.5,97.3z M369.7,94.2c2,0.2,3.7-0.3,5.2-1.5c1.5-1.1,2.3-2.7,2.6-4.7
					c0.1-1-0.2-2.2-0.5-3.8L363.2,32c-1.5-5.7-4.7-8.7-9.9-9.1c-2.5-0.2-4.7,0.3-6.7,1.7c-2,1.4-3.6,3.3-4.7,5.5l-23,48.9
					c-0.6,1.2-0.9,2.2-1,3.1v0.1c-0.2,2.1,0.4,3.9,1.8,5.4c1.4,1.5,3.1,2.4,5.2,2.6c3,0.2,5.2-0.8,6.8-3.1l0.1-0.1
					c0.2-0.3,1-1.7,3.9-8.4l0.4-1l24.7,2.2l0.2,1.1c1.7,7.2,2.2,8.7,2.3,9.1C364.6,92.5,366.7,93.8,369.7,94.2z M357.5,65l-15.6-1.4
					l0.9-2c3.3-7.8,5.7-13.7,7-17.6l1.8-5.3L357.5,65z M346.5,60.9l7,0.6l-2.6-11.3C349.7,53.1,348.2,56.7,346.5,60.9z"/>
			</g>
			<g>
				<path class="st3" d="M392.3,94.8c-0.3,0-0.6,0-0.9,0c-3-0.2-5.5-1.5-7.4-3.8c-1.8-2.2-2.6-5.1-2.4-8.2l2.5-36.4
					c0.3-3.4,1.7-5.9,4.2-7.8c2.2-1.6,4.7-2.2,7.4-2.1c3.4,0.2,5.9,1.3,7.6,3.2c2.2-1.6,5.1-2.3,8.5-2.1c2.8,0.2,5.1,1.4,6.9,3.3
					c2,2.2,2.9,5.1,2.6,8.4c-0.2,3.3-2.1,5.9-5.5,7.5l-0.2,0.1l-7.9,2.8c-2.2,1-3.5,2.3-3.6,4.1l-1.3,20.3c-0.3,3.2-1.4,5.9-3.5,7.9
					C397.4,93.8,395,94.8,392.3,94.8z M394.8,39.5c-1.7,0-3.2,0.5-4.6,1.5c-1.8,1.3-2.7,3-2.9,5.5l-2.5,36.4c-0.2,2.4,0.4,4.4,1.7,6
					c1.3,1.6,3,2.5,5.1,2.6c2.2,0.2,4-0.5,5.5-1.9c1.5-1.4,2.4-3.4,2.6-5.8l1.4-20.5c0.2-3,2.1-5.2,5.5-6.7l0.1-0.1l7.9-2.7
					c2.3-1.1,3.5-2.6,3.6-4.8c0.2-2.5-0.5-4.5-1.8-6.1c-1.3-1.4-2.8-2.1-4.8-2.2c-3.3-0.2-5.7,0.6-7.4,2.4l-1.5,1.6l-1-1.9
					c-1-1.9-3-3-6.2-3.2C395.3,39.6,395,39.5,394.8,39.5z"/>
			</g>
			<g>
				<path class="st3" d="M431.5,94.6c-0.8,0-1.6-0.1-2.4-0.2h-0.1c-2.5-0.6-4.5-1.8-5.9-3.8c-1.4-1.9-2.2-4.2-2.2-6.7
					c0-1,0.1-1.9,0.3-3l6.2-26.4c-4.4-1.3-6.7-4.4-6.7-8.9c0-0.9,0.1-1.8,0.3-2.6c0.5-2.2,1.7-4.1,3.4-5.5c1.8-1.4,3.8-2.1,5.9-2.1
					c0.5,0,1,0,1.4,0.1l1-4.1c0.6-2.6,1.8-4.7,3.7-6.4c1.8-1.7,4.1-2.6,6.7-2.6c0.8,0,1.7,0.1,2.5,0.3c2.5,0.6,4.5,1.8,5.9,3.8
					c1.4,1.9,2.2,4.2,2.2,6.7c0,1-0.1,2-0.3,3l-1,4c6.7,1.5,8,5.9,8,9.2c0,0.7-0.1,1.6-0.2,2.5v0.2c-1.1,5-4.4,7.5-9.5,7.5
					c-0.9,0-1.8-0.1-2.7-0.3l-6.1,26.3c-0.6,2.6-1.9,4.9-3.8,6.5C436.4,93.8,434.1,94.6,431.5,94.6z M429.7,91.3
					c2.6,0.4,4.7,0,6.5-1.5c1.4-1.2,2.2-2.7,2.7-4.8l6.8-29.5l3,0.8c0.7,0.2,1.4,0.2,2.2,0.2c3.5,0,5.5-1.6,6.3-5.1
					c0.1-0.7,0.2-1.4,0.2-1.9c0-3.4-1.8-5.3-5.6-6.2l-3-0.6l1.7-7.2c0.2-0.7,0.2-1.5,0.2-2.2c0-1.9-0.5-3.5-1.5-4.8
					c-1-1.3-2.3-2.2-4.2-2.6c-0.6-0.2-1.2-0.2-1.8-0.2c-1.8,0-3.3,0.6-4.6,1.8c-1.4,1.2-2.2,2.8-2.7,4.8l-1.7,7.2l-2.2-0.6
					c-0.5-0.1-1-0.2-1.6-0.2c-1.5,0-2.8,0.5-4,1.4c-1.2,1-1.9,2.2-2.2,3.7c-0.2,0.6-0.2,1.3-0.2,1.9c0,3.3,1.6,5.3,5.1,6.1l2.2,0.3
					l-6.9,29.6c-0.2,0.7-0.2,1.5-0.2,2.2c0,1.8,0.5,3.4,1.5,4.8C426.6,90,427.9,90.9,429.7,91.3z"/>
			</g>
		</g>
	</g>
</g>
</svg>
