<?xml version="1.0" encoding="utf-8"?>
<!-- Generator: Adobe Illustrator 27.9.0, SVG Export Plug-In . SVG Version: 6.00 Build 0)  -->
<svg version="1.1" id="Layer_1" xmlns="http://www.w3.org/2000/svg" xmlns:xlink="http://www.w3.org/1999/xlink" x="0px" y="0px"
	 viewBox="0 0 779.9 121.8" style="enable-background:new 0 0 779.9 121.8;" xml:space="preserve">
<style type="text/css">
	.st0{fill:#FFF1A9;}
	.st1{fill:#CDB4DB;}
	.st2{fill:#FDE35E;}
	.st3{fill:#E8DFF5;}
</style>
<path class="st0" d="M364.4,110.4c-4.9-0.4-8.4-2.7-10.3-6.9c-0.5-1.1-1.6-5.3-3.2-12.7l-30.1-2.6c-2.8,6.9-4.6,10.8-5.4,11.8
	c-2.6,3.8-6.4,5.5-11.1,5.1c-3.4-0.3-6.1-1.8-8.4-4.2c-2.3-2.6-3.2-5.4-2.8-8.9c0.1-1.5,0.5-3.1,1.5-5l30.9-65.7
	c1.6-3.4,4.1-6.2,7-8.2c3.1-2,6.5-3,10.4-2.6c7.7,0.7,12.7,5.3,15,13.8l18.5,70c0.5,2.3,0.8,4.2,0.8,5.8c-0.3,3.4-1.8,5.9-4.2,7.8
	C370.4,109.9,367.6,110.7,364.4,110.4z M339.6,41.8c-1.8,5.3-4.9,13.2-9.3,23.8l15.1,1.2L339.6,41.8z M409.5,38.4
	c2.7-3,6.5-4.2,11.6-3.9c3.1,0.3,5.8,1.5,7.8,3.8c2.3,2.6,3.2,5.8,3,9.7c-0.3,3.6-2.3,6.5-6.1,8.2c-3.6,1.2-7.2,2.6-10.8,3.8
	c-3.8,1.6-5.9,4.1-6.1,7.3l-1.9,27.6c-0.3,3.8-1.8,6.8-4.2,9.2c-2.4,2.3-5.4,3.4-9.1,3.1c-3.5-0.3-6.4-1.6-8.4-4.2
	c-2-2.7-3-5.9-2.7-9.6l3.4-48.9c0.3-3.8,1.9-6.8,4.7-8.9c2.6-1.9,5.4-2.6,8.5-2.4C404.4,33.3,407.7,35.2,409.5,38.4z M470,59.5
	l-1.9-0.5l-8.6,37.4c-0.8,3.1-2.2,5.7-4.3,7.7c-2.2,1.9-4.7,2.7-7.7,2.7c-0.9,0-1.9-0.1-2.8-0.3c-2.8-0.7-5.1-2-6.8-4.2
	c-1.6-2.3-2.6-4.9-2.6-7.7c0-1.2,0.1-2.3,0.4-3.5l8.8-37.6l-0.8-0.1c-5.8-1.4-8.6-4.7-8.6-10.3c0-0.9,0.1-2,0.4-3
	c0.5-2.6,1.9-4.6,3.8-6.1c2-1.6,4.3-2.4,6.8-2.4c0.9,0,1.8,0.1,2.6,0.3l0.8,0.3l1.8-7.6c0.8-3.1,2.2-5.5,4.2-7.6
	c2.2-1.9,4.7-2.8,7.7-2.8c0.9,0,1.9,0.1,2.8,0.4c3,0.7,5.1,2,6.8,4.2c1.6,2.2,2.6,4.7,2.6,7.7c0,1.2-0.1,2.3-0.4,3.5l-1.8,7.6l2,0.4
	c6.2,1.4,9.3,4.9,9.3,10.4c0,0.9-0.1,1.9-0.3,3c-1.4,5.7-4.9,8.5-10.7,8.5C472.3,59.9,471.2,59.8,470,59.5z"/>
<path class="st1" d="M357.3,104.8c-0.4,0-0.8,0-1.2,0l0,0c-5.8-0.5-9.9-3.2-12.2-8.2c-0.4-0.8-1.1-2.8-3-11.5l-26.8-2.3
	c-3.4,8-4.5,9.9-5,10.7c-3,4.5-7.6,6.6-13.2,6.1c-3.9-0.4-7.3-2-9.9-4.9c-2.7-3-3.9-6.6-3.5-10.7c0.1-1.8,0.7-3.8,1.8-5.8L315,12.3
	c1.9-3.8,4.5-6.9,7.8-9.2c3.5-2.4,7.6-3.4,11.9-3.1c8.9,0.8,14.7,5.9,17.2,15.5l18.5,70c0.7,2.6,0.9,4.6,0.8,6.5
	c-0.4,4.1-2.2,7.3-5.1,9.6C363.5,103.8,360.6,104.8,357.3,104.8z M356.5,100c2.6,0.3,4.9-0.4,6.9-2c2-1.5,3.1-3.5,3.4-6.2
	c0-1.2-0.1-3-0.7-4.9l-18.6-70.1c-2-7.6-6.2-11.5-13.1-12c-3.4-0.3-6.2,0.4-8.9,2.3c-2.6,1.9-4.7,4.3-6.2,7.3L288.4,80
	c-0.8,1.6-1.2,3-1.2,4.2c-0.3,2.8,0.4,5.1,2.3,7.2c1.9,2,4.1,3.1,6.9,3.4c3.9,0.4,6.9-0.9,8.9-4.1c0.4-0.5,1.5-2.3,5.1-11.4l0.7-1.6
	l33.6,3l0.4,1.6c2.2,9.7,2.8,11.8,3.1,12.2C349.8,97.9,352.3,99.6,356.5,100z M386.9,101.4c-0.4,0-0.8,0-1.2,0
	c-4.2-0.3-7.6-2-10-5.1c-2.4-3.1-3.5-6.9-3.2-11.2l3.4-48.9c0.4-4.6,2.3-8.1,5.7-10.7c3-2.2,6.4-3.1,10.1-2.8
	c4.5,0.3,8,1.8,10.3,4.2c3-2.2,6.8-3.1,11.4-2.7c3.8,0.3,7,1.8,9.5,4.5c0.9,1.1,1.6,2.2,2.2,3.4c0-0.1,0.1-0.3,0.1-0.5
	c0.7-3.1,2.3-5.5,4.6-7.4c2.4-1.9,5.1-2.8,8.2-2.8c0.5,0,1.2,0,1.8,0.1l1.2-5.3c0.8-3.5,2.6-6.5,5-8.6c2.7-2.3,5.7-3.5,9.2-3.5
	c1.1,0,2.3,0.1,3.5,0.4c3.4,0.8,6.2,2.6,8.1,5.1c1.9,2.6,3,5.7,3,9.2c0,1.4-0.1,2.7-0.4,4.1l-1.2,5.1c8.9,2.2,10.8,8.1,10.8,12.6
	c0,1.1-0.1,2.2-0.3,3.4v0.1c-1.6,6.8-6.1,10.3-13,10.3c-1.1,0-2.3-0.1-3.5-0.4l-8.1,35.1c-0.8,3.6-2.6,6.6-5.1,8.9
	c-3.4,2.8-7.6,3.9-12.4,3.1h-0.1c-3.4-0.8-6.1-2.6-8.1-5.1c-2-2.7-3-5.8-3-9.2c0-1.4,0.1-2.7,0.4-4.1l8.2-35.3
	c-3.5-1.1-5.9-3-7.4-5.7c-0.7,3.8-3.2,6.8-7.3,8.8l-0.3,0.1l-10.7,3.8c-3.9,1.8-4.6,3.8-4.6,5.3l-1.9,27.6c-0.4,4.3-2,8-4.9,10.7
	C393.8,100.2,390.6,101.4,386.9,101.4z M390.2,27.2c-2.3,0-4.2,0.7-5.9,2c-2.3,1.6-3.5,4.1-3.8,7.2l-3.4,48.9
	c-0.3,3.2,0.5,5.8,2.3,8c1.6,2,3.8,3.1,6.8,3.4c2.8,0.1,5.3-0.5,7.2-2.4c2-1.9,3.1-4.5,3.4-7.7l1.9-27.4c0.3-2.8,1.8-6.8,7.6-9.3
	h0.1l10.7-3.6c3-1.5,4.5-3.5,4.7-6.2c0.3-3.2-0.5-5.9-2.4-8.1c-1.6-1.8-3.6-2.7-6.4-3c-4.3-0.3-7.6,0.7-9.7,3.1l-2.3,2.4l-1.6-3
	c-1.4-2.6-4.1-3.9-8.1-4.2C390.8,27.2,390.6,27.2,390.2,27.2z M437.1,96.1c3.5,0.5,6.2,0,8.5-2c1.8-1.6,3-3.6,3.6-6.4l9.2-39.9
	l4.2,1.1c0.9,0.3,1.9,0.3,2.8,0.3c4.6,0,7.2-2,8.4-6.6c0.1-0.9,0.3-1.8,0.3-2.6c0-4.5-2.3-6.9-7.4-8.1l-4.3-0.8l2.3-9.9
	c0.3-0.9,0.3-2,0.3-3c0-2.4-0.7-4.6-2-6.4s-3.1-2.8-5.4-3.4c-0.8-0.3-1.6-0.3-2.3-0.3c-2.3,0-4.3,0.8-6.1,2.3
	c-1.8,1.6-2.8,3.6-3.5,6.4l-2.3,9.9l-3.1-0.9c-0.7-0.1-1.4-0.1-2-0.1c-2,0-3.6,0.7-5.3,1.9c-1.5,1.2-2.4,2.7-3,4.9
	c-0.3,0.8-0.3,1.6-0.3,2.4c0,4.3,2,6.9,6.8,8l3.4,0.5l-9.9,40.1c-0.3,0.9-0.3,2-0.3,3c0,2.4,0.7,4.5,2,6.4
	C433,94.5,434.8,95.6,437.1,96.1z M340.3,61.3l-21.6-1.8l1.2-3c4.5-10.5,7.6-18.4,9.3-23.6l2.7-8L340.3,61.3z M325.6,55.3l8.6,0.7
	L331,41.9C329.5,45.7,327.7,50.2,325.6,55.3z"/>
<path class="st2" d="M274.9,121.8c-0.1,0-0.3,0-0.4,0c-1.4-0.1-2.3-1.5-2.2-2.8l1.2-8.4c0.1-1.4,1.5-2.3,2.8-2.2
	c1.4,0.1,2.3,1.5,2.2,2.8l-1.2,8.4C277.2,121,276.1,121.8,274.9,121.8z M290.6,117.7c-0.8,0-1.5-0.4-2-0.9l-5.1-6.8
	c-0.8-1.1-0.7-2.7,0.5-3.5c1.2-0.8,2.7-0.7,3.5,0.5l5.1,6.8c0.8,1.1,0.7,2.7-0.5,3.5C291.7,117.6,291.1,117.7,290.6,117.7z
	 M260.8,113.7c-0.8,0-1.5-0.4-2-0.9c-0.8-1.1-0.7-2.7,0.5-3.5l6.8-5.1c1.1-0.8,2.7-0.7,3.5,0.5c0.8,1.1,0.7,2.7-0.5,3.5l-6.8,5.1
	C261.9,113.4,261.4,113.7,260.8,113.7z M265.2,99.1c-0.1,0-0.3,0-0.4,0l-8.4-1.2c-1.4-0.1-2.3-1.5-2.2-2.8c0.1-1.4,1.5-2.3,2.8-2.2
	l8.4,1.2c1.4,0.1,2.3,1.5,2.2,2.8C267.5,98.2,266.4,99.1,265.2,99.1z M270.2,90.7c-0.8,0-1.5-0.4-2-0.9L263,83
	c-0.8-1.1-0.7-2.7,0.5-3.5c1.1-0.8,2.7-0.7,3.5,0.5l5.1,6.8c0.8,1.1,0.7,2.7-0.5,3.5C271.1,90.4,270.6,90.7,270.2,90.7z"/>
<path class="st3" d="M500.3,51.8c-0.4,0-0.9-0.1-1.4-0.3c-1.6-0.5-2.7-1.9-3-3.5l-1.5-10.1l-9.2-4.6c-1.5-0.7-2.4-2.2-2.4-3.9
	s0.9-3.1,2.4-3.9l9.2-4.6l1.5-10.1c0.3-1.6,1.4-3,3-3.5c1.6-0.5,3.2-0.1,4.5,1.1l7.2,7.4l10.1-1.8c1.6-0.3,3.2,0.4,4.2,1.8
	s1.1,3.1,0.3,4.6l-4.7,9.1l4.7,9.1c0.8,1.5,0.7,3.2-0.3,4.6s-2.6,2-4.2,1.8L510.6,43l-7.2,7.4C502.6,51.3,501.4,51.8,500.3,51.8z
	 M491.2,29.5l6.9,3.4c1.2,0.7,2.2,1.9,2.3,3.2l1.1,7.6l5.3-5.4c0.9-1.1,2.4-1.5,3.8-1.2l7.6,1.4l-3.5-6.8c-0.7-1.2-0.7-2.7,0-4.1
	l3.5-6.8l-7.6,1.4c-1.4,0.3-2.8-0.3-3.8-1.2l-5.3-5.4l-1.1,7.6c-0.1,1.4-1.1,2.6-2.3,3.2L491.2,29.5z M494.4,36.9L494.4,36.9
	L494.4,36.9z M494.4,21.9L494.4,21.9L494.4,21.9z M498.9,12.7L498.9,12.7L498.9,12.7z"/>
</svg>
