<?xml version="1.0" encoding="utf-8"?>
<!-- Generator: Adobe Illustrator 27.9.0, SVG Export Plug-In . SVG Version: 6.00 Build 0)  -->
<svg version="1.1" id="Layer_1" xmlns="http://www.w3.org/2000/svg" xmlns:xlink="http://www.w3.org/1999/xlink" x="0px" y="0px"
	 viewBox="0 0 779.9 121.8" style="enable-background:new 0 0 779.9 121.8;" xml:space="preserve">
<style type="text/css">
	.st0{fill:#FFAFCC;}
	.st1{fill:#E4EEF7;}
	.st2{fill:#FCE0E3;}
	.st3{fill:#A6CEEE;}
</style>
<g>
	<path class="st0" d="M204.8,121.8c-1.7,0-3.3-0.6-4.6-1.9c-1.8-1.7-2.5-4.1-1.9-6.4L201,102l2.9-11.7c0.6-2.4,2.3-4.2,4.6-4.8
		c2.3-0.7,4.8-0.1,6.5,1.6l17.3,16.4c1.8,1.7,2.5,4.1,1.9,6.4c-0.6,2.4-2.3,4.2-4.6,4.9l-11.6,3.5l-11.4,3.4
		C206.1,121.7,205.4,121.8,204.8,121.8z M210.5,91.1c-0.1,0-0.2,0-0.2,0c-0.2,0.1-0.4,0.2-0.5,0.5l-2.9,11.7l-2.8,11.5
		c-0.1,0.3,0.1,0.6,0.2,0.7c0.1,0.1,0.4,0.3,0.7,0.2l11.4-3.4l11.5-3.5c0.3-0.1,0.5-0.4,0.5-0.5c0-0.2,0-0.5-0.2-0.7L211,91.3
		C210.8,91.2,210.6,91.1,210.5,91.1z"/>
</g>
<g>
	<path class="st1" d="M568.1,44l-4.9-7.2c7.1-4.8,9-14.1,4.2-21.2c-2.3-3.5-5.8-5.8-9.8-6.6c-3.9-0.8-7.9,0.1-11.3,2.4l-4.9-7.2
		c5.3-3.6,11.7-4.9,17.9-3.7c6.3,1.2,11.7,4.9,15.4,10.3C582.2,21.9,579.3,36.5,568.1,44z"/>
</g>
<g>
	<g>
		<g>
			<g>
				<path class="st2" d="M275.8,92l-15.9,2.8c-0.6,0.1-1.2,0.2-1.9,0.2c-5.2,0-8.3-2.5-9.2-7.6l-9.1-51.1c-0.1-0.6-0.1-1.2-0.1-1.9
					c0-2.3,0.7-4.3,2.1-5.9c1.4-1.7,3.3-2.7,5.6-3.1l15.2-2.7c2.7-0.4,5.2-0.6,7.8-0.6c8.7,0,15.9,2.7,21.7,8.1
					c5.8,5.4,9.5,12.8,11.2,22.2c0.4,2.5,0.6,5,0.6,7.5c0,8.3-2.5,15.4-7.5,21.2C291.4,86.8,284.5,90.5,275.8,92z M265.4,39.9l-6,1
					l6.2,35.2l6.9-1.2c8.2-1.4,12.3-6.4,12.3-15.1c0-1.5-0.2-3.1-0.5-4.8c-1.9-10.3-6.9-15.5-15.2-15.5
					C268.1,39.5,266.8,39.6,265.4,39.9z"/>
			</g>
		</g>
		<g>
			<g>
				<path class="st2" d="M353.8,65.3l-24,8.3c1.6,1.6,3.7,2.4,6.2,2.4c1.4,0,2.9-0.3,4.4-0.8c2.1-0.7,4.4-2.5,6.9-5.2
					c2.5-2.7,4.4-4.3,5.6-4.8c0.7-0.2,1.5-0.4,2.2-0.4c2.2,0,4.1,0.8,5.7,2.3c1.6,1.5,2.5,3.4,2.5,5.5c0,3.4-2.1,7-6.3,10.8
					c-3.8,3.5-7.9,6-12.4,7.6c-3.2,1.1-6.4,1.7-9.6,1.7c-5.7,0-10.9-1.7-15.4-5.2c-4.5-3.5-7.8-8.1-9.9-14.1
					c-1.1-3.1-1.7-6.4-1.7-9.8c0-5.7,1.5-10.8,4.4-15.3c3.1-4.8,7.4-8.1,12.9-10c2.7-0.9,5.5-1.4,8.2-1.4c5.7,0,11,1.8,15.8,5.5
					c4.6,3.4,7.8,7.6,9.4,12.5c0.4,1.2,0.6,2.4,0.6,3.5C359.4,61.7,357.5,64,353.8,65.3z M330.4,53.2c-3.6,1.2-5.4,3.8-5.5,7.8
					l14.5-5c-1.7-2.2-3.7-3.2-6.2-3.2C332.4,52.7,331.4,52.9,330.4,53.2z"/>
			</g>
		</g>
		<g>
			<g>
				<path class="st2" d="M391.1,92.3c-1.9,0.4-4.1,0.6-6.5,0.6c-4,0-7.5-0.6-10.6-1.9c-4.2-1.7-6.3-4.2-6.3-7.7c0-1.8,0.5-3.5,1.4-5
					c1.1-1.9,2.7-3,4.7-3.4c0.8-0.2,1.6-0.3,2.4-0.3c1.2,0,2.9,0.3,5,0.9c2.1,0.6,3.8,0.9,5,0.9c0.7,0,1.4-0.1,2-0.3
					c2-0.4,2.8-1.1,2.6-2.1c-0.1-0.5-2.3-1-6.5-1.6c-5.2-0.6-9.3-1.6-12.1-3c-4.6-2.2-7.5-5.6-8.5-10.2c-0.4-1.4-0.6-2.8-0.6-4.2
					c0-5.6,2.4-10.1,7.1-13.6c4.3-3.2,9.4-4.8,15.1-4.8c3.9,0,7.2,0.7,10,2c3.7,1.7,5.6,4.3,5.6,7.8c0,2.2-0.7,4-2.1,5.6
					c-1.4,1.6-3.1,2.4-5.2,2.4c-0.9,0-2.5-0.2-4.6-0.6c-2.2-0.4-3.8-0.6-4.8-0.6c-1.4,0-2.5,0.2-3.1,0.7c-0.4,0.3-0.6,0.7-0.5,1.3
					c0.1,0.6,2.3,1.1,6.6,1.6c5.2,0.7,9.3,1.7,12.1,3c4.6,2.2,7.5,5.6,8.5,10.2c0.3,1.3,0.5,2.6,0.5,3.9c0,4.4-1.6,8.2-4.7,11.5
					C400.5,88.8,396.3,91,391.1,92.3z"/>
			</g>
		</g>
		<g>
			<g>
				<path class="st2" d="M419.9,37c-2.7,0.2-5-0.7-7-2.6c-2-1.9-3.1-4.2-3.3-6.9c-0.1-2.5,0.8-4.8,2.6-6.9c1.9-2,4.1-3.1,6.7-3.2
					c2.6-0.2,4.9,0.6,7,2.5c2.1,1.8,3.2,4,3.3,6.6c0.1,2.7-0.7,5.1-2.5,7.2C424.8,35.8,422.6,36.9,419.9,37z M422.7,92.3
					c-2.7,0.2-4.9-0.6-6.6-2.4c-1.8-1.8-2.7-4-2.8-6.8l-1.9-35.6c-0.2-2.8,0.5-5.1,2.1-7c1.6-1.9,3.7-3,6.3-3.1
					c2.7-0.1,4.9,0.7,6.6,2.5c1.8,1.8,2.7,4,2.8,6.8l1.9,35.6c0.1,2.8-0.6,5.1-2.2,7C427.5,91.1,425.4,92.1,422.7,92.3z"/>
			</g>
		</g>
		<g>
			<g>
				<path class="st2" d="M473.5,87.7c-2.2,2.6-5.5,4.4-10,5.5c-1.9,0.4-3.6,0.6-5.4,0.6c-7.2,0-13.1-3.3-17.8-10
					c-4.2-6-6.3-12.7-6.3-20.1c0-6.1,1.5-11.4,4.5-16c3.3-4.9,7.8-8.1,13.6-9.4c1.4-0.3,2.7-0.5,4.2-0.5c3,0,5.7,0.6,8.1,1.9
					c1-2.7,3.1-4.4,6.3-5.2c0.7-0.2,1.5-0.3,2.1-0.3c2.2,0,4,0.7,5.6,2.1c1.6,1.4,2.7,3.3,3.1,5.6l8.7,37.6c0.6,2.5,0.9,5,0.9,7.4
					c0,6.3-2,11.6-6,15.8c-4,4.3-9.4,7.2-16.2,8.7c-2,0.5-4.5,0.7-7.5,0.7c-4.3,0-8-0.5-11.1-1.6c-4.7-1.5-7-3.9-7-7.3
					c0-1.7,0.5-3.4,1.6-5.1c1.1-1.7,2.5-2.7,4.1-3.1c0.8-0.2,1.7-0.3,2.6-0.3c1,0,2.6,0.2,5,0.5c2.3,0.3,4.2,0.5,5.5,0.5
					c1.5,0,2.9-0.2,4.2-0.5C471,94.3,473.4,91.7,473.5,87.7z M451.9,63.3c0,1.2,0.2,2.3,0.5,3.5c1.4,6.3,4.3,9.4,8.7,9.4
					c2.4,0,4.3-0.9,5.7-2.8c1.2-1.6,1.9-3.7,1.9-6.2c0-1.2-0.2-2.4-0.5-3.6c-0.6-2.8-1.7-5.2-3.3-6.9c-1.6-1.8-3.5-2.7-5.6-2.7
					c-2.4,0-4.3,1-5.6,3C452.5,58.7,451.9,60.8,451.9,63.3z"/>
			</g>
		</g>
		<g>
			<g>
				<path class="st2" d="M530.7,95c-2.1-0.5-3.8-1.5-5-3.1c-1.2-1.6-1.9-3.5-1.9-5.6c0-0.9,0.1-1.8,0.3-2.7l5.3-22.6
					c0.2-0.8,0.3-1.6,0.3-2.3c0-1.9-0.6-3.3-1.9-4.4c-1.3-1.1-2.9-1.6-4.7-1.6c-3.1,0-5.1,1.8-5.9,5.5l-5.2,22.7
					c-0.6,2.3-1.6,4.1-3.2,5.6c-1.6,1.4-3.5,2.1-5.6,2.1c-0.7,0-1.5-0.1-2.1-0.3c-2.2-0.5-3.8-1.5-5-3.1c-1.2-1.6-1.8-3.5-1.8-5.6
					c0-0.9,0.1-1.8,0.3-2.7l8-34.6c0.6-2.3,1.6-4.2,3.2-5.6c1.6-1.4,3.5-2.1,5.6-2.1c3.9,0,6.7,1.6,8.1,4.7c2-1,4.4-1.5,6.9-1.5
					c1.7,0,3.6,0.2,5.6,0.7c4.9,1.1,8.8,3.4,11.7,6.8c2.9,3.4,4.4,7.5,4.4,12.2c0,1.7-0.2,3.5-0.6,5.4l-5.8,24.9
					c-0.5,2.3-1.5,4.2-3.1,5.6c-1.6,1.4-3.5,2.1-5.6,2.1C532.2,95.3,531.4,95.2,530.7,95z"/>
			</g>
		</g>
	</g>
	<g>
		<g>
			<g>
				<path class="st2" d="M275.8,92l-15.9,2.8c-0.6,0.1-1.2,0.2-1.9,0.2c-5.2,0-8.3-2.5-9.2-7.6l-9.1-51.1c-0.1-0.6-0.1-1.2-0.1-1.9
					c0-2.3,0.7-4.3,2.1-5.9c1.4-1.7,3.3-2.7,5.6-3.1l15.2-2.7c2.7-0.4,5.2-0.6,7.8-0.6c8.7,0,15.9,2.7,21.7,8.1
					c5.8,5.4,9.5,12.8,11.2,22.2c0.4,2.5,0.6,5,0.6,7.5c0,8.3-2.5,15.4-7.5,21.2C291.4,86.8,284.5,90.5,275.8,92z M265.4,39.9l-6,1
					l6.2,35.2l6.9-1.2c8.2-1.4,12.3-6.4,12.3-15.1c0-1.5-0.2-3.1-0.5-4.8c-1.9-10.3-6.9-15.5-15.2-15.5
					C268.1,39.5,266.8,39.6,265.4,39.9z"/>
			</g>
		</g>
		<g>
			<g>
				<path class="st2" d="M353.8,65.3l-24,8.3c1.6,1.6,3.7,2.4,6.2,2.4c1.4,0,2.9-0.3,4.4-0.8c2.1-0.7,4.4-2.5,6.9-5.2
					c2.5-2.7,4.4-4.3,5.6-4.8c0.7-0.2,1.5-0.4,2.2-0.4c2.2,0,4.1,0.8,5.7,2.3c1.6,1.5,2.5,3.4,2.5,5.5c0,3.4-2.1,7-6.3,10.8
					c-3.8,3.5-7.9,6-12.4,7.6c-3.2,1.1-6.4,1.7-9.6,1.7c-5.7,0-10.9-1.7-15.4-5.2c-4.5-3.5-7.8-8.1-9.9-14.1
					c-1.1-3.1-1.7-6.4-1.7-9.8c0-5.7,1.5-10.8,4.4-15.3c3.1-4.8,7.4-8.1,12.9-10c2.7-0.9,5.5-1.4,8.2-1.4c5.7,0,11,1.8,15.8,5.5
					c4.6,3.4,7.8,7.6,9.4,12.5c0.4,1.2,0.6,2.4,0.6,3.5C359.4,61.7,357.5,64,353.8,65.3z M330.4,53.2c-3.6,1.2-5.4,3.8-5.5,7.8
					l14.5-5c-1.7-2.2-3.7-3.2-6.2-3.2C332.4,52.7,331.4,52.9,330.4,53.2z"/>
			</g>
		</g>
		<g>
			<g>
				<path class="st2" d="M391.1,92.3c-1.9,0.4-4.1,0.6-6.5,0.6c-4,0-7.5-0.6-10.6-1.9c-4.2-1.7-6.3-4.2-6.3-7.7c0-1.8,0.5-3.5,1.4-5
					c1.1-1.9,2.7-3,4.7-3.4c0.8-0.2,1.6-0.3,2.4-0.3c1.2,0,2.9,0.3,5,0.9c2.1,0.6,3.8,0.9,5,0.9c0.7,0,1.4-0.1,2-0.3
					c2-0.4,2.8-1.1,2.6-2.1c-0.1-0.5-2.3-1-6.5-1.6c-5.2-0.6-9.3-1.6-12.1-3c-4.6-2.2-7.5-5.6-8.5-10.2c-0.4-1.4-0.6-2.8-0.6-4.2
					c0-5.6,2.4-10.1,7.1-13.6c4.3-3.2,9.4-4.8,15.1-4.8c3.9,0,7.2,0.7,10,2c3.7,1.7,5.6,4.3,5.6,7.8c0,2.2-0.7,4-2.1,5.6
					c-1.4,1.6-3.1,2.4-5.2,2.4c-0.9,0-2.5-0.2-4.6-0.6c-2.2-0.4-3.8-0.6-4.8-0.6c-1.4,0-2.5,0.2-3.1,0.7c-0.4,0.3-0.6,0.7-0.5,1.3
					c0.1,0.6,2.3,1.1,6.6,1.6c5.2,0.7,9.3,1.7,12.1,3c4.6,2.2,7.5,5.6,8.5,10.2c0.3,1.3,0.5,2.6,0.5,3.9c0,4.4-1.6,8.2-4.7,11.5
					C400.5,88.8,396.3,91,391.1,92.3z"/>
			</g>
		</g>
		<g>
			<g>
				<path class="st2" d="M419.9,37c-2.7,0.2-5-0.7-7-2.6c-2-1.9-3.1-4.2-3.3-6.9c-0.1-2.5,0.8-4.8,2.6-6.9c1.9-2,4.1-3.1,6.7-3.2
					c2.6-0.2,4.9,0.6,7,2.5c2.1,1.8,3.2,4,3.3,6.6c0.1,2.7-0.7,5.1-2.5,7.2C424.8,35.8,422.6,36.9,419.9,37z M422.7,92.3
					c-2.7,0.2-4.9-0.6-6.6-2.4c-1.8-1.8-2.7-4-2.8-6.8l-1.9-35.6c-0.2-2.8,0.5-5.1,2.1-7c1.6-1.9,3.7-3,6.3-3.1
					c2.7-0.1,4.9,0.7,6.6,2.5c1.8,1.8,2.7,4,2.8,6.8l1.9,35.6c0.1,2.8-0.6,5.1-2.2,7C427.5,91.1,425.4,92.1,422.7,92.3z"/>
			</g>
		</g>
		<g>
			<g>
				<path class="st2" d="M473.5,87.7c-2.2,2.6-5.5,4.4-10,5.5c-1.9,0.4-3.6,0.6-5.4,0.6c-7.2,0-13.1-3.3-17.8-10
					c-4.2-6-6.3-12.7-6.3-20.1c0-6.1,1.5-11.4,4.5-16c3.3-4.9,7.8-8.1,13.6-9.4c1.4-0.3,2.7-0.5,4.2-0.5c3,0,5.7,0.6,8.1,1.9
					c1-2.7,3.1-4.4,6.3-5.2c0.7-0.2,1.5-0.3,2.1-0.3c2.2,0,4,0.7,5.6,2.1c1.6,1.4,2.7,3.3,3.1,5.6l8.7,37.6c0.6,2.5,0.9,5,0.9,7.4
					c0,6.3-2,11.6-6,15.8c-4,4.3-9.4,7.2-16.2,8.7c-2,0.5-4.5,0.7-7.5,0.7c-4.3,0-8-0.5-11.1-1.6c-4.7-1.5-7-3.9-7-7.3
					c0-1.7,0.5-3.4,1.6-5.1c1.1-1.7,2.5-2.7,4.1-3.1c0.8-0.2,1.7-0.3,2.6-0.3c1,0,2.6,0.2,5,0.5c2.3,0.3,4.2,0.5,5.5,0.5
					c1.5,0,2.9-0.2,4.2-0.5C471,94.3,473.4,91.7,473.5,87.7z M451.9,63.3c0,1.2,0.2,2.3,0.5,3.5c1.4,6.3,4.3,9.4,8.7,9.4
					c2.4,0,4.3-0.9,5.7-2.8c1.2-1.6,1.9-3.7,1.9-6.2c0-1.2-0.2-2.4-0.5-3.6c-0.6-2.8-1.7-5.2-3.3-6.9c-1.6-1.8-3.5-2.7-5.6-2.7
					c-2.4,0-4.3,1-5.6,3C452.5,58.7,451.9,60.8,451.9,63.3z"/>
			</g>
		</g>
		<g>
			<g>
				<path class="st2" d="M530.7,95c-2.1-0.5-3.8-1.5-5-3.1c-1.2-1.6-1.9-3.5-1.9-5.6c0-0.9,0.1-1.8,0.3-2.7l5.3-22.6
					c0.2-0.8,0.3-1.6,0.3-2.3c0-1.9-0.6-3.3-1.9-4.4c-1.3-1.1-2.9-1.6-4.7-1.6c-3.1,0-5.1,1.8-5.9,5.5l-5.2,22.7
					c-0.6,2.3-1.6,4.1-3.2,5.6c-1.6,1.4-3.5,2.1-5.6,2.1c-0.7,0-1.5-0.1-2.1-0.3c-2.2-0.5-3.8-1.5-5-3.1c-1.2-1.6-1.8-3.5-1.8-5.6
					c0-0.9,0.1-1.8,0.3-2.7l8-34.6c0.6-2.3,1.6-4.2,3.2-5.6c1.6-1.4,3.5-2.1,5.6-2.1c3.9,0,6.7,1.6,8.1,4.7c2-1,4.4-1.5,6.9-1.5
					c1.7,0,3.6,0.2,5.6,0.7c4.9,1.1,8.8,3.4,11.7,6.8c2.9,3.4,4.4,7.5,4.4,12.2c0,1.7-0.2,3.5-0.6,5.4l-5.8,24.9
					c-0.5,2.3-1.5,4.2-3.1,5.6c-1.6,1.4-3.5,2.1-5.6,2.1C532.2,95.3,531.4,95.2,530.7,95z"/>
			</g>
		</g>
	</g>
	<g>
		<g>
			<g>
				<g>
					<path class="st3" d="M251.8,90.3c-6,0-9.7-3.1-10.7-8.9L232,30.2c-0.1-0.7-0.1-1.3-0.1-2c0-2.7,0.8-5,2.5-6.9
						c1.7-1.9,3.9-3.2,6.6-3.7l15.2-2.7c2.8-0.4,5.5-0.7,8-0.7c9.1,0,16.7,2.9,22.8,8.5c6,5.6,9.9,13.4,11.6,23.1
						c0.4,2.6,0.7,5.2,0.7,7.8c0,8.7-2.7,16.2-7.9,22.2c-5.2,6.1-12.5,9.9-21.5,11.5l0,0l-15.9,2.8
						C253.3,90.2,252.6,90.3,251.8,90.3z M235.1,29.8l9.1,51c0.7,4.3,3.2,6.3,7.6,6.3c0.6,0,1.1-0.1,1.5-0.1l0.1,0l15.9-2.8
						c8.3-1.5,14.9-5,19.7-10.5c4.8-5.5,7.2-12.3,7.2-20.2c0-2.4-0.2-4.8-0.6-7.2c-1.6-9-5.2-16.2-10.7-21.3
						c-5.4-5.1-12.4-7.6-20.6-7.6c-2.4,0-5,0.2-7.5,0.6l-15.2,2.7c-2,0.4-3.5,1.2-4.7,2.6c-1.2,1.4-1.8,3-1.8,4.9
						C235,28.7,235,29.2,235.1,29.8z M258.1,71.6l-6.7-38.3l7.6-1.3c1.4-0.3,2.8-0.4,4.1-0.4c9.1,0,14.7,5.6,16.7,16.7
						c0.3,1.7,0.5,3.5,0.5,5.1c0,9.3-4.7,15.1-13.6,16.6L258.1,71.6z M255,35.9l5.7,32.1l5.4-0.9c7.4-1.3,11-5.7,11-13.6
						c0-1.4-0.1-3-0.4-4.5c-1.7-9.5-6.2-14.2-13.6-14.2c-1.1,0-2.3,0.1-3.5,0.3l0,0L255,35.9z"/>
				</g>
			</g>
			<g>
				<g>
					<path class="st3" d="M328.7,88c-6.1,0-11.6-1.9-16.4-5.5c-4.8-3.6-8.3-8.6-10.4-14.8c-1.2-3.3-1.8-6.8-1.8-10.3
						c0-6,1.5-11.4,4.6-16.1c3.3-5.1,7.9-8.7,13.7-10.6c2.9-1,5.8-1.5,8.7-1.5c6,0,11.6,1.9,16.8,5.8c4.9,3.6,8.2,8,10,13.3
						c0.5,1.4,0.7,2.7,0.7,4c0,1.7-0.4,3.8-2.1,5.5c1.1,0.5,2.1,1.1,3.1,2c2,1.8,2.9,4.1,2.9,6.6c0,3.8-2.3,7.9-6.8,12
						c-3.9,3.6-8.3,6.3-13,7.9C335.5,87.5,332.1,88,328.7,88z M327.2,32.3c-2.6,0-5.2,0.4-7.7,1.3c-5.1,1.7-9.1,4.9-12.1,9.4
						c-2.7,4.2-4.1,9.1-4.1,14.4c0,3.2,0.5,6.3,1.6,9.3c1.9,5.6,5.1,10.1,9.3,13.4c4.2,3.2,9.1,4.9,14.5,4.9c3,0,6.1-0.5,9.1-1.6
						c4.3-1.5,8.3-3.9,11.9-7.3c3.9-3.5,5.8-6.8,5.8-9.7c0-1.7-0.6-3.1-2-4.3c-1.3-1.2-2.8-1.9-4.5-1.9c-0.3,0.1-0.6,0.3-1,0.4
						l-2.2,0.8c-0.8,0.6-2,1.7-3.7,3.5c-2.7,2.9-5.1,4.8-7.5,5.6c-1.7,0.6-3.4,0.9-5,0.9c-3,0-5.4-1-7.3-2.9l-1.8-1.8l23.7-8.2
						c0.6-0.5,1.2-0.8,1.8-1l0.1,0c0.7-0.2,1.4-0.4,2.1-0.4c2.9-1.4,3.3-3.4,3.3-4.9c0-0.9-0.2-1.9-0.6-3c-1.6-4.6-4.5-8.6-8.9-11.8
						C337.6,34,332.5,32.3,327.2,32.3z M327.1,67.8c1.8,0.6,4.1,0.6,6.6-0.3c1.6-0.6,3.4-1.9,5.3-3.8L327.1,67.8z M317.1,56.9l0-2.2
						c0.1-4.6,2.3-7.8,6.5-9.2l0,0c1.1-0.4,2.3-0.5,3.3-0.5c3,0,5.5,1.3,7.4,3.8l1.3,1.7L317.1,56.9z M324.7,48.4
						c-2.2,0.8-3.5,2-4.1,4l9.8-3.4C328.8,48,326.8,47.8,324.7,48.4z"/>
				</g>
			</g>
			<g>
				<g>
					<path class="st3" d="M378.3,88.2c-4.1,0-7.9-0.7-11.2-2.1c-4.8-1.9-7.3-5-7.3-9.1c0-2.1,0.5-4,1.6-5.8c1.3-2.2,3.3-3.6,5.7-4.2
						c0.9-0.2,1.8-0.3,2.7-0.3c1.4,0,3.2,0.3,5.5,1c2,0.6,3.5,0.9,4.5,0.9c0.5,0,1.1-0.1,1.6-0.2l0.1,0c0,0,0.1,0,0.1,0
						c-0.8-0.2-2.1-0.4-3.8-0.6c-5.4-0.6-9.6-1.7-12.6-3.1c-5.1-2.4-8.2-6.1-9.4-11.2c-0.4-1.5-0.6-3-0.6-4.5
						c0-6.1,2.6-11.1,7.8-14.9c4.6-3.4,10-5.1,16-5.1c4.1,0,7.7,0.7,10.7,2.2c5.3,2.5,6.4,6.4,6.4,9.2c0,2.5-0.8,4.8-2.5,6.7
						c-1.7,1.9-3.9,2.9-6.4,2.9c-1,0-2.7-0.2-4.9-0.7c-2.1-0.4-3.6-0.6-4.5-0.6c-0.1,0-0.2,0-0.3,0c0.8,0.1,1.9,0.3,3.5,0.5
						c5.4,0.7,9.6,1.7,12.6,3.1c5.1,2.4,8.2,6.2,9.4,11.2c0.3,1.4,0.5,2.8,0.5,4.2c0,4.8-1.7,9-5.1,12.6c-3.3,3.5-7.8,6-13.3,7.3
						l0,0C383.2,88,380.9,88.2,378.3,88.2z M370,69.9c-0.7,0-1.4,0.1-2.1,0.2c-1.6,0.3-2.8,1.2-3.7,2.7c-0.8,1.3-1.2,2.7-1.2,4.2
						c0,2.8,1.7,4.8,5.3,6.2c2.9,1.2,6.3,1.8,10,1.8c2.3,0,4.3-0.2,6.1-0.6c4.9-1.2,8.9-3.3,11.8-6.4c2.9-3.1,4.3-6.5,4.3-10.5
						c0-1.2-0.1-2.3-0.4-3.5c-0.9-4.1-3.5-7.1-7.7-9.1c-2.7-1.2-6.6-2.2-11.7-2.8c-6.4-0.7-7.6-1.4-7.9-2.8
						c-0.3-1.2,0.1-2.2,1.1-2.9c1-0.7,2.3-1,4.1-1c1.2,0,2.8,0.2,5.1,0.7c2.6,0.5,3.8,0.6,4.3,0.6c1.6,0,2.9-0.6,4-1.9
						c1.2-1.3,1.7-2.8,1.7-4.6c0-2.8-1.5-4.9-4.7-6.4c-2.6-1.3-5.7-1.9-9.3-1.9c-5.4,0-10.1,1.5-14.2,4.5c-4.4,3.2-6.5,7.3-6.5,12.4
						c0,1.2,0.2,2.5,0.5,3.8c1,4.2,3.5,7.2,7.7,9.2c2.7,1.3,6.6,2.2,11.7,2.8c6.3,0.8,7.5,1.4,7.8,2.7c0.2,0.7,0.1,1.5-0.3,2.1
						c-0.6,0.9-1.7,1.5-3.4,1.9c-0.8,0.2-1.6,0.3-2.4,0.3c-1.3,0-3.1-0.3-5.4-1C372.6,70.2,371.1,69.9,370,69.9z"/>
				</g>
			</g>
			<g>
				<g>
					<path class="st3" d="M415.7,87.6c-2.7,0-5.1-1-7-2.8c-2-2-3.1-4.7-3.3-7.8l-1.9-35.5c-0.2-3.2,0.6-5.9,2.4-8.1
						c0.7-0.8,1.4-1.5,2.2-2c-1-0.5-1.9-1.1-2.8-2c-2.3-2.2-3.6-4.8-3.8-7.9c-0.1-3,0.9-5.7,3.1-8c2.2-2.3,4.8-3.6,7.8-3.7
						c3-0.2,5.7,0.7,8.1,2.8c2.4,2.1,3.7,4.7,3.8,7.7c0.1,3.1-0.8,5.9-2.9,8.3c-0.8,0.9-1.6,1.6-2.6,2.2c0.8,0.5,1.6,1,2.4,1.8
						c2,2,3.1,4.7,3.3,7.8l1.9,35.5c0.1,3.2-0.7,5.9-2.5,8.1c-1.9,2.3-4.4,3.5-7.5,3.6C416.3,87.6,416,87.6,415.7,87.6z M414.1,32.7
						c-0.1,0-0.3,0-0.4,0c-2.2,0.2-3.9,1-5.2,2.6c-1.3,1.6-1.9,3.6-1.7,5.9l1.9,35.6c0.1,2.4,0.9,4.3,2.4,5.8
						c1.4,1.4,3.2,2.1,5.4,1.9l0,0c2.2-0.1,3.9-0.9,5.2-2.5c1.3-1.6,1.9-3.6,1.8-6l-1.9-35.5c-0.1-2.4-0.9-4.3-2.4-5.8
						C417.8,33.3,416.2,32.7,414.1,32.7z M413.3,12.7c-0.2,0-0.4,0-0.6,0c-2.2,0.1-4.1,1-5.7,2.7c-1.6,1.7-2.3,3.6-2.2,5.7
						c0.2,2.2,1.1,4.1,2.8,5.8c1.7,1.6,3.6,2.3,5.9,2.2l0,0c2.3-0.1,4.1-1,5.6-2.7c1.5-1.8,2.2-3.8,2.1-6.1c-0.1-2.2-1-4-2.8-5.5
						C417,13.4,415.3,12.7,413.3,12.7z"/>
				</g>
			</g>
			<g>
				<g>
					<path class="st3" d="M455.3,107.5c-4.4,0-8.3-0.6-11.6-1.7c-6.7-2.1-8.1-6-8.1-8.8c0-2,0.6-4,1.9-6c1.3-2.1,3-3.3,5.1-3.8
						c0.1,0,0.3-0.1,0.4-0.1c-3.8-1.7-7.2-4.7-10.1-8.8c-4.4-6.2-6.6-13.3-6.6-21c0-6.4,1.6-12.1,4.8-16.9
						c3.5-5.3,8.4-8.7,14.6-10.1c1.5-0.3,3-0.5,4.5-0.5c2.7,0,5.1,0.5,7.3,1.4c1.4-2.3,3.6-3.9,6.7-4.6c0.8-0.2,1.7-0.3,2.5-0.3
						c2.5,0,4.8,0.8,6.7,2.5c1.9,1.6,3.1,3.8,3.6,6.4l8.7,37.6c0.6,2.6,1,5.2,1,7.8c0,6.7-2.2,12.4-6.4,16.9
						c-4.2,4.5-9.9,7.6-17,9.2C461.1,107.2,458.4,107.5,455.3,107.5z M445.5,90.1c-0.8,0-1.6,0.1-2.2,0.2c-1.3,0.3-2.3,1.1-3.2,2.4
						c-0.9,1.5-1.4,2.9-1.4,4.3c0,1,0,3.9,5.9,5.8c3,1,6.6,1.5,10.6,1.5c2.9,0,5.3-0.2,7.1-0.7c6.5-1.5,11.7-4.2,15.5-8.3
						c3.7-4,5.6-8.8,5.6-14.8c0-2.3-0.3-4.6-0.9-7L473.9,36c-0.4-2-1.3-3.5-2.7-4.7c-1.3-1.2-2.8-1.7-4.6-1.7
						c-0.5,0-1.1,0.1-1.7,0.2c-2.7,0.6-4.4,2-5.2,4.2l-0.6,1.7l-1.6-0.9c-2.1-1.2-4.6-1.8-7.3-1.8c-1.3,0-2.6,0.1-3.8,0.4
						c-5.4,1.3-9.6,4.1-12.7,8.8c-2.8,4.3-4.3,9.4-4.3,15.2c0,7,2,13.5,6,19.2c4.4,6.3,9.8,9.3,16.5,9.3c1.6,0,3.3-0.2,5.1-0.5
						c4.1-1,7.2-2.6,9.1-4.9l2.8-3.4l-0.1,4.4c-0.1,3.3-1.5,7.6-8.3,9.1c-1.4,0.3-2.9,0.5-4.5,0.5c-1.4,0-3.3-0.2-5.7-0.5
						C448,90.3,446.4,90.1,445.5,90.1z M454.8,71.6c-5.2,0-8.6-3.6-10.2-10.7c-0.3-1.2-0.5-2.6-0.5-3.9c0-2.8,0.7-5.2,2.1-7.2
						c1.5-2.3,3.9-3.6,6.8-3.6c2.5,0,4.8,1.1,6.7,3.2c1.8,2,3,4.6,3.7,7.7c0.3,1.3,0.5,2.7,0.5,3.9c0,2.9-0.7,5.3-2.2,7.2
						C460.1,70.4,457.7,71.6,454.8,71.6z M453.1,49.3c-1.9,0-3.2,0.7-4.3,2.3c-1.1,1.5-1.6,3.3-1.6,5.4c0,1,0.1,2.1,0.4,3.1
						c1.9,8.3,5.9,8.3,7.2,8.3c1.9,0,3.4-0.7,4.5-2.2c1-1.3,1.5-3.1,1.5-5.3c0-1-0.1-2.1-0.4-3.2c-0.6-2.6-1.6-4.7-3-6.3
						C456.2,50.1,454.7,49.3,453.1,49.3z"/>
				</g>
			</g>
			<g>
				<g>
					<path class="st3" d="M526.6,90.6c-0.8,0-1.6-0.1-2.5-0.3c-2.4-0.6-4.4-1.8-5.9-3.7c-1.4-1.9-2.2-4.1-2.2-6.6c0-1,0.1-2,0.3-3
						l5.3-22.6c0.2-0.7,0.2-1.3,0.2-2c0-1.4-0.4-2.4-1.4-3.2c-1-0.8-2.2-1.3-3.7-1.3c-1.6,0-3.5,0.5-4.4,4.3l-5.2,22.7
						c-0.6,2.6-1.9,4.7-3.7,6.4c-1.9,1.7-4.1,2.5-6.6,2.5c-0.9,0-1.7-0.1-2.5-0.3c-2.5-0.6-4.5-1.8-5.9-3.7
						c-1.4-1.9-2.1-4.1-2.1-6.6c0-1,0.1-2,0.3-3l8-34.7c0.6-2.7,1.9-4.8,3.7-6.4c1.9-1.6,4.1-2.5,6.6-2.5c3.9,0,7,1.5,8.8,4.3
						c3.5-1.3,7.5-1.4,12.3-0.3c5.2,1.2,9.4,3.6,12.5,7.3c3.2,3.7,4.8,8.1,4.8,13.2c0,1.8-0.2,3.7-0.6,5.7l-5.8,25
						c-0.6,2.6-1.8,4.8-3.6,6.4C531.4,89.8,529.1,90.6,526.6,90.6z M516.8,44.8c2.2,0,4.1,0.7,5.7,2c1.7,1.4,2.5,3.3,2.5,5.6
						c0,0.9-0.1,1.8-0.3,2.7l-5.3,22.6c-0.2,0.8-0.2,1.6-0.2,2.3c0,1.8,0.5,3.4,1.5,4.7c1,1.3,2.4,2.2,4.1,2.6l0,0
						c0.6,0.2,1.2,0.2,1.8,0.2c1.8,0,3.3-0.6,4.6-1.7c1.4-1.2,2.2-2.7,2.6-4.7l5.8-24.9c0.3-1.7,0.5-3.4,0.5-5c0-4.4-1.3-8.1-4-11.2
						c-2.7-3.1-6.4-5.2-10.9-6.3c-1.9-0.5-3.7-0.7-5.3-0.7c-2.3,0-4.4,0.4-6.3,1.3l-1.4,0.7l-0.7-1.4c-1.2-2.6-3.4-3.8-6.7-3.8
						c-1.7,0-3.2,0.6-4.5,1.7c-1.4,1.2-2.3,2.7-2.7,4.8l-8,34.6c-0.2,0.7-0.2,1.5-0.2,2.3c0,1.8,0.5,3.4,1.5,4.7
						c1,1.3,2.3,2.1,4.1,2.6l0.1,0c0.5,0.1,1.1,0.2,1.7,0.2c1.7,0,3.2-0.6,4.5-1.7c1.4-1.2,2.3-2.8,2.8-4.8l5.2-22.7
						C510.6,46,514.1,44.8,516.8,44.8z"/>
				</g>
			</g>
		</g>
	</g>
</g>
</svg>
