<?xml version="1.0" encoding="utf-8"?>
<!-- Generator: Adobe Illustrator 27.9.0, SVG Export Plug-In . SVG Version: 6.00 Build 0)  -->
<svg version="1.1" id="Layer_1" xmlns="http://www.w3.org/2000/svg" xmlns:xlink="http://www.w3.org/1999/xlink" x="0px" y="0px"
	 viewBox="0 0 909.4 120" style="enable-background:new 0 0 909.4 120;" xml:space="preserve">
<style type="text/css">
	.st0{fill:#FCE1E4;}
	.st1{fill:#A2D2FF;}
	.st2{fill:#FFAFCC;}
	.st3{fill:#E4EEF7;}
</style>
<path class="st0" d="M317.9,94.9l-18.3,3.2c-0.7,0.1-1.4,0.2-2.2,0.2c-6,0-9.6-2.9-10.6-8.8l-10.3-58.7c-0.1-0.7-0.1-1.4-0.1-2.2
	c0-2.6,0.8-5,2.4-6.8c1.6-1.8,3.8-3.1,6.6-3.6l17.5-3.1c3.1-0.5,6-0.7,9-0.7c10,0,18.3,3.1,25,9.3c6.7,6.2,10.9,14.7,12.9,25.6
	c0.5,2.9,0.7,5.8,0.7,8.6c0,9.6-2.9,17.7-8.8,24.4C335.9,88.9,327.9,93.2,317.9,94.9z M306,34.9l-6.9,1.2l7.1,40.5l7.9-1.4
	c9.4-1.6,14.2-7.5,14.2-17.4c0-1.7-0.2-3.6-0.6-5.5c-2-11.9-7.8-17.8-17.4-17.8C309.1,34.5,307.6,34.6,306,34.9z M407.7,64.3
	l-27.6,9.6c1.8,1.8,4.3,2.8,7.1,2.8c1.6,0,3.3-0.3,5.1-0.9c2.4-0.8,5.1-2.9,7.9-6c2.9-3.1,5.1-5,6.6-5.5c0.8-0.2,1.7-0.5,2.5-0.5
	c2.5,0,4.6,0.9,6.6,2.6s2.9,3.9,2.9,6.3c0,3.9-2.4,8.1-7.3,12.4c-4.4,4-9.1,7-14.3,8.8c-3.7,1.3-7.4,2-11.1,2c-6.6,0-12.6-2-17.8-6
	c-5.2-4-9-9.4-11.3-16.2c-1.3-3.6-2-7.4-2-11.3c0-6.6,1.7-12.4,5.1-17.6c3.6-5.5,8.5-9.4,14.9-11.5c3.1-1,6.3-1.6,9.4-1.6
	c6.6,0,12.7,2.1,18.2,6.3c5.3,3.9,9,8.8,10.8,14.4c0.5,1.4,0.7,2.8,0.7,4C414.2,60.1,412.1,62.8,407.7,64.3z M380.8,50.2
	c-4.1,1.4-6.2,4.4-6.3,9l16.7-5.8c-2-2.5-4.3-3.7-7.1-3.7C383.1,49.8,381.9,49.9,380.8,50.2z M450.7,95.2c-2.2,0.5-4.7,0.7-7.5,0.7
	c-4.6,0-8.6-0.7-12.2-2.2c-4.8-2-7.3-4.8-7.3-8.9c0-2.1,0.6-4,1.6-5.8c1.3-2.2,3.1-3.5,5.4-3.9c0.9-0.2,1.8-0.3,2.8-0.3
	c1.4,0,3.3,0.3,5.8,1s4.4,1,5.8,1c0.8,0,1.6-0.1,2.3-0.3c2.3-0.5,3.2-1.3,3-2.4c-0.1-0.6-2.6-1.2-7.5-1.8c-6-0.7-10.7-1.8-13.9-3.5
	c-5.3-2.5-8.6-6.4-9.8-11.7c-0.5-1.6-0.7-3.2-0.7-4.8c0-6.4,2.8-11.6,8.2-15.7c5-3.7,10.8-5.5,17.4-5.5c4.5,0,8.3,0.8,11.5,2.3
	c4.3,2,6.4,5,6.4,9c0,2.5-0.8,4.6-2.4,6.6c-1.6,1.8-3.6,2.8-6,2.8c-1,0-2.9-0.2-5.3-0.7c-2.5-0.6-4.4-0.8-5.5-0.8
	c-1.6,0-2.9,0.2-3.6,0.8c-0.5,0.3-0.7,0.8-0.6,1.5s2.6,1.3,7.6,1.8c6,0.8,10.7,2,13.9,3.5c5.3,2.5,8.6,6.4,9.8,11.7
	c0.3,1.5,0.6,3,0.6,4.5c0,5.1-1.8,9.4-5.4,13.4C461.5,91.2,456.8,93.9,450.7,95.2z M483.8,31.6c-3.1,0.2-5.8-0.8-8.1-3
	c-2.3-2.2-3.6-4.8-3.8-7.9c-0.1-2.9,0.8-5.5,3-7.9c2.2-2.3,4.8-3.6,7.8-3.7c3-0.2,5.6,0.7,7.9,2.9c2.4,2.1,3.7,4.6,3.8,7.6
	c0.1,3.1-0.8,5.9-2.9,8.3C489.5,30.2,487,31.5,483.8,31.6z M487.1,95.2c-3.1,0.2-5.6-0.7-7.7-2.8c-2-2-3.1-4.6-3.2-7.8l-2.2-41
	c-0.2-3.2,0.6-5.9,2.3-8.1c1.8-2.2,4.3-3.5,7.4-3.6c3.1-0.1,5.5,0.8,7.6,2.9c2.1,2,3.1,4.6,3.3,7.8l2.2,41c0.1,3.2-0.7,5.9-2.5,8.1
	C492.6,94,490.2,95.1,487.1,95.2z M545.6,90.1c-2.5,3-6.3,5.1-11.5,6.3c-2.2,0.5-4.1,0.7-6.2,0.7c-8.3,0-15.1-3.8-20.5-11.5
	c-4.8-6.9-7.3-14.6-7.3-23.1c0-7,1.7-13.2,5.2-18.4c3.8-5.6,9-9.3,15.7-10.8c1.6-0.3,3.1-0.6,4.8-0.6c3.5,0,6.6,0.7,9.3,2.2
	c1.2-3.1,3.7-5.1,7.3-5.9c0.8-0.2,1.7-0.3,2.4-0.3c2.5,0,4.6,0.8,6.6,2.4c1.8,1.6,3.1,3.8,3.6,6.4l10,43.3c0.7,2.9,1,5.8,1,8.5
	c0,7.3-2.3,13.4-6.9,18.2c-4.6,5-10.8,8.3-18.7,10c-2.3,0.6-5.2,0.8-8.6,0.8c-5,0-9.2-0.6-12.8-1.8c-5.4-1.7-8.1-4.5-8.1-8.4
	c0-2,0.6-4,1.8-6c1.3-2,2.9-3.1,4.8-3.6c0.9-0.2,2-0.3,3-0.3c1.2,0,3,0.2,5.6,0.6c2.6,0.5,4.8,0.7,6.4,0.7c1.7,0,3.3-0.2,4.8-0.6
	C542.8,97.6,545.6,94.7,545.6,90.1z M520.8,61.9c0,1.4,0.2,2.6,0.6,4c1.6,7.3,5,10.8,10,10.8c2.8,0,5-1,6.6-3.2
	c1.4-1.8,2.2-4.3,2.2-7.1c0-1.4-0.2-2.8-0.6-4.1c-0.7-3.2-2-6-3.8-7.9c-1.8-2.1-4-3.1-6.4-3.1c-2.8,0-5,1.2-6.4,3.5
	C521.5,56.7,520.8,59.1,520.8,61.9z M611.7,98.5c-2.4-0.6-4.4-1.7-5.8-3.6c-1.4-1.8-2.2-4-2.2-6.6c0-1,0.1-2.1,0.3-3.1l6.1-26
	c0.2-0.9,0.3-1.8,0.3-2.6c0-2.2-0.7-3.8-2.2-5.1s-3.3-2-5.4-2c-3.6,0-5.9,2.1-6.8,6.3l-6,26.1c-0.7,2.6-1.8,4.7-3.7,6.4
	c-1.8,1.6-4,2.4-6.4,2.4c-0.8,0-1.7-0.1-2.4-0.3c-2.5-0.6-4.4-1.7-5.8-3.6c-1.4-1.9-2.2-4-2.2-6.6c0-1,0.1-2.1,0.3-3.1l9.2-39.8
	c0.7-2.6,1.8-4.8,3.7-6.4c1.8-1.6,4-2.4,6.4-2.4c4.6,0,7.7,1.8,9.4,5.4c2.3-1.2,5.1-1.7,7.9-1.7c2,0,4.1,0.2,6.6,0.8
	c5.6,1.3,10.1,3.9,13.5,7.8c3.5,3.9,5.1,8.6,5.1,14c0,2-0.2,4-0.7,6.2l-6.7,29c-0.6,2.6-1.7,4.8-3.7,6.4c-1.8,1.6-4,2.4-6.6,2.4
	C613.3,98.8,612.5,98.7,611.7,98.5z"/>
<g>
	<path class="st1" d="M524.8,113.3c-5.3,0-9.8-0.7-13.5-2c-6.2-2-9.4-5.4-9.4-10.2c0-2.4,0.8-4.8,2.2-7.1c1.5-2.2,3.3-3.7,5.6-4.4
		c-4.1-2.1-7.8-5.3-11.1-9.9c-5.1-7.3-7.6-15.4-7.6-24.3c0-7.5,1.8-14,5.5-19.6c4.1-6.2,9.8-10.1,16.9-11.6c1.5-0.3,3.2-0.6,5.3-0.6
		c3.1,0,5.9,0.5,8.4,1.5c1.6-2.6,4.3-4.4,7.7-5.2c0.8-0.2,2-0.3,2.9-0.3c2.9,0,5.5,0.9,7.8,2.9s3.8,4.6,4.3,7.7l10,43.2
		c0.7,3,1,6,1,9c0,7.8-2.5,14.4-7.5,19.6c-4.8,5.2-11.5,8.8-19.7,10.6C531.6,113.1,528.8,113.3,524.8,113.3z M513.7,93.2
		c-0.9,0-1.7,0.1-2.5,0.2c-1.5,0.3-2.6,1.3-3.7,2.8c-1,1.5-1.5,3.2-1.5,4.8c0,1.8,0.7,4.6,6.7,6.4c3.3,1.2,7.3,1.7,12.2,1.7
		c3.5,0,6.1-0.2,8.2-0.7c7.5-1.6,13.4-4.8,17.6-9.4c4.3-4.5,6.3-10.1,6.3-16.8c0-2.6-0.3-5.3-1-8.1l-10-43.3c-0.3-2.2-1.4-4-2.9-5.4
		c-1.6-1.3-3.2-2-5.2-2c-0.6,0-1.3,0.1-1.8,0.2c-3.1,0.7-5.1,2.3-5.9,4.6l-0.8,2.2l-2.1-1.2c-2.4-1.3-5.2-2-8.4-2
		c-1.4,0-2.6,0.1-4.4,0.6c-6.1,1.4-10.8,4.6-14.4,10c-3.2,4.8-4.8,10.6-4.8,17.3c0,8.1,2.3,15.4,6.9,22c5,7.3,11.1,10.9,18.8,10.9
		c1.8,0,3.7-0.2,5.8-0.7c4.7-1.2,8.2-3,10.4-5.6l3.6-4.1V83c0,3.8-1.6,8.9-9.6,10.7c-1.8,0.5-3.6,0.6-5.3,0.6c-1.7,0-4-0.2-6.8-0.7
		C516.4,93.4,514.7,93.2,513.7,93.2z M607,93.9c-0.9,0-1.8-0.1-2.8-0.5c-3-0.7-5.3-2.2-6.9-4.3c-1.7-2.3-2.5-5-2.5-7.8
		c0-1.2,0.1-2.4,0.3-3.6l6.1-26c0.2-0.8,0.3-1.5,0.3-2.2c0-1.6-0.5-2.6-1.5-3.6c-1.2-1-2.5-1.5-4.1-1.5c-1.7,0-3.9,0.6-4.8,4.7
		l-6,26.1c-0.8,3.1-2.2,5.5-4.3,7.5c-2.2,2-5,3-7.8,3c-1,0-2.1-0.1-3-0.5c-3-0.7-5.2-2.1-6.8-4.3c-1.7-2.3-2.6-5-2.6-7.7
		c0-1.2,0.1-2.4,0.3-3.6l9.2-39.8c0.8-3.2,2.3-5.8,4.4-7.5c2.2-2,4.8-2.9,7.8-2.9c4.6,0,8.1,1.7,10.2,4.8c4-1.5,9.1-1.5,14.2-0.3
		c6,1.4,10.9,4.1,14.5,8.5c3.7,4.1,5.5,9.3,5.5,15.3c0,2.1-0.2,4.4-0.7,6.7l-6.9,28.8c-0.7,3.2-2.2,5.8-4.4,7.5
		C612.7,92.9,610,93.9,607,93.9z M596,40.6c2.5,0,4.8,0.8,6.7,2.4c2,1.6,2.9,3.8,2.9,6.6c0,1-0.1,2.1-0.5,3.1l-6.1,26
		c-0.2,0.9-0.3,1.7-0.3,2.6c0,2,0.6,3.8,1.7,5.4c1,1.4,2.5,2.3,4.6,2.8h0.1c0.6,0.2,1.3,0.2,1.7,0.2c2.1,0,3.8-0.6,5.2-2
		c1.5-1.3,2.5-3,3-5.4l6.9-28.8c0.5-2,0.7-3.9,0.7-5.8c0-5.1-1.5-9.2-4.6-12.7c-3.1-3.7-7.3-6-12.4-7.1c-5-1.2-9.7-0.9-13.1,0.8
		l-1.8,0.9l-0.9-1.8c-1.4-2.9-3.8-4.3-7.6-4.3c-2,0-3.7,0.7-5.1,2c-1.4,1.3-2.4,3-3.1,5.4l-9.2,39.8c-0.2,0.9-0.3,1.7-0.3,2.6
		c0,2,0.6,3.8,1.8,5.4c1.2,1.5,2.5,2.3,4.6,2.8h0.2c0.5,0.1,1.2,0.2,1.7,0.2c2,0,3.7-0.7,5.1-2c1.5-1.4,2.4-3.1,3.1-5.4l6-26
		C588.7,41.6,593.3,40.6,596,40.6z M290.5,93.4c-7,0-11.4-3.6-12.6-10.4l-10.3-58.8c-0.1-0.9-0.1-1.7-0.1-2.5c0-3.2,1-5.9,2.9-8.2
		c2-2.3,4.6-3.7,7.7-4.3l17.5-3.1c3.3-0.5,6.3-0.7,9.3-0.7c10.5,0,19.3,3.3,26.4,9.9c6.9,6.4,11.5,15.4,13.5,26.7c0.5,3,0.7,6,0.7,9
		c0,10.1-3.1,18.8-9.2,25.8c-6.1,7-14.5,11.4-24.9,13.2l-18.3,3.2C292.4,93.3,291.6,93.4,290.5,93.4z M304.9,9.5
		c-2.9,0-5.6,0.2-8.6,0.7l-17.5,3.1c-2.2,0.3-4,1.4-5.4,2.9c-1.3,1.5-2,3.3-2,5.4c0,0.7,0,1.4,0.1,1.8l10.4,58.8
		c0.8,4.8,3.6,7.1,8.6,7.1c0.7,0,1.3-0.1,1.8-0.2l18.3-3.2c9.4-1.6,17-5.6,22.6-11.9c5.5-6.2,8.3-14,8.3-23c0-2.8-0.2-5.5-0.7-8.3
		c-1.8-10.4-6-18.5-12.3-24.4C322.2,12.3,314.5,9.5,304.9,9.5z M436.3,91c-5,0-9.2-0.8-13-2.3c-5.6-2.3-8.5-5.9-8.5-10.7
		c0-2.4,0.7-4.7,1.8-6.8c1.5-2.6,3.8-4.3,6.8-4.8c1-0.2,2.1-0.3,3.1-0.3c0.2,0,0.5,0,0.7,0c-2.4-0.6-4.5-1.4-6.2-2.2
		c-5.9-2.8-9.6-7.3-10.8-13c-0.5-1.7-0.8-3.6-0.8-5.3c0-7,3-12.8,9-17.3c5.3-3.9,11.5-5.9,18.5-5.9c4.6,0,8.8,0.8,12.3,2.5
		c6.3,2.9,7.6,7.5,7.6,10.8c0,2.9-0.9,5.5-2.9,7.8c-2,2.2-4.3,3.3-7,3.5c2.8,0.7,5.1,1.4,6.9,2.3c6,2.9,9.7,7.3,10.9,13.1
		c0.5,1.8,0.6,3.5,0.6,5c0,5.5-2,10.4-6,14.7c-3.9,4.1-9.1,7-15.4,8.4l0,0C441.9,90.8,439.2,91,436.3,91z M426.6,69.9
		c-0.8,0-1.5,0.1-2.3,0.2c-1.8,0.3-3.2,1.4-4.1,3c-0.9,1.5-1.4,3.1-1.4,4.7c0,2,0.6,4.8,6,7c3.3,1.4,7,2.1,11.4,2.1
		c2.6,0,5.1-0.2,7-0.7c5.6-1.3,10-3.7,13.4-7.3c3.2-3.6,4.8-7.5,4.8-12c0-1.2-0.1-2.5-0.6-4c-1-4.6-3.9-8.1-8.6-10.4
		c-3-1.4-7.5-2.5-13.4-3.2c-7-0.8-9-1.5-9.3-3.5c-0.2-1.4,0.2-2.6,1.4-3.5c0.9-0.8,2.5-1.2,4.7-1.2c1.5,0,3.5,0.3,6,0.8
		c3,0.6,4.4,0.7,4.8,0.7c1.8,0,3.2-0.7,4.5-2.1c1.3-1.6,2-3.2,2-5.2c0-3.2-1.7-5.5-5.3-7.1c-3-1.4-6.6-2.1-10.7-2.1
		c-6.2,0-11.6,1.7-16.2,5.2c-5,3.7-7.4,8.3-7.4,14c0,1.4,0.2,2.9,0.6,4.3V50c1,4.6,3.9,8.1,8.6,10.4c3,1.5,7.5,2.6,13.2,3.2
		c7.3,1,8.9,1.6,9.2,3.5c0.2,1.2,0.2,3.8-4.5,4.7c-0.8,0.2-1.8,0.5-2.8,0.5c-1.5,0-3.5-0.3-6.3-1.2C429,70.1,427.4,69.9,426.6,69.9z
		 M433,67c2.4,0.7,4,0.9,5.2,0.9c0.3,0,0.6,0,0.9-0.1c-0.9-0.1-2-0.3-3.3-0.6C434.7,67.3,433.9,67.2,433,67z M379.3,90.9
		c-7,0-13.5-2.2-19.1-6.4c-5.5-4.3-9.6-10.1-12-17.2c-1.4-3.8-2.1-7.8-2.1-12c0-6.9,1.8-13.1,5.4-18.7c3.9-6,9.2-10.1,15.9-12.3
		c3.5-1.2,6.8-1.7,10-1.7c7,0,13.6,2.3,19.5,6.8c5.6,4.1,9.6,9.3,11.5,15.3c0.5,1.5,0.8,3.1,0.8,4.6c0,2-0.5,4.3-2.2,6.3
		c1.2,0.5,2.2,1.3,3.3,2.2c2.3,2.1,3.6,4.7,3.6,7.8c0,4.5-2.6,9.2-7.9,13.9c-4.7,4.4-9.8,7.4-15,9.2C387,90.2,383.1,90.9,379.3,90.9
		z M377.6,26.6c-2.8,0-5.9,0.6-8.8,1.5c-5.8,1.8-10.5,5.5-13.8,10.7c-3.2,5-4.8,10.5-4.8,16.6c0,3.6,0.6,7.1,1.8,10.6
		c2.2,6.3,5.8,11.5,10.6,15.3c4.8,3.7,10.5,5.5,16.6,5.5c3.3,0,6.8-0.6,10.4-1.8c4.8-1.6,9.2-4.3,13.6-8.3c4.4-3.9,6.6-7.6,6.6-10.9
		c0-2-0.7-3.6-2.2-4.8c-1.6-1.4-3.1-2.1-5-2.2c-0.3,0.1-0.8,0.3-1.2,0.5L399,60c-0.9,0.7-2.3,2-4.3,4c-3.2,3.5-6.1,5.6-8.8,6.6
		c-2.1,0.7-3.9,1-5.8,1c-3.5,0-6.3-1.2-8.5-3.3l-2.3-2.3l27.6-9.6c0.7-0.6,1.4-0.9,2.1-1.2h0.1c0.7-0.2,1.6-0.5,2.4-0.5
		c3.1-1.5,3.6-3.7,3.6-5.4c0-1-0.2-2.2-0.6-3.3c-1.7-5.2-5.1-9.7-10.1-13.4C389.4,28.7,383.8,26.6,377.6,26.6z M378,67.4
		c1.8,0.5,4.1,0.3,6.8-0.6c1.5-0.5,3.3-1.7,5.3-3.7L378,67.4z M479.2,90.4c-3.2,0-6-1.2-8.2-3.3c-2.4-2.4-3.7-5.5-3.8-9.2l-2.2-41
		c-0.2-3.6,0.7-6.8,2.8-9.4c0.8-0.9,1.6-1.6,2.4-2.3c-0.9-0.6-1.8-1.3-2.8-2.1c-2.6-2.5-4.1-5.6-4.4-9.2c-0.1-3.6,1-6.7,3.5-9.4
		c2.5-2.8,5.8-4.3,9.2-4.4c3.6-0.2,6.7,0.9,9.4,3.5c2.8,2.4,4.3,5.4,4.4,9c0.1,3.7-1,6.9-3.3,9.7c-0.9,1-2,1.8-2.9,2.5
		c0.8,0.5,1.6,1.2,2.4,1.8c2.3,2.2,3.7,5.3,3.9,9.1l2.2,41c0.1,3.8-0.8,6.9-3,9.4c-2,2.6-5,4-8.6,4.3
		C479.9,90.4,479.6,90.4,479.2,90.4z M477.2,27.1c-0.1,0-0.3,0-0.5,0c-2.4,0.1-4.4,1-5.9,2.9c-1.4,1.8-2.1,3.9-1.8,6.6l2.2,41
		c0.1,2.6,1,4.8,2.6,6.6c1.7,1.7,3.6,2.3,6.1,2.2h0.1c2.5-0.1,4.4-0.9,5.6-2.6l0.1-0.1c1.5-1.8,2.2-3.9,2.1-6.7l-2.2-41
		c-0.2-2.8-1-5-2.8-6.4C481.3,27.9,479.6,27.1,477.2,27.1z M476.8,4.1c-0.2,0-0.5,0-0.7,0c-2.5,0.1-4.7,1.2-6.6,3.1
		c-1.7,2-2.5,4-2.4,6.4c0.2,2.5,1.3,4.7,3.2,6.6c2,1.8,4,2.6,6.6,2.4h0.1c2.5-0.1,4.6-1,6.4-3.1c1.7-2,2.4-4.3,2.3-6.9
		c-0.1-2.4-1.2-4.5-3.1-6.1C480.9,4.9,478.9,4.1,476.8,4.1z M297.7,72l-7.8-44.6l8.9-1.5c1.5-0.3,3.1-0.5,4.7-0.5
		c7.4,0,16.7,3.3,19.3,19.6c0.5,2.3,0.6,4.1,0.6,5.9c0.1,10.9-5.4,17.6-15.8,19.3L297.7,72z M294.4,30.8l6.4,36.5l6-1
		c8.4-1.4,12.4-6.4,12.4-15.4c0-1.4-0.2-3.1-0.6-5.2c-1.8-10.9-6.8-16.2-15.4-16.2c-1.4,0-2.6,0.1-3.9,0.5h-0.1L294.4,30.8z
		 M524.5,71.8c-6.1,0-10.1-4.1-12-12.4c-0.3-1.2-0.6-2.8-0.6-4.5c0-3.1,0.8-6,2.4-8.4c1.8-2.9,4.6-4.4,8.2-4.4c3,0,5.8,1.3,7.9,3.8
		c2,2.1,3.5,5.2,4.3,8.9c0.5,1.6,0.6,3.1,0.6,4.6c0,3.2-0.9,6.1-2.5,8.3C530.7,70.5,527.9,71.8,524.5,71.8z M522.4,46.2
		c-2.1,0-3.7,0.8-4.7,2.5c-1.2,1.7-1.7,3.8-1.7,6.1c0,1,0.1,2.1,0.5,3.6c1.8,8.3,5.5,9.3,8.1,9.3c2.2,0,3.7-0.8,5-2.4
		c1.2-1.6,1.8-3.6,1.8-6c0-1-0.1-2.3-0.5-3.7c-0.7-3-1.8-5.4-3.3-7C525.9,47,524.3,46.2,522.4,46.2z M365.5,55.2l0.1-2.9
		c0.1-5.4,2.8-9.2,7.7-10.8h0.1c1.5-0.5,2.9-0.6,3.8-0.6c3.6,0,6.4,1.5,8.8,4.5l1.7,2.2L365.5,55.2z M374.5,45.3
		c-2.3,0.8-3.7,2.1-4.4,4l10.4-3.6c-1-0.6-2.1-0.8-3.3-0.8C376.2,44.8,375.3,44.9,374.5,45.3z"/>
</g>
<path class="st2" d="M249.5,120c-1.6,0-3.2-0.6-4.4-1.8c-1.7-1.6-2.4-3.9-1.8-6.2l2.7-11.1l2.8-11.3c0.6-2.3,2.2-4,4.5-4.6
	c2.2-0.7,4.6-0.1,6.3,1.5l16.6,15.8c1.7,1.6,2.4,3.9,1.8,6.2s-2.2,4-4.4,4.7l-11.2,3.3l-10.9,3.2C250.8,120,250.1,120,249.5,120z
	 M254.3,91.1l-2.8,11.3l-2.6,11.1c0,0.3,0.1,0.5,0.2,0.7c0.1,0.1,0.3,0.2,0.7,0.1l10.9-3.2l11.1-3.3c0.3-0.1,0.5-0.3,0.5-0.6
	c0-0.2,0-0.5-0.2-0.7l-16.6-15.7c-0.2-0.2-0.5-0.2-0.7-0.1C254.6,90.6,254.4,90.8,254.3,91.1z"/>
<path class="st3" d="M650.3,68l-2.9-8.2c8.1-2.8,12.1-11.3,9.3-19.2c-1.4-3.9-4.1-7-7.7-8.8c-3.6-1.7-7.6-2-11.4-0.6l-2.9-8.2
	c6-2.1,12.4-1.7,18.1,0.9c5.6,2.8,10,7.6,12.1,13.7C669.3,50.3,663,63.6,650.3,68z"/>
</svg>
