<?xml version="1.0" encoding="utf-8"?>
<!-- Generator: Adobe Illustrator 27.5.0, SVG Export Plug-In . SVG Version: 6.00 Build 0)  -->
<svg version="1.1" id="Layer_1" xmlns="http://www.w3.org/2000/svg" xmlns:xlink="http://www.w3.org/1999/xlink" x="0px" y="0px"
	 viewBox="0 0 367.6 104.2" style="enable-background:new 0 0 367.6 104.2;" xml:space="preserve">
<style type="text/css">
	.st0{fill:#FCE1E4;}
	.st1{fill:#A2D2FF;}
	.st2{fill:#FFAFCC;}
	.st3{fill:#E4EEF7;}
</style>
<path class="st0" d="M65,82.4l-15.9,2.8c-0.6,0.1-1.2,0.2-1.9,0.2c-5.2,0-8.3-2.5-9.2-7.6l-9-51.1c-0.1-0.6-0.1-1.2-0.1-1.9
	c0-2.3,0.7-4.3,2.1-5.9c1.4-1.6,3.3-2.7,5.7-3.1l15.2-2.7c2.7-0.4,5.2-0.6,7.8-0.6c8.7,0,15.9,2.7,21.7,8.1s9.5,12.8,11.2,22.2
	c0.4,2.5,0.6,5,0.6,7.5c0,8.3-2.5,15.4-7.6,21.2C80.6,77.2,73.7,80.9,65,82.4z M54.6,30.3l-6,1l6.2,35.2l6.9-1.2
	C69.9,63.9,74,58.8,74,50.2c0-1.5-0.2-3.1-0.5-4.8c-1.7-10.3-6.8-15.5-15.1-15.5C57.3,29.9,56,30,54.6,30.3z M143,55.8l-24,8.3
	c1.6,1.6,3.7,2.4,6.2,2.4c1.4,0,2.9-0.3,4.4-0.8c2.1-0.7,4.4-2.5,6.9-5.2s4.4-4.3,5.7-4.8c0.7-0.2,1.5-0.4,2.2-0.4
	c2.2,0,4,0.8,5.7,2.3s2.5,3.4,2.5,5.5c0,3.4-2.1,7-6.3,10.8c-3.8,3.5-7.9,6.1-12.4,7.6c-3.2,1.1-6.4,1.7-9.6,1.7
	c-5.7,0-10.9-1.7-15.5-5.2c-4.5-3.5-7.8-8.2-9.8-14.1c-1.1-3.1-1.7-6.4-1.7-9.8c0-5.7,1.5-10.8,4.4-15.3c3.1-4.8,7.4-8.2,12.9-10
	c2.7-0.9,5.5-1.4,8.2-1.4c5.7,0,11,1.8,15.8,5.5c4.6,3.4,7.8,7.6,9.4,12.5c0.4,1.2,0.6,2.4,0.6,3.5C148.6,52.2,146.8,54.5,143,55.8z
	 M119.6,43.6c-3.6,1.2-5.4,3.8-5.5,7.8l14.5-5c-1.7-2.2-3.7-3.2-6.2-3.2C121.6,43.2,120.6,43.3,119.6,43.6z M180.3,82.7
	c-1.9,0.4-4.1,0.6-6.5,0.6c-4,0-7.5-0.6-10.6-1.9c-4.2-1.7-6.3-4.2-6.3-7.7c0-1.8,0.5-3.5,1.4-5c1.1-1.9,2.7-3,4.7-3.4
	c0.8-0.2,1.6-0.3,2.4-0.3c1.2,0,2.9,0.3,5,0.9c2.2,0.6,3.8,0.9,5,0.9c0.7,0,1.4-0.1,2-0.3c2-0.4,2.8-1.1,2.6-2.1
	c-0.1-0.5-2.3-1-6.5-1.6c-5.2-0.6-9.3-1.6-12.1-3c-4.6-2.2-7.5-5.6-8.5-10.2c-0.4-1.4-0.6-2.8-0.6-4.2c0-5.6,2.4-10.1,7.1-13.6
	c4.3-3.2,9.4-4.8,15.1-4.8c3.9,0,7.2,0.7,10,2c3.7,1.7,5.6,4.3,5.6,7.8c0,2.2-0.7,4-2.1,5.7c-1.4,1.6-3.1,2.4-5.2,2.4
	c-0.9,0-2.5-0.2-4.6-0.6c-2.2-0.5-3.8-0.7-4.8-0.7c-1.4,0-2.5,0.2-3.1,0.7c-0.4,0.3-0.6,0.7-0.5,1.3s2.3,1.1,6.6,1.6
	c5.2,0.7,9.3,1.7,12.1,3c4.6,2.2,7.5,5.6,8.5,10.2c0.3,1.3,0.5,2.6,0.5,3.9c0,4.4-1.6,8.2-4.7,11.6
	C189.7,79.2,185.6,81.5,180.3,82.7z M209.1,27.4c-2.7,0.2-5-0.7-7-2.6s-3.1-4.2-3.3-6.9c-0.1-2.5,0.7-4.8,2.6-6.9
	c1.9-2,4.2-3.1,6.8-3.2c2.6-0.2,4.9,0.6,6.9,2.5c2.1,1.8,3.2,4,3.3,6.6c0.1,2.7-0.7,5.1-2.5,7.2C214,26.2,211.8,27.3,209.1,27.4z
	 M211.9,82.7c-2.7,0.2-4.9-0.6-6.7-2.4c-1.7-1.7-2.7-4-2.8-6.8l-1.9-35.6c-0.2-2.8,0.5-5.1,2-7c1.6-1.9,3.7-3,6.4-3.1
	s4.8,0.7,6.6,2.5c1.8,1.7,2.7,4,2.9,6.8l1.9,35.6c0.1,2.8-0.6,5.1-2.2,7C216.7,81.6,214.6,82.6,211.9,82.7z M262.7,78.2
	c-2.2,2.6-5.5,4.4-10,5.5c-1.9,0.4-3.6,0.6-5.4,0.6c-7.2,0-13.1-3.3-17.8-10c-4.2-6-6.3-12.7-6.3-20.1c0-6.1,1.5-11.5,4.5-16
	c3.3-4.9,7.8-8.1,13.6-9.4c1.4-0.3,2.7-0.5,4.2-0.5c3,0,5.7,0.6,8.1,1.9c1-2.7,3.2-4.4,6.3-5.1c0.7-0.2,1.5-0.3,2.1-0.3
	c2.2,0,4,0.7,5.7,2.1c1.6,1.4,2.7,3.3,3.1,5.6l8.7,37.6c0.6,2.5,0.9,5,0.9,7.4c0,6.3-2,11.6-6,15.8c-4,4.3-9.4,7.2-16.2,8.7
	c-2,0.5-4.5,0.7-7.5,0.7c-4.3,0-8-0.5-11.1-1.6c-4.7-1.5-7-3.9-7-7.3c0-1.7,0.5-3.5,1.6-5.2s2.5-2.7,4.2-3.1
	c0.8-0.2,1.7-0.3,2.6-0.3c1,0,2.6,0.2,4.9,0.5c2.3,0.4,4.2,0.6,5.6,0.6c1.5,0,2.9-0.2,4.2-0.5C260.3,84.7,262.7,82.2,262.7,78.2z
	 M241.2,53.7c0,1.2,0.2,2.3,0.5,3.5c1.4,6.3,4.3,9.4,8.7,9.4c2.4,0,4.3-0.9,5.7-2.8c1.2-1.6,1.9-3.7,1.9-6.2c0-1.2-0.2-2.4-0.5-3.6
	c-0.6-2.8-1.7-5.2-3.3-6.9c-1.6-1.8-3.5-2.7-5.6-2.7c-2.4,0-4.3,1-5.6,3C241.8,49.2,241.2,51.3,241.2,53.7z M320.1,85.5
	c-2.1-0.5-3.8-1.5-5-3.1s-1.9-3.5-1.9-5.7c0-0.9,0.1-1.8,0.3-2.7l5.3-22.6c0.2-0.8,0.3-1.6,0.3-2.3c0-1.9-0.6-3.3-1.9-4.4
	c-1.3-1.1-2.9-1.7-4.7-1.7c-3.1,0-5.1,1.8-5.9,5.5l-5.2,22.7c-0.6,2.3-1.6,4.1-3.2,5.6c-1.6,1.4-3.5,2.1-5.6,2.1
	c-0.7,0-1.5-0.1-2.1-0.3c-2.2-0.5-3.8-1.5-5-3.1s-1.9-3.5-1.9-5.7c0-0.9,0.1-1.8,0.3-2.7l8-34.6c0.6-2.3,1.6-4.2,3.2-5.6
	s3.5-2.1,5.6-2.1c4,0,6.7,1.6,8.2,4.7c2-1,4.4-1.5,6.9-1.5c1.7,0,3.6,0.2,5.7,0.7c4.9,1.1,8.8,3.4,11.7,6.8c3,3.4,4.4,7.5,4.4,12.2
	c0,1.7-0.2,3.5-0.6,5.4l-6,25c-0.5,2.3-1.5,4.2-3.2,5.6c-1.6,1.4-3.5,2.1-5.7,2.1C321.5,85.8,320.8,85.7,320.1,85.5z"/>
<g>
	<path class="st1" d="M244.7,98.4c-4.6,0-8.5-0.6-11.7-1.7c-5.4-1.7-8.2-4.7-8.2-8.9c0-2.1,0.7-4.2,1.9-6.2c1.3-1.9,2.9-3.2,4.9-3.8
		c-3.6-1.8-6.8-4.6-9.6-8.6c-4.4-6.3-6.6-13.4-6.6-21.1c0-6.5,1.6-12.2,4.8-17c3.6-5.4,8.5-8.8,14.7-10.1c1.3-0.3,2.8-0.5,4.6-0.5
		c2.7,0,5.1,0.4,7.3,1.3c1.4-2.3,3.7-3.8,6.7-4.5c0.7-0.2,1.7-0.3,2.5-0.3c2.5,0,4.8,0.8,6.8,2.5c2,1.7,3.3,4,3.7,6.7l8.7,37.5
		c0.6,2.6,0.9,5.2,0.9,7.8c0,6.8-2.2,12.5-6.5,17c-4.2,4.5-10,7.6-17.1,9.2C250.6,98.2,248.1,98.4,244.7,98.4z M235,80.9
		c-0.8,0-1.5,0.1-2.2,0.2c-1.3,0.3-2.3,1.1-3.2,2.4c-0.9,1.3-1.3,2.8-1.3,4.2c0,1.6,0.6,4,5.8,5.6c2.9,1,6.3,1.5,10.6,1.5
		c3,0,5.3-0.2,7.1-0.6c6.5-1.4,11.6-4.2,15.3-8.2c3.7-3.9,5.5-8.8,5.5-14.6c0-2.3-0.3-4.6-0.9-7l-8.7-37.6c-0.3-1.9-1.2-3.5-2.5-4.7
		c-1.4-1.1-2.8-1.7-4.5-1.7c-0.5,0-1.1,0.1-1.6,0.2c-2.7,0.6-4.4,2-5.1,4l-0.7,1.9l-1.8-1c-2.1-1.1-4.5-1.7-7.3-1.7
		c-1.2,0-2.3,0.1-3.8,0.5c-5.3,1.2-9.4,4-12.5,8.7c-2.8,4.2-4.2,9.2-4.2,15c0,7,2,13.4,6,19.1c4.4,6.2,9.7,9.3,16.4,9.3
		c1.6,0,3.2-0.2,5-0.6c4.1-1,7.1-2.6,9-4.9l3.1-3.6v4.8c0,3.3-1.4,7.7-8.3,9.3c-1.6,0.4-3.1,0.5-4.6,0.5c-1.5,0-3.5-0.2-5.9-0.6
		C237.4,81.1,235.9,80.9,235,80.9z M316.1,81.5c-0.8,0-1.6-0.1-2.4-0.4c-2.6-0.6-4.6-1.9-6-3.7c-1.5-2-2.2-4.3-2.2-6.8
		c0-1,0.1-2.1,0.3-3.1l5.3-22.6c0.2-0.7,0.3-1.3,0.3-1.9c0-1.4-0.4-2.3-1.3-3.1c-1-0.9-2.2-1.3-3.6-1.3c-1.5,0-3.4,0.5-4.2,4.1
		l-5.2,22.7c-0.7,2.7-1.9,4.8-3.7,6.5c-1.9,1.7-4.3,2.6-6.8,2.6c-0.9,0-1.8-0.1-2.6-0.4c-2.6-0.6-4.5-1.8-5.9-3.7
		c-1.5-2-2.3-4.3-2.3-6.7c0-1,0.1-2.1,0.3-3.1l8-34.6c0.7-2.8,2-5,3.8-6.5c1.9-1.7,4.2-2.5,6.8-2.5c4,0,7,1.5,8.9,4.2
		c3.5-1.3,7.9-1.3,12.3-0.3c5.2,1.2,9.5,3.6,12.6,7.4c3.2,3.6,4.8,8.1,4.8,13.3c0,1.8-0.2,3.8-0.6,5.8l-6,25c-0.6,2.8-1.9,5-3.8,6.5
		C321,80.7,318.7,81.5,316.1,81.5z M306.5,35.2c2.2,0,4.2,0.7,5.8,2.1c1.7,1.4,2.5,3.3,2.5,5.7c0,0.9-0.1,1.8-0.4,2.7l-5.3,22.6
		c-0.2,0.8-0.3,1.5-0.3,2.3c0,1.7,0.5,3.3,1.5,4.7c0.9,1.2,2.2,2,4,2.4l0.1,0c0.5,0.2,1.1,0.2,1.5,0.2c1.8,0,3.3-0.5,4.5-1.7
		c1.3-1.1,2.2-2.6,2.6-4.7l6-25c0.4-1.7,0.6-3.4,0.6-5c0-4.4-1.3-8-4-11c-2.7-3.2-6.3-5.2-10.8-6.2c-4.3-1-8.4-0.8-11.4,0.7
		l-1.6,0.8l-0.8-1.6c-1.2-2.5-3.3-3.7-6.6-3.7c-1.7,0-3.2,0.6-4.4,1.7c-1.2,1.1-2.1,2.6-2.7,4.7l-8,34.6c-0.2,0.8-0.3,1.5-0.3,2.3
		c0,1.7,0.5,3.3,1.6,4.7c1,1.3,2.2,2,4,2.4l0.2,0c0.4,0.1,1,0.2,1.5,0.2c1.7,0,3.2-0.6,4.4-1.7c1.3-1.2,2.1-2.7,2.7-4.7l5.2-22.6
		C300.2,36.1,304.2,35.2,306.5,35.2z M41.2,81.1c-6.1,0-9.9-3.1-10.9-9l-9-51.1c-0.1-0.8-0.1-1.5-0.1-2.2c0-2.8,0.9-5.1,2.5-7.1
		c1.7-2,4-3.2,6.7-3.7l15.2-2.7c2.9-0.4,5.5-0.6,8.1-0.6c9.1,0,16.8,2.9,22.9,8.6c6,5.6,10,13.4,11.7,23.2c0.4,2.6,0.6,5.2,0.6,7.8
		c0,8.8-2.7,16.3-8,22.4c-5.3,6.1-12.6,9.9-21.6,11.5l-15.9,2.8C42.8,81,42.1,81.1,41.2,81.1z M53.7,8.2c-2.5,0-4.9,0.2-7.5,0.6
		L31,11.5c-1.9,0.3-3.5,1.2-4.7,2.5c-1.1,1.3-1.7,2.9-1.7,4.7c0,0.6,0,1.2,0.1,1.6l9,51.1c0.7,4.2,3.1,6.2,7.5,6.2
		c0.6,0,1.1-0.1,1.6-0.2l15.9-2.8c8.2-1.4,14.8-4.9,19.6-10.3c4.8-5.4,7.2-12.2,7.2-20c0-2.4-0.2-4.8-0.6-7.2
		c-1.6-9-5.2-16.1-10.7-21.2C68.7,10.7,62,8.2,53.7,8.2z M167.8,79c-4.3,0-8-0.7-11.3-2c-4.9-2-7.4-5.1-7.4-9.3
		c0-2.1,0.6-4.1,1.6-5.9c1.3-2.3,3.3-3.7,5.9-4.2c0.9-0.2,1.8-0.3,2.7-0.3c0.2,0,0.4,0,0.6,0c-2.1-0.5-3.9-1.2-5.4-1.9
		c-5.1-2.4-8.3-6.3-9.4-11.3c-0.4-1.5-0.7-3.1-0.7-4.6c0-6.1,2.6-11.1,7.8-15c4.6-3.4,10-5.1,16.1-5.1c4,0,7.6,0.7,10.7,2.2
		c5.5,2.5,6.6,6.5,6.6,9.4c0,2.5-0.8,4.8-2.5,6.8c-1.7,1.9-3.7,2.9-6.1,3c2.4,0.6,4.4,1.2,6,2c5.2,2.5,8.4,6.3,9.5,11.4
		c0.4,1.6,0.5,3,0.5,4.3c0,4.8-1.7,9-5.2,12.8c-3.4,3.6-7.9,6.1-13.4,7.3l0,0C172.7,78.8,170.3,79,167.8,79z M159.4,60.7
		c-0.7,0-1.3,0.1-2,0.2c-1.6,0.3-2.8,1.2-3.6,2.6c-0.8,1.3-1.2,2.7-1.2,4.1c0,1.7,0.5,4.2,5.2,6.1c2.9,1.2,6.1,1.8,9.9,1.8
		c2.3,0,4.4-0.2,6.1-0.6c4.9-1.1,8.7-3.2,11.6-6.3c2.8-3.1,4.2-6.5,4.2-10.4c0-1-0.1-2.2-0.5-3.5c-0.9-4-3.4-7-7.5-9
		c-2.6-1.2-6.5-2.2-11.6-2.8c-6.1-0.7-7.8-1.3-8.1-3c-0.2-1.2,0.2-2.3,1.2-3c0.8-0.7,2.2-1,4.1-1c1.3,0,3,0.3,5.2,0.7
		c2.6,0.5,3.8,0.6,4.2,0.6c1.6,0,2.8-0.6,3.9-1.8c1.1-1.4,1.7-2.8,1.7-4.5c0-2.8-1.5-4.8-4.6-6.2c-2.6-1.2-5.7-1.8-9.3-1.8
		c-5.4,0-10.1,1.5-14.1,4.5c-4.3,3.2-6.4,7.2-6.4,12.2c0,1.2,0.2,2.5,0.5,3.7l0,0.1c0.9,4,3.4,7,7.5,9c2.6,1.3,6.5,2.3,11.5,2.8
		c6.3,0.9,7.7,1.4,8,3c0.2,1,0.2,3.3-3.9,4.1c-0.7,0.2-1.6,0.4-2.4,0.4c-1.3,0-3-0.3-5.5-1C161.5,60.9,160.1,60.7,159.4,60.7z
		 M164.9,58.2c2.1,0.6,3.5,0.8,4.5,0.8c0.3,0,0.5,0,0.8-0.1c-0.8-0.1-1.7-0.3-2.9-0.5C166.4,58.4,165.7,58.3,164.9,58.2z
		 M118.3,78.9c-6.1,0-11.7-1.9-16.6-5.6c-4.8-3.7-8.3-8.8-10.4-14.9c-1.2-3.3-1.8-6.8-1.8-10.4c0-6,1.6-11.4,4.7-16.2
		c3.4-5.2,8-8.8,13.8-10.7c3-1,5.9-1.5,8.7-1.5c6.1,0,11.8,2,16.9,5.9c4.9,3.6,8.3,8.1,10,13.3c0.4,1.3,0.7,2.7,0.7,4
		c0,1.7-0.4,3.7-1.9,5.5c1,0.4,1.9,1.1,2.9,1.9c2,1.8,3.1,4.1,3.1,6.8c0,3.9-2.3,8-6.9,12.1c-4.1,3.8-8.5,6.4-13,8
		C125,78.3,121.6,78.9,118.3,78.9z M116.8,23.1c-2.4,0-5.1,0.5-7.6,1.3c-5,1.6-9.1,4.8-12,9.3C94.4,38,93,42.8,93,48.1
		c0,3.1,0.5,6.2,1.6,9.2c1.9,5.5,5,10,9.2,13.3c4.2,3.2,9.1,4.8,14.4,4.8c2.9,0,5.9-0.5,9-1.6c4.2-1.4,8-3.7,11.8-7.2
		c3.8-3.4,5.7-6.6,5.7-9.5c0-1.7-0.6-3.1-1.9-4.2c-1.4-1.2-2.7-1.8-4.3-1.9c-0.3,0.1-0.7,0.3-1,0.4l-2.1,0.7c-0.8,0.6-2,1.7-3.7,3.5
		c-2.8,3-5.3,4.9-7.6,5.7c-1.8,0.6-3.4,0.9-5,0.9c-3,0-5.5-1-7.4-2.9l-2-2l24-8.3c0.6-0.5,1.2-0.8,1.8-1l0.1,0
		c0.6-0.2,1.4-0.4,2.1-0.4c2.7-1.3,3.1-3.2,3.1-4.7c0-0.9-0.2-1.9-0.5-2.9c-1.5-4.5-4.4-8.4-8.8-11.6
		C127.1,24.9,122.2,23.1,116.8,23.1z M117.2,58.5c1.6,0.4,3.6,0.3,5.9-0.5c1.3-0.4,2.9-1.5,4.6-3.2L117.2,58.5z M205.1,78.5
		c-2.8,0-5.2-1-7.1-2.9c-2.1-2.1-3.2-4.8-3.3-8L192.8,32c-0.2-3.1,0.6-5.9,2.4-8.2c0.7-0.8,1.4-1.4,2.1-2c-0.8-0.5-1.6-1.1-2.4-1.8
		c-2.3-2.2-3.6-4.9-3.8-8c-0.1-3.1,0.9-5.8,3-8.2c2.2-2.4,5-3.7,8-3.8c3.1-0.2,5.8,0.8,8.2,3c2.4,2.1,3.7,4.7,3.8,7.8
		c0.1,3.2-0.9,6-2.9,8.4c-0.8,0.9-1.7,1.6-2.5,2.2c0.7,0.4,1.4,1,2.1,1.6c2,1.9,3.2,4.6,3.4,7.9l1.9,35.6c0.1,3.3-0.7,6-2.6,8.2
		c-1.7,2.3-4.3,3.5-7.5,3.7C205.7,78.5,205.4,78.5,205.1,78.5z M203.3,23.5c-0.1,0-0.3,0-0.4,0c-2.1,0.1-3.8,0.9-5.1,2.5
		c-1.2,1.6-1.8,3.4-1.6,5.7l1.9,35.6c0.1,2.3,0.9,4.2,2.3,5.7c1.5,1.5,3.1,2,5.3,1.9l0.1,0c2.2-0.1,3.8-0.8,4.9-2.3l0.1-0.1
		c1.3-1.6,1.9-3.4,1.8-5.8l-1.9-35.6c-0.2-2.4-0.9-4.3-2.4-5.6C206.9,24.2,205.4,23.5,203.3,23.5z M203,3.5c-0.2,0-0.4,0-0.6,0
		c-2.2,0.1-4.1,1-5.7,2.7c-1.5,1.7-2.2,3.5-2.1,5.6c0.2,2.2,1.1,4.1,2.8,5.7c1.7,1.6,3.5,2.3,5.7,2.1l0.1,0c2.2-0.1,4-0.9,5.6-2.7
		c1.5-1.7,2.1-3.7,2-6c-0.1-2.1-1-3.9-2.7-5.3C206.5,4.2,204.8,3.5,203,3.5z M47.4,62.5l-6.8-38.7l7.7-1.3c1.3-0.3,2.7-0.4,4.1-0.4
		c6.4,0,14.5,2.9,16.8,17c0.4,2,0.5,3.6,0.5,5.1C69.8,53.7,65,59.5,56,61L47.4,62.5z M44.6,26.7l5.6,31.7l5.2-0.9
		c7.3-1.2,10.8-5.6,10.8-13.4c0-1.2-0.2-2.7-0.5-4.5c-1.6-9.5-5.9-14.1-13.4-14.1c-1.2,0-2.3,0.1-3.4,0.4l-0.1,0L44.6,26.7z
		 M244.4,62.3c-5.3,0-8.8-3.6-10.4-10.8c-0.3-1-0.5-2.4-0.5-3.9c0-2.7,0.7-5.2,2.1-7.3c1.6-2.5,4-3.8,7.1-3.8c2.6,0,5,1.1,6.9,3.3
		c1.7,1.8,3,4.5,3.7,7.7c0.4,1.4,0.5,2.7,0.5,4c0,2.8-0.8,5.3-2.2,7.2C249.8,61.2,247.4,62.3,244.4,62.3z M242.6,40.1
		c-1.8,0-3.2,0.7-4.1,2.2c-1,1.5-1.5,3.3-1.5,5.3c0,0.9,0.1,1.8,0.4,3.1c1.6,7.2,4.8,8.1,7,8.1c1.9,0,3.2-0.7,4.3-2.1
		c1-1.4,1.6-3.1,1.6-5.2c0-0.9-0.1-2-0.4-3.2c-0.6-2.6-1.6-4.7-2.9-6.1C245.6,40.8,244.2,40.1,242.6,40.1z M106.3,47.9l0.1-2.5
		c0.1-4.7,2.4-8,6.7-9.4l0.1,0c1.3-0.4,2.5-0.5,3.3-0.5c3.1,0,5.6,1.3,7.6,3.9l1.5,1.9L106.3,47.9z M114.1,39.3
		c-2,0.7-3.2,1.8-3.8,3.5l9-3.1c-0.9-0.5-1.8-0.7-2.9-0.7C115.6,38.9,114.8,39,114.1,39.3z"/>
</g>
<path class="st2" d="M5.6,104.2c-1.4,0-2.8-0.5-3.8-1.6c-1.5-1.4-2.1-3.4-1.6-5.4l2.3-9.6l2.4-9.8c0.5-2,1.9-3.5,3.9-4
	c1.9-0.6,4-0.1,5.5,1.3l14.4,13.7c1.5,1.4,2.1,3.4,1.6,5.4s-1.9,3.5-3.8,4.1l-9.7,2.9L7.3,104C6.7,104.2,6.1,104.2,5.6,104.2z
	 M9.7,79.1l-2.4,9.8L5,98.5c0,0.3,0.1,0.4,0.2,0.6c0.1,0.1,0.3,0.2,0.6,0.1l9.5-2.8l9.6-2.9c0.3-0.1,0.4-0.3,0.4-0.5s0-0.4-0.2-0.6
	L10.8,78.8c-0.2-0.2-0.4-0.2-0.6-0.1C10,78.7,9.8,78.8,9.7,79.1z"/>
<path class="st3" d="M353.7,59l-2.5-7.1c7-2.4,10.5-9.8,8.1-16.7c-1.2-3.4-3.6-6.1-6.7-7.6s-6.6-1.7-9.9-0.5l-2.5-7.1
	c5.2-1.8,10.8-1.5,15.7,0.8c4.9,2.4,8.7,6.6,10.5,11.9C370.2,43.7,364.7,55.2,353.7,59z"/>
</svg>
