<?xml version="1.0" encoding="utf-8"?>
<!-- Generator: Adobe Illustrator 27.5.0, SVG Export Plug-In . SVG Version: 6.00 Build 0)  -->
<svg version="1.1" id="Layer_1" xmlns="http://www.w3.org/2000/svg" xmlns:xlink="http://www.w3.org/1999/xlink" x="0px" y="0px"
	 viewBox="0 0 779.9 121.8" style="enable-background:new 0 0 779.9 121.8;" xml:space="preserve">
<style type="text/css">
	.st0{fill:#E8DFF5;}
	.st1{fill:#FFAFCC;}
	.st2{fill:#FCE1E4;}
	.st3{fill:#CDB4DB;}
</style>
<path class="st0" d="M104.2,93.6c-2.7,0.3-5-0.3-6.9-1.8c-1.9-1.5-3-3.7-3.3-6.6l-2.2-17.8l-24.3,3l2.2,17.8c0.1,0.5,0.1,1,0.1,1.5
	c0,2.5-0.8,4.6-2.3,6.2c-1.5,1.7-3.4,2.6-5.8,2.9c-2.7,0.4-5-0.2-6.9-1.8c-1.9-1.5-3.1-3.7-3.4-6.6l-6.4-52.2
	c-0.1-0.6-0.1-1.1-0.1-1.6c0-2.5,0.7-4.5,2.2-6.1c1.5-1.7,3.5-2.7,5.9-3c2.7-0.3,4.9,0.3,6.9,1.9c2,1.5,3.1,3.6,3.4,6.5l2.1,17.2
	l24.3-3L87.5,33c-0.1-0.5-0.1-1-0.1-1.5c0-2.5,0.7-4.6,2.2-6.2c1.5-1.7,3.5-2.6,5.9-2.9c2.7-0.4,4.9,0.2,6.9,1.8
	c2,1.5,3.2,3.7,3.5,6.6l6.4,52.2c0.1,0.6,0.1,1.1,0.1,1.6c0,2.5-0.7,4.5-2.2,6.2C108.7,92.3,106.7,93.3,104.2,93.6z M163.8,91.8
	c-0.8,0.2-1.6,0.3-2.4,0.3c-2.1,0-3.9-0.8-5.5-2.4c-2.7,3.6-6.2,6-10.6,6.9c-1.8,0.4-3.6,0.6-5.4,0.6c-5.8,0-11-2-15.6-6.1
	c-4.5-4.1-7.6-9.6-9.2-16.3c-0.6-2.5-0.8-4.9-0.8-7.4c0-6.2,1.7-11.7,5-16.4c3.3-4.8,7.8-7.8,13.2-9.1c1.5-0.4,3.1-0.6,4.5-0.6
	c2.9,0,5.6,0.6,8.1,1.9c1.1-2.7,3.1-4.4,6.1-5.2c1-0.2,1.9-0.3,2.8-0.3c4.1,0,6.8,3,8.2,9.1l7.4,32.1c0.4,2,0.6,3.6,0.6,4.9
	C170.5,88.2,168.3,90.8,163.8,91.8z M132.4,67.1c0,1.2,0.1,2.5,0.4,3.8c0.6,2.7,1.7,4.8,3.3,6.6c1.6,1.7,3.5,2.6,5.6,2.6
	c2.4,0,4.3-1,5.6-2.9c1.2-1.7,1.9-3.8,1.9-6.3c0-1.2-0.2-2.4-0.5-3.7c-0.6-2.7-1.7-4.9-3.3-6.7c-1.6-1.8-3.4-2.7-5.5-2.7
	c-2.4,0-4.3,0.9-5.6,2.8C133,62.4,132.4,64.5,132.4,67.1z M210.4,99.1c-2.1-0.5-3.8-1.5-5-3.1c-1.2-1.6-1.9-3.5-1.9-5.7
	c0-0.9,0.1-1.8,0.3-2.7l5.3-22.6c0.2-0.8,0.3-1.6,0.3-2.3c0-1.9-0.6-3.3-1.9-4.4c-1.3-1.1-2.9-1.7-4.7-1.7c-3.1,0-5.1,1.8-5.9,5.5
	l-5.2,22.7c-0.6,2.3-1.6,4.1-3.2,5.6c-1.6,1.4-3.5,2.1-5.6,2.1c-0.7,0-1.5-0.1-2.1-0.3c-2.2-0.5-3.8-1.5-5-3.1
	c-1.2-1.6-1.9-3.5-1.9-5.7c0-0.9,0.1-1.8,0.3-2.7l8-34.6c0.6-2.3,1.6-4.2,3.2-5.6c1.6-1.4,3.5-2.1,5.6-2.1c4,0,6.7,1.6,8.2,4.7
	c2-1,4.4-1.5,6.9-1.5c1.7,0,3.6,0.2,5.7,0.7c4.9,1.1,8.8,3.4,11.7,6.8c3,3.4,4.4,7.5,4.4,12.2c0,1.7-0.2,3.5-0.6,5.4l-5.8,24.9
	c-0.5,2.3-1.5,4.2-3.1,5.6c-1.6,1.4-3.5,2.1-5.7,2.1C211.8,99.4,211.1,99.3,210.4,99.1z M272.9,97.8c-3.3-0.3-5.6-1.7-7-4.3
	c-3.4,2.5-7.3,3.5-11.9,3.1c-6.7-0.6-12.1-3.7-16.2-9.2c-3.8-5.1-5.7-11-5.7-17.7c0-7.5,2.1-14.1,6.3-19.7
	c4.6-6.3,10.6-9.4,17.9-9.4c4.6,0,8.7,1.2,12.3,3.5l1.2-13.7c0.2-2.8,1.3-5,3.1-6.7c1.9-1.7,4.1-2.5,6.8-2.2
	c2.6,0.2,4.6,1.3,6.1,3.3c1.5,2,2.2,4.4,1.9,7.1l-5,56.8c-0.2,2.8-1.3,5-3.1,6.7C277.7,97.2,275.5,98,272.9,97.8z M259.2,57.7
	c-2.4-0.2-4.4,0.8-6.1,2.9c-1.7,2-2.7,4.6-3,7.7c-0.2,3,0.3,5.7,1.6,7.9c1.3,2.4,3.1,3.7,5.6,3.9c2.5,0.2,4.5-0.7,6.2-2.8
	c1.7-2.1,2.6-4.8,2.9-8.1c0.3-3.1-0.2-5.7-1.5-7.9C263.6,59.2,261.7,58,259.2,57.7z M353.9,96.8l-23.1-2c-2.9-0.2-5.1-1.4-6.7-3.3
	c-1.5-2-2.2-4.4-1.9-7.4l4.4-51.5c0.2-2.8,1.3-5,3.2-6.6c1.9-1.6,4.2-2.3,6.9-2c2.7,0.2,4.8,1.2,6.4,3.1c1.6,1.9,2.3,4.2,2,7.1
	l-3.9,44l14.1,1.2c2.7,0.2,4.7,1.2,6.1,2.9c1.4,1.6,2.1,3.5,2.1,5.7c0,2.5-0.8,4.7-2.5,6.4C359.3,96.2,356.9,97.1,353.9,96.8z
	 M409.7,69.4l-24,8.3c1.6,1.6,3.7,2.4,6.2,2.4c1.4,0,2.9-0.3,4.4-0.8c2.1-0.7,4.4-2.5,6.9-5.2c2.5-2.7,4.4-4.3,5.7-4.8
	c0.7-0.2,1.5-0.4,2.2-0.4c2.2,0,4,0.8,5.7,2.3c1.7,1.5,2.5,3.4,2.5,5.5c0,3.4-2.1,7-6.3,10.8c-3.8,3.5-7.9,6.1-12.4,7.6
	c-3.2,1.1-6.4,1.7-9.6,1.7c-5.7,0-10.9-1.7-15.5-5.2c-4.5-3.5-7.8-8.2-9.8-14.1c-1.1-3.1-1.7-6.4-1.7-9.8c0-5.7,1.5-10.8,4.4-15.3
	c3.2-4.8,7.4-8.2,12.9-10c2.7-0.9,5.5-1.4,8.2-1.4c5.7,0,11,1.8,15.8,5.5c4.6,3.4,7.8,7.6,9.4,12.5c0.4,1.2,0.6,2.4,0.6,3.5
	C415.4,65.8,413.5,68.1,409.7,69.4z M386.4,57.3c-3.6,1.2-5.4,3.8-5.5,7.8l14.5-5c-1.7-2.2-3.7-3.2-6.2-3.2
	C388.3,56.8,387.3,56.9,386.4,57.3z M448.7,60.6l-1.4-0.4l-6.4,27.7c-0.6,2.3-1.6,4.2-3.2,5.7c-1.6,1.4-3.5,2-5.7,2
	c-0.7,0-1.4-0.1-2.1-0.2c-2.1-0.5-3.8-1.5-5-3.1c-1.2-1.7-1.9-3.6-1.9-5.7c0-0.9,0.1-1.7,0.3-2.6l6.5-27.8l-0.6-0.1
	c-4.3-1-6.4-3.5-6.4-7.6c0-0.7,0.1-1.5,0.3-2.2c0.4-1.9,1.4-3.4,2.8-4.5c1.5-1.2,3.1-1.8,5-1.8c0.7,0,1.3,0.1,1.9,0.2l0.6,0.2
	l1.3-5.6c0.6-2.3,1.6-4.1,3.1-5.6c1.6-1.4,3.5-2.1,5.7-2.1c0.7,0,1.4,0.1,2.1,0.3c2.2,0.5,3.8,1.5,5,3.1c1.2,1.6,1.9,3.5,1.9,5.7
	c0,0.9-0.1,1.7-0.3,2.6l-1.3,5.6l1.5,0.3c4.6,1,6.9,3.6,6.9,7.7c0,0.7-0.1,1.4-0.2,2.2c-1,4.2-3.6,6.3-7.9,6.3
	C450.4,60.9,449.6,60.8,448.7,60.6z M487.8,60.6l-1.4-0.4L480,87.9c-0.6,2.3-1.6,4.2-3.2,5.7c-1.6,1.4-3.5,2-5.7,2
	c-0.7,0-1.4-0.1-2.1-0.2c-2.1-0.5-3.8-1.5-5-3.1c-1.2-1.7-1.9-3.6-1.9-5.7c0-0.9,0.1-1.7,0.3-2.6l6.5-27.8l-0.6-0.1
	c-4.3-1-6.4-3.5-6.4-7.6c0-0.7,0.1-1.5,0.3-2.2c0.4-1.9,1.4-3.4,2.8-4.5c1.5-1.2,3.1-1.8,5-1.8c0.7,0,1.3,0.1,1.9,0.2l0.6,0.2
	l1.3-5.6c0.6-2.3,1.6-4.1,3.1-5.6c1.6-1.4,3.5-2.1,5.7-2.1c0.7,0,1.4,0.1,2.1,0.3c2.2,0.5,3.8,1.5,5,3.1c1.2,1.6,1.9,3.5,1.9,5.7
	c0,0.9-0.1,1.7-0.3,2.6l-1.3,5.6l1.5,0.3c4.6,1,6.9,3.6,6.9,7.7c0,0.7-0.1,1.4-0.2,2.2c-1,4.2-3.6,6.3-7.9,6.3
	C489.5,60.9,488.7,60.8,487.8,60.6z M544.5,69.4l-24,8.3c1.6,1.6,3.7,2.4,6.2,2.4c1.4,0,2.9-0.3,4.4-0.8c2.1-0.7,4.4-2.5,6.9-5.2
	c2.5-2.7,4.4-4.3,5.7-4.8c0.7-0.2,1.5-0.4,2.2-0.4c2.2,0,4,0.8,5.7,2.3c1.7,1.5,2.5,3.4,2.5,5.5c0,3.4-2.1,7-6.3,10.8
	c-3.8,3.5-7.9,6.1-12.4,7.6c-3.2,1.1-6.4,1.7-9.6,1.7c-5.7,0-10.9-1.7-15.5-5.2c-4.5-3.5-7.8-8.2-9.8-14.1c-1.1-3.1-1.7-6.4-1.7-9.8
	c0-5.7,1.5-10.8,4.4-15.3c3.2-4.8,7.4-8.2,12.9-10c2.7-0.9,5.5-1.4,8.2-1.4c5.7,0,11,1.8,15.8,5.5c4.6,3.4,7.8,7.6,9.4,12.5
	c0.4,1.2,0.6,2.4,0.6,3.5C550.1,65.8,548.2,68.1,544.5,69.4z M521.1,57.3c-3.6,1.2-5.4,3.8-5.5,7.8l14.5-5c-1.7-2.2-3.7-3.2-6.2-3.2
	C523.1,56.8,522.1,56.9,521.1,57.3z M578.7,44.9c2-2.2,4.8-3.1,8.6-2.9c2.3,0.2,4.3,1.1,5.8,2.8c1.7,1.9,2.4,4.3,2.2,7.2
	c-0.2,2.7-1.7,4.8-4.5,6.1c-2.7,0.9-5.3,1.9-8,2.8c-2.8,1.2-4.4,3-4.5,5.4l-1.4,20.4c-0.2,2.8-1.3,5-3.1,6.8c-1.8,1.7-4,2.5-6.7,2.3
	c-2.6-0.2-4.7-1.2-6.2-3.1c-1.5-2-2.2-4.4-2-7.1l2.5-36.2c0.2-2.8,1.4-5,3.5-6.6c1.9-1.4,4-1.9,6.3-1.8
	C574.9,41.2,577.4,42.5,578.7,44.9z M608.2,41c-2.7,0.2-5-0.7-7-2.6c-2-1.9-3.1-4.2-3.3-6.9c-0.1-2.5,0.7-4.8,2.6-6.9
	c1.9-2,4.2-3.1,6.8-3.2c2.6-0.2,4.9,0.6,6.9,2.5c2.1,1.8,3.2,4,3.3,6.6c0.1,2.7-0.7,5.1-2.5,7.2C613.2,39.8,610.9,40.9,608.2,41z
	 M611.1,96.4c-2.7,0.2-4.9-0.6-6.7-2.4c-1.7-1.7-2.7-4-2.8-6.8l-1.9-35.6c-0.2-2.8,0.5-5.1,2-7c1.6-1.9,3.7-3,6.4-3.1
	c2.7-0.1,4.8,0.7,6.6,2.5c1.8,1.7,2.7,4,2.9,6.8l1.9,35.6c0.1,2.8-0.6,5.1-2.2,7C615.8,95.2,613.7,96.2,611.1,96.4z M659.5,99.1
	c-2.1-0.5-3.8-1.5-5-3.1c-1.2-1.6-1.9-3.5-1.9-5.7c0-0.9,0.1-1.8,0.3-2.7l5.3-22.6c0.2-0.8,0.3-1.6,0.3-2.3c0-1.9-0.6-3.3-1.9-4.4
	c-1.3-1.1-2.9-1.7-4.7-1.7c-3.1,0-5.1,1.8-5.9,5.5l-5.2,22.7c-0.6,2.3-1.6,4.1-3.2,5.6c-1.6,1.4-3.5,2.1-5.6,2.1
	c-0.7,0-1.5-0.1-2.1-0.3c-2.2-0.5-3.8-1.5-5-3.1c-1.2-1.6-1.9-3.5-1.9-5.7c0-0.9,0.1-1.8,0.3-2.7l8-34.6c0.6-2.3,1.6-4.2,3.2-5.6
	c1.6-1.4,3.5-2.1,5.6-2.1c4,0,6.7,1.6,8.2,4.7c2-1,4.4-1.5,6.9-1.5c1.7,0,3.6,0.2,5.7,0.7c4.9,1.1,8.8,3.4,11.7,6.8
	c3,3.4,4.4,7.5,4.4,12.2c0,1.7-0.2,3.5-0.6,5.4l-5.8,24.9c-0.5,2.3-1.5,4.2-3.2,5.6c-1.6,1.4-3.5,2.1-5.7,2.1
	C661,99.4,660.3,99.3,659.5,99.1z M719.4,91.8c-2.2,2.6-5.5,4.4-10,5.5c-1.9,0.4-3.6,0.6-5.4,0.6c-7.2,0-13.1-3.3-17.8-10
	c-4.2-6-6.3-12.7-6.3-20.1c0-6.1,1.5-11.5,4.5-16c3.3-4.9,7.8-8.1,13.6-9.4c1.4-0.3,2.7-0.5,4.2-0.5c3,0,5.7,0.6,8.1,1.9
	c1-2.7,3.2-4.4,6.3-5.1c0.7-0.2,1.5-0.3,2.1-0.3c2.2,0,4,0.7,5.7,2.1c1.6,1.4,2.7,3.3,3.2,5.6l8.7,37.6c0.6,2.5,0.9,5,0.9,7.4
	c0,6.3-2,11.6-6,15.8c-4,4.3-9.4,7.2-16.2,8.7c-2,0.5-4.5,0.7-7.5,0.7c-4.3,0-8-0.5-11.1-1.6c-4.7-1.5-7-3.9-7-7.3
	c0-1.7,0.5-3.5,1.6-5.2c1.1-1.7,2.5-2.7,4.2-3.1c0.8-0.2,1.7-0.3,2.6-0.3c1,0,2.6,0.2,4.9,0.5c2.3,0.4,4.2,0.6,5.6,0.6
	c1.5,0,2.9-0.2,4.2-0.5C717,98.4,719.4,95.8,719.4,91.8z M697.8,67.4c0,1.2,0.2,2.3,0.5,3.5c1.4,6.3,4.3,9.4,8.7,9.4
	c2.4,0,4.3-0.9,5.7-2.8c1.2-1.6,1.9-3.7,1.9-6.2c0-1.2-0.2-2.4-0.5-3.6c-0.6-2.8-1.7-5.2-3.3-6.9c-1.6-1.8-3.5-2.7-5.6-2.7
	c-2.4,0-4.3,1-5.6,3C698.5,62.8,697.8,64.9,697.8,67.4z"/>
<path class="st1" d="M701.5,112c-4.4,0-8.4-0.6-11.7-1.7c-6.8-2.1-8.2-6.1-8.2-9c0-2,0.6-4.1,1.8-6.1c1.4-2.1,3.1-3.3,5.1-3.8
	c-3.7-1.8-6.9-4.7-9.7-8.6c-4.4-6.3-6.6-13.4-6.6-21.1c0-0.6,0-1.2,0-1.8c-0.1,0.4-0.1,0.8-0.2,1.2l-5.8,25
	c-0.6,2.7-1.8,4.9-3.7,6.5c-1.9,1.7-4.2,2.5-6.8,2.5c-0.8,0-1.7-0.1-2.5-0.3c-2.5-0.6-4.5-1.9-6-3.8c-1.5-1.9-2.2-4.2-2.2-6.7
	c0-1,0.1-2,0.3-3l5.3-22.7c0.2-0.7,0.2-1.3,0.2-1.9c0-1.3-0.4-2.3-1.3-3c-1-0.9-2.2-1.3-3.6-1.3c-1.5,0-3.4,0.5-4.2,4.1l-5.2,22.7
	c-0.6,2.7-1.9,4.8-3.8,6.5c-1.9,1.7-4.2,2.6-6.7,2.6c-0.9,0-1.8-0.1-2.6-0.3c-2.5-0.6-4.5-1.9-6-3.8c-1.4-1.9-2.2-4.1-2.2-6.7
	c0-1,0.1-2.1,0.3-3.1l8-34.7c0.6-2.7,1.9-4.9,3.8-6.5c1.9-1.7,4.2-2.5,6.7-2.5c4,0,7,1.5,8.9,4.3c3.5-1.2,7.5-1.4,12.3-0.2
	c5.2,1.2,9.5,3.7,12.6,7.3c3.2,3.7,4.9,8.2,4.9,13.4c0,0.3,0,0.6,0,1c0.7-4.3,2.1-8.2,4.4-11.6c3.5-5.3,8.5-8.7,14.7-10.2
	c1.5-0.3,3-0.5,4.6-0.5c2.6,0,5.1,0.4,7.3,1.3c1.4-2.3,3.7-3.8,6.7-4.5c0.9-0.2,1.7-0.3,2.5-0.3c2.6,0,4.9,0.9,6.8,2.6
	c1.9,1.7,3.1,3.9,3.7,6.5l8.7,37.6c0.6,2.6,1,5.3,1,7.8c0,6.7-2.2,12.5-6.5,17c-4.2,4.5-9.9,7.6-17.1,9.2
	C707.3,111.8,704.6,112,701.5,112z M691.7,94.6c-0.8,0-1.5,0.1-2.2,0.2c-1.2,0.3-2.2,1-3.1,2.3c-0.8,1.4-1.3,2.8-1.3,4.2
	c0,0.9,0,3.8,5.8,5.7c3,1,6.5,1.5,10.6,1.5c2.9,0,5.3-0.2,7.1-0.7c6.5-1.5,11.7-4.2,15.4-8.2c3.7-4,5.6-8.8,5.6-14.7
	c0-2.3-0.3-4.6-0.9-7l-8.7-37.6c-0.4-2-1.3-3.5-2.6-4.6c-1.3-1.1-2.8-1.7-4.5-1.7c-0.5,0-1.1,0.1-1.7,0.2c-2.6,0.6-4.3,1.9-5.1,4
	l-0.7,1.8l-1.7-0.9c-2.1-1.1-4.5-1.7-7.2-1.7c-1.3,0-2.6,0.1-3.8,0.4c-5.4,1.3-9.5,4.1-12.5,8.7c-2.8,4.3-4.2,9.3-4.2,15.1
	c0,7,2,13.4,6,19.1c4.4,6.2,9.7,9.3,16.4,9.3c1.6,0,3.3-0.2,5-0.5c4.1-0.9,7.1-2.6,9-4.9l3.2-3.8l-0.1,4.9c-0.1,3.4-1.6,7.7-8.5,9.3
	c-1.4,0.3-2.9,0.5-4.5,0.5c-1.5,0-3.4-0.2-5.8-0.6C694.1,94.8,692.6,94.6,691.7,94.6z M645.9,49c2.3,0,4.2,0.7,5.9,2.1
	c1.7,1.3,2.6,3.3,2.6,5.7c0,0.9-0.1,1.8-0.3,2.7L648.7,82c-0.2,0.8-0.2,1.5-0.2,2.3c0,1.8,0.5,3.3,1.5,4.6c1,1.3,2.3,2.1,4,2.5l0,0
	c0.6,0.1,1.2,0.2,1.7,0.2c1.7,0,3.2-0.6,4.5-1.7c1.3-1.1,2.2-2.6,2.6-4.6l5.8-25c0.3-1.7,0.5-3.4,0.5-5c0-4.4-1.3-8-4-11.1
	c-2.7-3.1-6.3-5.2-10.7-6.2c-4.7-1.1-8.4-0.9-11.4,0.6l-1.6,0.8l-0.8-1.6c-1.2-2.5-3.3-3.7-6.6-3.7c-1.7,0-3.1,0.6-4.4,1.7
	c-1.4,1.1-2.2,2.7-2.7,4.7l-8,34.6c-0.2,0.7-0.2,1.5-0.2,2.3c0,1.8,0.5,3.3,1.5,4.6c0.9,1.3,2.3,2.1,4,2.5c0.6,0.2,1.2,0.2,1.7,0.2
	c1.7,0,3.1-0.6,4.4-1.7c1.3-1.2,2.2-2.7,2.7-4.7l5.2-22.7C639.6,50.1,643.1,49,645.9,49z M206.5,95.2c-0.8,0-1.7-0.1-2.5-0.3
	c-2.5-0.6-4.5-1.9-6-3.8c-1.5-1.9-2.2-4.2-2.2-6.7c0-1,0.1-2,0.3-3l5.3-22.7c0.2-0.7,0.2-1.3,0.2-1.9c0-1.3-0.4-2.3-1.3-3
	c-1-0.9-2.2-1.3-3.6-1.3c-1.5,0-3.4,0.5-4.2,4.1l-5.2,22.7c-0.6,2.7-1.9,4.8-3.8,6.5c-1.9,1.7-4.2,2.6-6.7,2.6
	c-0.9,0-1.8-0.1-2.6-0.3c-2.5-0.6-4.5-1.9-6-3.8c-1.1-1.4-1.8-3-2-4.8c-0.5,4.3-3.2,7.1-8,8.1c-0.9,0.2-1.9,0.3-2.8,0.3
	c-1.9,0-3.7-0.6-5.2-1.6c-2.7,3.1-6.2,5.2-10.4,6.1c-1.9,0.5-3.8,0.7-5.8,0.7c-6.2,0-11.8-2.2-16.7-6.6c-4.8-4.4-8-10.2-9.7-17.2
	c-0.6-2.6-0.9-5.2-0.9-7.8c0-6.6,1.8-12.4,5.3-17.4c3.6-5.1,8.4-8.4,14.3-9.8c4.3-1,8.5-0.7,12.2,0.8c1.4-2.3,3.6-3.9,6.5-4.6l0.1,0
	c1.1-0.2,2.1-0.3,3.1-0.3c3.4,0,7.9,1.8,9.9,10.4l7.4,32.2c0.3,1.2,0.4,2.2,0.6,3.2c0.1-0.5,0.1-1,0.2-1.5l8-34.7
	c0.6-2.7,1.9-4.9,3.8-6.5c1.9-1.7,4.2-2.5,6.7-2.5c4,0,7,1.5,8.9,4.3c3.5-1.2,7.5-1.4,12.3-0.2c5.2,1.2,9.5,3.7,12.6,7.3
	c3.2,3.7,4.9,8.2,4.9,13.4c0,1.8-0.2,3.8-0.6,5.7l-5.8,25c-0.6,2.7-1.8,4.9-3.7,6.5C211.4,94.3,209.1,95.2,206.5,95.2z M196.7,49
	c2.3,0,4.2,0.7,5.9,2.1c1.7,1.3,2.6,3.3,2.6,5.7c0,0.9-0.1,1.8-0.3,2.7L199.5,82c-0.1,0.8-0.2,1.5-0.2,2.3c0,1.8,0.5,3.3,1.5,4.6
	c1,1.3,2.3,2.1,4,2.5l0,0c0.6,0.1,1.2,0.2,1.7,0.2c1.7,0,3.2-0.6,4.5-1.7c1.3-1.1,2.2-2.6,2.6-4.6l5.8-25c0.3-1.7,0.5-3.4,0.5-5
	c0-4.4-1.3-8-4-11.1c-2.7-3.1-6.3-5.2-10.7-6.2c-4.7-1.1-8.4-0.8-11.4,0.6l-1.6,0.8l-0.8-1.6c-1.2-2.5-3.3-3.7-6.6-3.7
	c-1.7,0-3.1,0.6-4.4,1.7c-1.4,1.1-2.2,2.7-2.7,4.7l-8,34.6c-0.2,0.7-0.2,1.5-0.2,2.3c0,1.8,0.5,3.3,1.5,4.6c1,1.3,2.3,2.1,4,2.5
	c0.6,0.2,1.2,0.2,1.7,0.2c1.7,0,3.1-0.6,4.4-1.7c1.3-1.2,2.2-2.7,2.7-4.7l5.2-22.7C190.4,50.1,193.9,49,196.7,49z M131.2,37.2
	c-1.3,0-2.7,0.2-4.1,0.5c-5.1,1.2-9.1,3.9-12.2,8.4c-3.1,4.4-4.7,9.6-4.7,15.4c0,2.3,0.3,4.7,0.8,7c1.5,6.3,4.4,11.5,8.6,15.4
	c4.3,3.8,9,5.7,14.4,5.7c1.6,0,3.3-0.2,5-0.6c4-0.9,7.1-3,9.6-6.3l1.2-1.7l1.4,1.5c1.2,1.3,2.6,1.9,4.2,1.9c0.7,0,1.3-0.1,2-0.2l0,0
	c3.7-0.8,5.3-2.7,5.3-6.1c0-1.2-0.2-2.7-0.6-4.5l-7.4-32.1c-1.8-7.7-5.4-7.7-6.5-7.7c-0.7,0-1.5,0.1-2.4,0.2c-2.4,0.6-4,2-4.9,4.1
	l-0.7,1.8l-1.7-0.9C136.3,37.8,133.8,37.2,131.2,37.2z M54.1,94.6c-2.4,0-4.6-0.8-6.5-2.2c-2.3-1.8-3.7-4.4-4.1-7.7l-6.4-52.2
	C37,31.8,37,31.2,37,30.7c0-2.9,0.9-5.4,2.7-7.3c1.7-2,4.1-3.2,7-3.5c3.1-0.4,5.9,0.4,8.2,2.2c2.3,1.7,3.7,4.3,4.1,7.7l1.9,15.5
	l20.8-2.5l-1.9-15.5c-0.1-0.6-0.1-1.1-0.1-1.7c0-3,0.9-5.5,2.7-7.4c1.8-2,4.2-3.1,7-3.4c3.1-0.4,5.8,0.3,8.1,2.1
	c2.3,1.7,3.7,4.3,4.2,7.7l6.4,52.2c0.1,0.6,0.1,1.2,0.1,1.8c0,2.9-0.9,5.4-2.7,7.4c-1.8,1.9-4.1,3.1-7,3.4l0,0
	c-3.1,0.4-5.9-0.3-8.2-2.1c-2.3-1.9-3.7-4.5-4-7.8l-2-16l-20.8,2.5l2,16c0.1,0.6,0.1,1.1,0.1,1.7c0,3-0.9,5.5-2.8,7.4
	c-1.7,1.9-4.1,3.1-6.9,3.4C55.2,94.6,54.6,94.6,54.1,94.6z M48.2,23.3c-0.4,0-0.7,0-1.1,0.1c-2,0.3-3.6,1-4.8,2.4
	c-1.2,1.3-1.8,2.9-1.8,5c0,0.4,0,0.9,0.1,1.4L47,84.2c0.3,2.4,1.2,4.2,2.8,5.4c1.6,1.3,3.4,1.7,5.6,1.4c2-0.2,3.6-1,4.8-2.3
	c1.3-1.3,1.9-3,1.9-5c0-0.4,0-0.8-0.1-1.3l-2.4-19.5l27.7-3.4L89.7,79c0.3,2.4,1.1,4.2,2.7,5.4c1.6,1.2,3.4,1.6,5.6,1.4
	c2.1-0.3,3.6-1,4.9-2.3c1.2-1.3,1.8-3,1.8-5c0-0.4,0-0.9-0.1-1.4L98.2,25c-0.3-2.4-1.2-4.2-2.8-5.4c-1.6-1.3-3.4-1.7-5.6-1.4
	c-2.1,0.2-3.6,1-4.9,2.3c-1.2,1.3-1.8,2.9-1.8,5c0,0.4,0,0.8,0.1,1.3l2.3,19l-27.7,3.4l-2.3-19c-0.3-2.4-1.2-4.1-2.7-5.3
	C51.4,23.8,49.9,23.3,48.2,23.3z M267.7,93.6c-0.3,0-0.6,0-0.9,0l0,0c-3.2-0.3-5.6-1.5-7.3-3.6c-3.4,2-7.3,2.8-11.5,2.5
	c-7.2-0.7-13.1-4-17.5-9.9c-4-5.3-6.1-11.6-6.1-18.7c0-7.8,2.2-14.8,6.6-20.8c5-6.7,11.4-10.2,19.3-10.2c3.9,0,7.5,0.8,10.8,2.4
	l1-11c0.3-3.2,1.5-5.8,3.6-7.8c2.2-2.1,5-3,8.1-2.7c3.1,0.2,5.6,1.6,7.4,4c1.8,2.3,2.6,5.1,2.3,8.3l-5,56.8
	c-0.3,3.2-1.5,5.9-3.7,7.8C272.8,92.7,270.4,93.6,267.7,93.6z M267.1,90.1c2.1,0.1,3.8-0.5,5.2-1.8c1.6-1.4,2.4-3.2,2.6-5.6l5-56.8
	c0.2-2.3-0.3-4.3-1.6-5.9c-1.2-1.7-2.8-2.5-4.9-2.7c-2.2-0.2-4,0.4-5.4,1.8c-1.5,1.4-2.3,3.2-2.5,5.5l-1.5,16.6l-2.4-1.6
	c-3.3-2.2-7.2-3.2-11.4-3.2c-6.8,0-12.1,2.9-16.5,8.7c-4,5.4-6,11.6-6,18.7c0,6.3,1.8,11.9,5.4,16.6c3.8,5.1,8.7,7.9,15,8.5
	c4.1,0.3,7.6-0.6,10.7-2.8l1.6-1.2l1,1.7C262.5,88.7,264.4,89.8,267.1,90.1z M348.9,92.6c-0.4,0-0.8,0-1.1,0l0,0l-23.1-2
	c-3.4-0.3-6-1.6-7.9-4c-1.8-2.3-2.6-5.2-2.3-8.6l4.4-51.5c0.3-3.3,1.6-5.9,3.9-7.8c2.3-1.9,5-2.7,8.1-2.4c3.1,0.2,5.7,1.5,7.6,3.8
	c1.9,2.2,2.7,5,2.4,8.4l-3.7,42.3l12.3,1.1c3.1,0.3,5.6,1.5,7.3,3.5c1.7,1.9,2.5,4.2,2.5,6.8c0,3-1,5.5-3,7.6
	C354.4,91.6,351.9,92.6,348.9,92.6z M348.1,89.1c2.4,0.2,4.3-0.4,5.8-2c1.4-1.4,2-3.1,2-5.2c0-1.7-0.6-3.2-1.7-4.5
	c-1.1-1.3-2.8-2.1-5-2.3l-15.8-1.4l4-45.8c0.2-2.4-0.3-4.3-1.6-5.8c-1.3-1.6-3-2.4-5.2-2.6c-2.2-0.2-4.1,0.3-5.6,1.6
	c-1.6,1.3-2.4,3-2.6,5.4L318,78.2c-0.2,2.5,0.3,4.6,1.6,6.2c1.2,1.6,3,2.5,5.4,2.7L348.1,89.1z M519.7,92.6
	c-6.1,0-11.7-1.9-16.5-5.5c-4.8-3.7-8.3-8.7-10.4-14.9c-1.2-3.3-1.8-6.8-1.8-10.4c0-3.1,0.4-6,1.2-8.8c-1.7,2.4-4.4,3.7-7.9,3.7
	c-0.8,0-1.7-0.1-2.6-0.3l-6,26c-0.6,2.7-1.9,4.9-3.8,6.6c-2.5,2.1-5.6,2.9-9.2,2.3l-0.1,0c-2.5-0.6-4.5-1.9-6-3.8
	c-1.5-2-2.2-4.3-2.2-6.8c0-1,0.1-2,0.3-3l6.1-26.1c-2.8-0.9-4.7-2.4-5.8-4.7c0,0.6-0.1,1.3-0.2,2l0,0.1c-1.2,5-4.5,7.6-9.6,7.6
	c-0.8,0-1.7-0.1-2.6-0.3l-6,26c-0.6,2.7-1.9,4.9-3.8,6.6c-2.5,2.1-5.6,2.9-9.2,2.3l-0.1,0c-2.5-0.6-4.5-1.9-6-3.8
	c-1.5-2-2.2-4.3-2.2-6.8c0-1,0.1-2,0.3-3l6.1-26.1c-4.4-1.4-6.7-4.5-6.7-9c0-0.9,0.1-1.8,0.3-2.6c0.5-2.3,1.7-4.1,3.4-5.5
	c1.8-1.4,3.8-2.1,6.1-2.1c0.4,0,0.9,0,1.3,0.1l0.9-3.9c0.6-2.6,1.9-4.8,3.7-6.4c2-1.7,4.2-2.6,6.8-2.6c0.8,0,1.7,0.1,2.6,0.3
	c2.5,0.6,4.6,1.9,6,3.8c1.4,1.9,2.2,4.2,2.2,6.8c0,1-0.1,2-0.3,3L447,37c4,1,6.1,2.9,7.1,5.1c0-0.8,0.1-1.5,0.3-2.3
	c0.5-2.3,1.7-4.1,3.4-5.5c1.8-1.4,3.8-2.1,6.1-2.1c0.4,0,0.9,0,1.3,0.1l0.9-3.9c0.6-2.6,1.9-4.8,3.7-6.4c2-1.7,4.2-2.6,6.8-2.6
	c0.8,0,1.7,0.1,2.6,0.3c2.5,0.6,4.6,1.9,6,3.8c1.4,1.9,2.2,4.2,2.2,6.8c0,1-0.1,2-0.3,3l-0.9,3.8c6.6,1.6,8,6,8,9.3
	c0,0.6,0,1.3-0.1,2c0.5-1,1-1.9,1.6-2.8c3.4-5.1,8-8.7,13.8-10.7c2.9-1,5.9-1.5,8.8-1.5c6,0,11.7,2,16.9,5.8
	c4.9,3.6,8.3,8.1,10.1,13.3c0.5,1.4,0.7,2.8,0.7,4.1c0,1.7-0.4,3.7-2,5.5c1,0.5,2,1.1,2.8,2c2,1.9,3,4.1,3,6.7c0,3.9-2.3,8-6.9,12.1
	c-3.9,3.7-8.3,6.3-13,8C526.5,92,523.1,92.6,519.7,92.6z M518.2,36.8c-2.6,0-5.2,0.4-7.7,1.3c-5,1.7-9.1,4.8-12,9.3
	c-2.7,4.2-4.1,9-4.1,14.3c0,3.2,0.5,6.3,1.6,9.2c1.9,5.6,5,10,9.2,13.3c4.2,3.2,9.1,4.8,14.4,4.8c3,0,6.1-0.5,9.1-1.6
	c4.3-1.5,8.2-3.9,11.8-7.2c3.8-3.5,5.7-6.7,5.7-9.6c0-1.6-0.6-3-1.9-4.2c-1.3-1.2-2.7-1.8-4.3-1.8c-0.3,0.1-0.6,0.2-1,0.4l-2.2,0.8
	c-0.8,0.6-2,1.7-3.6,3.5c-2.7,3-5.2,4.8-7.6,5.7c-1.7,0.6-3.4,0.9-5,0.9c-3,0-5.5-1-7.4-2.9l-2-2l24-8.3c0.7-0.5,1.2-0.8,1.8-1
	c0.8-0.3,1.5-0.4,2.2-0.5c2.8-1.4,3.2-3.3,3.2-4.7c0-0.9-0.2-1.9-0.5-2.9c-1.5-4.6-4.5-8.5-8.8-11.7
	C528.4,38.5,523.4,36.8,518.2,36.8z M463.3,87.7c2.6,0.4,4.6,0,6.3-1.5c1.3-1.2,2.2-2.7,2.7-4.7l6.8-29.5l3.1,0.8
	c0.7,0.2,1.4,0.2,2.1,0.2c3.4,0,5.3-1.5,6.2-4.9c0.1-0.7,0.2-1.3,0.2-1.9c0-3.3-1.7-5.1-5.5-6l-3.2-0.6l1.7-7.3
	c0.2-0.7,0.2-1.5,0.2-2.2c0-1.8-0.5-3.4-1.5-4.7c-1-1.3-2.3-2.1-4-2.5c-0.6-0.2-1.2-0.2-1.7-0.2c-1.7,0-3.2,0.6-4.5,1.7
	c-1.3,1.2-2.1,2.7-2.6,4.7l-1.7,7.3l-2.3-0.7c-0.5-0.1-1-0.1-1.5-0.1c-1.5,0-2.7,0.5-3.9,1.4c-1.1,0.9-1.8,2-2.2,3.6
	c-0.2,0.6-0.2,1.2-0.2,1.8c0,3.2,1.5,5.1,5,5.9l2.5,0.4l-6.9,29.7c-0.2,0.7-0.2,1.5-0.2,2.2c0,1.8,0.5,3.3,1.5,4.7
	C460.4,86.5,461.7,87.3,463.3,87.7z M424.2,87.7c2.6,0.4,4.6,0,6.3-1.5c1.3-1.2,2.2-2.7,2.7-4.7l6.8-29.5l3.1,0.8
	c0.7,0.2,1.4,0.2,2.1,0.2c3.4,0,5.3-1.5,6.2-4.9c0.1-0.7,0.2-1.3,0.2-1.9c0-3.3-1.7-5.1-5.5-6l-3.2-0.6l1.7-7.3
	c0.2-0.7,0.2-1.5,0.2-2.2c0-1.8-0.5-3.4-1.5-4.7c-1-1.3-2.3-2.1-4-2.5c-0.6-0.2-1.2-0.2-1.7-0.2c-1.7,0-3.2,0.6-4.5,1.7
	c-1.3,1.2-2.1,2.7-2.6,4.7l-1.7,7.3l-2.3-0.7c-0.5-0.1-1-0.1-1.5-0.1c-1.5,0-2.7,0.5-3.9,1.4c-1.1,0.9-1.8,2-2.2,3.6
	c-0.2,0.6-0.2,1.2-0.2,1.8c0,3.2,1.5,5.1,5,5.9l2.5,0.4L419,78.3c-0.2,0.7-0.2,1.5-0.2,2.2c0,1.8,0.5,3.3,1.5,4.7
	C421.3,86.5,422.6,87.3,424.2,87.7z M518.6,72.1c1.7,0.4,3.7,0.3,5.9-0.5c1.4-0.5,3-1.6,4.7-3.2L518.6,72.1z M384.9,92.6
	c-6.1,0-11.7-1.9-16.5-5.5c-4.8-3.7-8.3-8.7-10.4-14.9c-1.2-3.3-1.8-6.8-1.8-10.4c0-6,1.6-11.5,4.6-16.2c3.4-5.1,8-8.7,13.8-10.7
	c2.9-1,5.9-1.5,8.8-1.5c6,0,11.7,2,16.9,5.8c4.9,3.6,8.3,8.1,10.1,13.3c0.5,1.4,0.7,2.8,0.7,4.1c0,1.7-0.4,3.7-2,5.5
	c1,0.5,2,1.1,2.8,2c2,1.9,3,4.1,3,6.7c0,3.9-2.3,8-6.9,12.1c-3.9,3.7-8.3,6.3-13,8C391.7,92,388.3,92.6,384.9,92.6z M383.4,36.8
	c-2.6,0-5.2,0.4-7.7,1.3c-5,1.7-9.1,4.8-12,9.3c-2.7,4.2-4.1,9-4.1,14.3c0,3.2,0.5,6.3,1.6,9.2c1.9,5.6,5,10,9.2,13.3
	c4.2,3.2,9.1,4.8,14.4,4.8c3,0,6.1-0.5,9.1-1.6c4.3-1.5,8.2-3.9,11.8-7.2c3.8-3.5,5.7-6.7,5.7-9.6c0-1.6-0.6-3-1.9-4.2
	c-1.3-1.2-2.7-1.8-4.3-1.8c-0.3,0.1-0.6,0.2-1,0.4l-2.2,0.8c-0.8,0.6-2,1.7-3.6,3.5c-2.7,3-5.2,4.8-7.6,5.7c-1.7,0.6-3.4,0.9-5,0.9
	c-3,0-5.5-1-7.4-2.9l-2-2l24-8.3c0.6-0.5,1.2-0.8,1.8-1c0.8-0.3,1.5-0.4,2.2-0.5c2.8-1.4,3.2-3.3,3.2-4.7c0-0.9-0.2-1.9-0.6-2.9
	c-1.5-4.6-4.5-8.5-8.8-11.7C393.7,38.5,388.7,36.8,383.4,36.8z M383.8,72.1c1.7,0.4,3.7,0.3,5.9-0.5c1.4-0.5,3-1.6,4.7-3.2
	L383.8,72.1z M604.3,92.1c-2.8,0-5.2-1-7.2-2.9c-2-2-3.1-4.7-3.3-7.9L592,45.7c-0.2-3.2,0.6-6,2.4-8.2c0.6-0.7,1.3-1.4,2-1.9
	c-0.9-0.5-1.7-1.1-2.5-1.8c-2.4-2.2-3.7-4.9-3.9-8c-0.1-3,0.9-5.8,3-8.2c2.2-2.4,4.9-3.7,8-3.8c3-0.2,5.8,0.8,8.2,3
	c2.4,2.1,3.8,4.7,3.9,7.8c0.1,3.2-0.8,6-2.9,8.4c-0.7,0.8-1.5,1.5-2.4,2.1c0.8,0.5,1.5,1,2.1,1.7c2.1,2,3.2,4.7,3.4,7.9l1.9,35.6
	c0.1,3.2-0.7,6-2.6,8.3c-1.8,2.3-4.4,3.5-7.5,3.7C604.9,92.1,604.6,92.1,604.3,92.1z M602.7,37.2c-0.1,0-0.3,0-0.4,0
	c-2.1,0.1-3.8,1-5.1,2.5c-1.2,1.5-1.8,3.5-1.6,5.8l1.9,35.6c0.1,2.4,0.8,4.2,2.3,5.6c1.4,1.4,3.2,2.1,5.3,1.9l0,0
	c2.2-0.1,3.8-0.9,5-2.4c1.3-1.6,1.9-3.5,1.8-5.9l-1.9-35.6c-0.1-2.4-0.9-4.2-2.3-5.6C606.2,37.8,604.6,37.2,602.7,37.2z M601.9,17.2
	c-0.2,0-0.4,0-0.6,0c-2.2,0.1-4,1-5.6,2.7c-1.5,1.7-2.2,3.5-2.1,5.6c0.2,2.2,1.1,4,2.8,5.7c1.7,1.6,3.6,2.3,5.7,2.1l0,0
	c2.2-0.1,4-1,5.5-2.6c1.5-1.7,2.2-3.7,2.1-6c-0.1-2.1-1-3.8-2.7-5.3C605.4,17.9,603.7,17.2,601.9,17.2z M561.9,91.6
	c-0.3,0-0.6,0-0.9,0c-3.1-0.2-5.6-1.5-7.4-3.8c-1.8-2.3-2.6-5.1-2.4-8.3l2.5-36.2c0.3-3.4,1.7-6,4.2-7.9c2.2-1.6,4.7-2.3,7.5-2.1
	c3.3,0.2,5.9,1.3,7.6,3.1c2.2-1.6,5-2.3,8.4-2c2.8,0.2,5.2,1.3,7,3.3c2,2.3,2.9,5.2,2.7,8.5c-0.2,3.3-2.1,6-5.5,7.6l-0.2,0.1
	l-7.9,2.8c-2.9,1.3-3.4,2.8-3.4,3.9l-1.4,20.4c-0.3,3.2-1.5,5.9-3.6,7.9C567.1,90.6,564.7,91.6,561.9,91.6z M564.4,36.7
	c-1.7,0-3.1,0.5-4.4,1.5c-1.7,1.2-2.6,3-2.8,5.3l-2.5,36.2c-0.2,2.4,0.4,4.3,1.7,5.9c1.2,1.5,2.8,2.3,5,2.5c2.2,0.1,3.9-0.4,5.3-1.8
	c1.5-1.4,2.3-3.3,2.5-5.7l1.4-20.3c0.2-2.1,1.3-5,5.6-6.9l0.1,0l7.9-2.7c2.2-1.1,3.3-2.6,3.5-4.6c0.2-2.4-0.4-4.4-1.8-6
	c-1.2-1.3-2.7-2-4.7-2.2c-3.2-0.2-5.6,0.5-7.2,2.3l-1.7,1.8l-1.2-2.2c-1-1.9-3-2.9-6-3.1C564.9,36.7,564.6,36.7,564.4,36.7z
	 M701,76.1c-3.6,0-8.4-1.9-10.4-10.8c-0.3-1.3-0.5-2.6-0.5-3.9c0-2.8,0.7-5.3,2.2-7.3c1.6-2.4,4-3.7,7-3.7c2.6,0,4.9,1.1,6.9,3.3
	c1.8,2,3.1,4.6,3.7,7.7c0.3,1.3,0.5,2.7,0.5,4c0,2.9-0.7,5.4-2.2,7.3C706.4,74.9,704,76.1,701,76.1z M699.2,53.8
	c-1.8,0-3.1,0.7-4.1,2.2c-1.1,1.5-1.6,3.2-1.6,5.3c0,1,0.1,2,0.4,3.1c1.8,8.1,5.7,8.1,7,8.1c1.9,0,3.3-0.7,4.4-2.1
	c1-1.3,1.5-3,1.5-5.1c0-1-0.1-2.1-0.4-3.2c-0.6-2.6-1.5-4.6-2.9-6.2C702.2,54.5,700.8,53.8,699.2,53.8z M252,75.8
	c-0.3,0-0.6,0-0.9,0c-2.9-0.2-5.4-1.9-6.9-4.8c-1.4-2.5-2.1-5.5-1.8-8.8c0.3-3.5,1.5-6.4,3.4-8.7c2-2.5,4.6-3.7,7.6-3.5l0,0
	c3,0.3,5.4,1.8,7,4.5c1.5,2.5,2.1,5.5,1.7,8.9c-0.3,3.6-1.4,6.6-3.2,9C257,74.6,254.7,75.8,252,75.8z M252.6,53.4
	c-1.6,0-3,0.7-4.2,2.2c-1.5,1.8-2.3,4-2.6,6.8c-0.2,2.7,0.2,4.9,1.3,6.8c1,1.9,2.4,2.9,4.2,3c1.9,0.2,3.4-0.5,4.7-2.1
	c1.4-1.8,2.3-4.2,2.5-7.1c0.3-2.7-0.1-5-1.2-6.8c-1-1.7-2.4-2.6-4.3-2.8C252.9,53.5,252.8,53.4,252.6,53.4z M135.7,75.8
	c-2.6,0-4.9-1.1-6.8-3.2c-1.8-1.9-3.1-4.4-3.8-7.4c-0.3-1.5-0.4-2.9-0.4-4.2c0-2.9,0.7-5.4,2.2-7.5c1.6-2.3,4-3.5,7-3.5
	c2.5,0,4.8,1.1,6.8,3.3c1.8,1.9,3.1,4.4,3.7,7.5c0.3,1.4,0.5,2.8,0.5,4.1c0,2.9-0.7,5.4-2.2,7.3C141.1,74.5,138.7,75.8,135.7,75.8z
	 M133.8,53.6c-1.8,0-3.2,0.6-4.1,2c-1,1.5-1.5,3.3-1.5,5.5c0,1.1,0.1,2.3,0.3,3.5c0.5,2.3,1.5,4.2,2.9,5.7c1.3,1.4,2.7,2,4.3,2
	c1.8,0,3.1-0.7,4.1-2.1c1.1-1.4,1.6-3.1,1.6-5.3c0-1-0.1-2.1-0.4-3.3c-0.5-2.4-1.5-4.4-2.9-5.9C136.7,54.3,135.4,53.6,133.8,53.6z
	 M373.1,61.5l0-2.5c0.1-4.7,2.4-7.9,6.6-9.4l0,0c1.2-0.4,2.3-0.5,3.4-0.5c3,0,5.6,1.3,7.6,3.9l1.5,1.9L373.1,61.5z M380.9,52.9
	c-2,0.7-3.2,1.8-3.8,3.5l9-3.1C384.6,52.4,382.9,52.3,380.9,52.9z M507.9,61.5l0-2.5c0.1-4.7,2.4-7.9,6.6-9.4l0,0
	c1.2-0.4,2.3-0.5,3.4-0.5c3,0,5.6,1.3,7.6,3.9l1.5,1.9L507.9,61.5z M515.7,52.9c-2,0.7-3.2,1.8-3.8,3.5l9-3.1
	C519.4,52.4,517.6,52.3,515.7,52.9z"/>
<path class="st2" d="M1.6,51.8l-1.6-6l9.6-2.6l-1.4-7c-0.6-3.2,1.4-6.4,4.6-7.3l6.8-1.8l-1.4-6.9c-0.7-3.2,1.3-6.4,4.4-7.3l6.9-1.9
	l-2.1-9.8L33.6,0l2.1,9.8c0.7,3.2-1.3,6.4-4.4,7.3L24.3,19l1.4,6.9c0.7,3.3-1.3,6.5-4.5,7.3L14.4,35l1.4,7c0.6,3.2-1.3,6.4-4.5,7.2
	L1.6,51.8z"/>
<path class="st3" d="M761.1,121.8c-1.4,0-2.7-0.1-4.1-0.4c-3.5-0.8-6.7-2.5-9.2-5c-2.5-2.5-4.3-5.7-5.1-9.1c-0.8-3.5-0.6-7,0.7-10.4
	c1.2-3.3,3.4-6.2,6.2-8.4c2.8-2.2,6.2-3.5,9.8-3.8c0.9-0.1,1.7,0.4,2.1,1.1c0.4,0.8,0.4,1.7-0.2,2.4c-1.5,2-2.3,4.5-2.1,7.1
	c0.2,2.5,1.3,4.9,3.1,6.7c1.8,1.8,4.2,2.9,6.8,3.1c2.6,0.2,5.1-0.5,7.2-2c0.7-0.5,1.6-0.6,2.4-0.1c0.7,0.4,1.2,1.2,1.1,2.1
	c-0.3,3.5-1.7,6.9-3.9,9.7c-2.2,2.8-5.1,4.9-8.5,6.1C765.4,121.5,763.2,121.8,761.1,121.8z M755.5,90.1c-1.2,0.5-2.3,1.1-3.3,1.9
	c-2.2,1.7-3.8,3.9-4.7,6.4c-0.9,2.5-1.1,5.3-0.5,7.9c0.6,2.6,1.9,5,3.9,7c1.9,1.9,4.4,3.2,7.1,3.8c2.7,0.6,5.5,0.4,8.1-0.5
	c2.6-0.9,4.8-2.5,6.5-4.7c0.8-1,1.4-2,1.9-3.1c-1.8,0.5-3.7,0.8-5.6,0.6c-3.6-0.3-7-1.8-9.6-4.3c-2.6-2.5-4.1-5.9-4.4-9.5
	C754.7,93.7,754.9,91.9,755.5,90.1z"/>
</svg>
