<?xml version="1.0" encoding="utf-8"?>
<!-- Generator: Adobe Illustrator 27.9.0, SVG Export Plug-In . SVG Version: 6.00 Build 0)  -->
<svg version="1.1" id="Layer_1" xmlns="http://www.w3.org/2000/svg" xmlns:xlink="http://www.w3.org/1999/xlink" x="0px" y="0px"
	 viewBox="0 0 779.9 121.8" style="enable-background:new 0 0 779.9 121.8;" xml:space="preserve">
<style type="text/css">
	.st0{fill:#E8DFF5;}
	.st1{fill:#FFAFCC;}
	.st2{fill:#FCE1E4;}
	.st3{fill:#CDB4DB;}
</style>
<g>
	<path class="st0" d="M107.1,89.5c-2.7,0.3-5-0.3-6.9-1.8s-3-3.7-3.3-6.6l-2.2-17.8l-24.3,3l2.2,17.8c0.1,0.5,0.1,1,0.1,1.5
		c0,2.5-0.8,4.6-2.3,6.2c-1.5,1.7-3.4,2.6-5.8,2.9c-2.7,0.4-5-0.2-6.9-1.8c-1.9-1.5-3.1-3.7-3.4-6.6l-6.4-52.2
		c-0.1-0.6-0.1-1.1-0.1-1.6c0-2.5,0.7-4.5,2.2-6.1c1.5-1.7,3.5-2.7,5.9-3c2.7-0.3,4.9,0.3,6.9,1.9c2,1.5,3.1,3.6,3.4,6.5L68.2,49
		l24.3-3l-2.2-17.1c-0.1-0.5-0.1-1-0.1-1.5c0-2.5,0.7-4.6,2.2-6.2c1.5-1.7,3.5-2.6,5.9-2.9c2.7-0.4,4.9,0.2,6.9,1.8
		c2,1.5,3.2,3.7,3.5,6.6l6.4,52.2c0.1,0.6,0.1,1.1,0.1,1.6c0,2.5-0.7,4.5-2.2,6.2C111.6,88.2,109.6,89.2,107.1,89.5z M166.7,87.7
		c-0.8,0.2-1.6,0.3-2.4,0.3c-2.1,0-3.9-0.8-5.5-2.4c-2.7,3.6-6.2,6-10.6,6.9c-1.8,0.4-3.6,0.6-5.4,0.6c-5.8,0-11-2-15.6-6.1
		c-4.5-4.1-7.6-9.6-9.2-16.3c-0.6-2.5-0.8-4.9-0.8-7.4c0-6.2,1.7-11.7,5-16.4c3.3-4.8,7.8-7.8,13.2-9.1c1.5-0.4,3.1-0.6,4.5-0.6
		c2.9,0,5.6,0.6,8.1,1.9c1.1-2.7,3.1-4.4,6.1-5.2c1-0.2,1.9-0.3,2.8-0.3c4.1,0,6.8,3,8.2,9.1l7.4,32.1c0.4,2,0.6,3.6,0.6,4.9
		C173.4,84.1,171.2,86.7,166.7,87.7z M135.2,63c0,1.2,0.1,2.5,0.4,3.8c0.6,2.7,1.7,4.8,3.3,6.6c1.6,1.7,3.5,2.6,5.6,2.6
		c2.4,0,4.3-1,5.6-2.9c1.2-1.7,1.9-3.8,1.9-6.3c0-1.2-0.2-2.4-0.5-3.7c-0.6-2.7-1.7-4.9-3.3-6.7s-3.4-2.7-5.5-2.7
		c-2.4,0-4.3,0.9-5.6,2.8C135.9,58.3,135.2,60.4,135.2,63z M213.2,95c-2.1-0.5-3.8-1.5-5-3.1s-1.9-3.5-1.9-5.7
		c0-0.9,0.1-1.8,0.3-2.7l5.3-22.6c0.2-0.8,0.3-1.6,0.3-2.3c0-1.9-0.6-3.3-1.9-4.4c-1.3-1.1-2.9-1.7-4.7-1.7c-3.1,0-5.1,1.8-5.9,5.5
		l-5.2,22.7c-0.6,2.3-1.6,4.1-3.2,5.6c-1.6,1.4-3.5,2.1-5.6,2.1c-0.7,0-1.5-0.1-2.1-0.3c-2.2-0.5-3.8-1.5-5-3.1s-1.9-3.5-1.9-5.7
		c0-0.9,0.1-1.8,0.3-2.7l8-34.6c0.6-2.3,1.6-4.2,3.2-5.6c1.6-1.4,3.5-2.1,5.6-2.1c4,0,6.7,1.6,8.2,4.7c2-1,4.4-1.5,6.9-1.5
		c1.7,0,3.6,0.2,5.7,0.7c4.9,1.1,8.8,3.4,11.7,6.8c3,3.4,4.4,7.5,4.4,12.2c0,1.7-0.2,3.5-0.6,5.4l-5.8,24.9
		c-0.5,2.3-1.5,4.2-3.1,5.6s-3.5,2.1-5.7,2.1C214.7,95.3,214,95.2,213.2,95z M275.8,93.7c-3.3-0.3-5.6-1.7-7-4.3
		c-3.4,2.5-7.3,3.5-11.9,3.1c-6.7-0.6-12.1-3.7-16.2-9.2c-3.8-5.1-5.7-11-5.7-17.7c0-7.5,2.1-14.1,6.3-19.7
		c4.6-6.3,10.6-9.4,17.9-9.4c4.6,0,8.7,1.2,12.3,3.5l1.2-13.7c0.2-2.8,1.3-5,3.1-6.7c1.9-1.7,4.1-2.5,6.8-2.2
		c2.6,0.2,4.6,1.3,6.1,3.3s2.2,4.4,1.9,7.1l-5,56.8c-0.2,2.8-1.3,5-3.1,6.7C280.6,93.1,278.4,93.9,275.8,93.7z M262.1,53.6
		c-2.4-0.2-4.4,0.8-6.1,2.9c-1.7,2-2.7,4.6-3,7.7c-0.2,3,0.3,5.7,1.6,7.9c1.3,2.4,3.1,3.7,5.6,3.9c2.5,0.2,4.5-0.7,6.2-2.8
		c1.7-2.1,2.6-4.8,2.9-8.1c0.3-3.1-0.2-5.7-1.5-7.9C266.5,55.1,264.6,53.9,262.1,53.6z M356.8,92.7l-23.1-2
		c-2.9-0.2-5.1-1.4-6.7-3.3c-1.5-2-2.2-4.4-1.9-7.4l4.4-51.5c0.2-2.8,1.3-5,3.2-6.6c1.9-1.6,4.2-2.3,6.9-2c2.7,0.2,4.8,1.2,6.4,3.1
		s2.3,4.2,2,7.1l-3.9,44l14.1,1.2c2.7,0.2,4.7,1.2,6.1,2.9c1.4,1.6,2.1,3.5,2.1,5.7c0,2.5-0.8,4.7-2.5,6.4
		C362.1,92.1,359.8,93,356.8,92.7z M412.6,65.3l-24,8.3c1.6,1.6,3.7,2.4,6.2,2.4c1.4,0,2.9-0.3,4.4-0.8c2.1-0.7,4.4-2.5,6.9-5.2
		s4.4-4.3,5.7-4.8c0.7-0.2,1.5-0.4,2.2-0.4c2.2,0,4,0.8,5.7,2.3s2.5,3.4,2.5,5.5c0,3.4-2.1,7-6.3,10.8c-3.8,3.5-7.9,6.1-12.4,7.6
		c-3.2,1.1-6.4,1.7-9.6,1.7c-5.7,0-10.9-1.7-15.5-5.2c-4.5-3.5-7.8-8.2-9.8-14.1c-1.1-3.1-1.7-6.4-1.7-9.8c0-5.7,1.5-10.8,4.4-15.3
		c3.2-4.8,7.4-8.2,12.9-10c2.7-0.9,5.5-1.4,8.2-1.4c5.7,0,11,1.8,15.8,5.5c4.6,3.4,7.8,7.6,9.4,12.5c0.4,1.2,0.6,2.4,0.6,3.5
		C418.2,61.7,416.4,64,412.6,65.3z M389.2,53.2c-3.6,1.2-5.4,3.8-5.5,7.8l14.5-5c-1.7-2.2-3.7-3.2-6.2-3.2
		C391.1,52.7,390.1,52.8,389.2,53.2z M451.6,56.5l-1.4-0.4l-6.4,27.7c-0.6,2.3-1.6,4.2-3.2,5.7c-1.6,1.4-3.5,2-5.7,2
		c-0.7,0-1.4-0.1-2.1-0.2c-2.1-0.5-3.8-1.5-5-3.1c-1.2-1.7-1.9-3.6-1.9-5.7c0-0.9,0.1-1.7,0.3-2.6l6.5-27.8L432,52
		c-4.3-1-6.4-3.5-6.4-7.6c0-0.7,0.1-1.5,0.3-2.2c0.4-1.9,1.4-3.4,2.8-4.5c1.5-1.2,3.1-1.8,5-1.8c0.7,0,1.3,0.1,1.9,0.2l0.6,0.2
		l1.3-5.6c0.6-2.3,1.6-4.1,3.1-5.6c1.6-1.4,3.5-2.1,5.7-2.1c0.7,0,1.4,0.1,2.1,0.3c2.2,0.5,3.8,1.5,5,3.1s1.9,3.5,1.9,5.7
		c0,0.9-0.1,1.7-0.3,2.6l-1.3,5.6l1.5,0.3c4.6,1,6.9,3.6,6.9,7.7c0,0.7-0.1,1.4-0.2,2.2c-1,4.2-3.6,6.3-7.9,6.3
		C453.2,56.8,452.5,56.7,451.6,56.5z M490.6,56.5l-1.4-0.4l-6.4,27.7c-0.6,2.3-1.6,4.2-3.2,5.7c-1.6,1.4-3.5,2-5.7,2
		c-0.7,0-1.4-0.1-2.1-0.2c-2.1-0.5-3.8-1.5-5-3.1c-1.2-1.7-1.9-3.6-1.9-5.7c0-0.9,0.1-1.7,0.3-2.6l6.5-27.8l-0.6-0.1
		c-4.3-1-6.4-3.5-6.4-7.6c0-0.7,0.1-1.5,0.3-2.2c0.4-1.9,1.4-3.4,2.8-4.5c1.5-1.2,3.1-1.8,5-1.8c0.7,0,1.3,0.1,1.9,0.2l0.6,0.2
		l1.3-5.6c0.6-2.3,1.6-4.1,3.1-5.6c1.6-1.4,3.5-2.1,5.7-2.1c0.7,0,1.4,0.1,2.1,0.3c2.2,0.5,3.8,1.5,5,3.1s1.9,3.5,1.9,5.7
		c0,0.9-0.1,1.7-0.3,2.6l-1.3,5.6l1.5,0.3c4.6,1,6.9,3.6,6.9,7.7c0,0.7-0.1,1.4-0.2,2.2c-1,4.2-3.6,6.3-7.9,6.3
		C492.4,56.8,491.6,56.7,490.6,56.5z M547.3,65.3l-24,8.3c1.6,1.6,3.7,2.4,6.2,2.4c1.4,0,2.9-0.3,4.4-0.8c2.1-0.7,4.4-2.5,6.9-5.2
		s4.4-4.3,5.7-4.8c0.7-0.2,1.5-0.4,2.2-0.4c2.2,0,4,0.8,5.7,2.3c1.7,1.5,2.5,3.4,2.5,5.5c0,3.4-2.1,7-6.3,10.8
		c-3.8,3.5-7.9,6.1-12.4,7.6c-3.2,1.1-6.4,1.7-9.6,1.7c-5.7,0-10.9-1.7-15.5-5.2c-4.5-3.5-7.8-8.2-9.8-14.1
		c-1.1-3.1-1.7-6.4-1.7-9.8c0-5.7,1.5-10.8,4.4-15.3c3.2-4.8,7.4-8.2,12.9-10c2.7-0.9,5.5-1.4,8.2-1.4c5.7,0,11,1.8,15.8,5.5
		c4.6,3.4,7.8,7.6,9.4,12.5c0.4,1.2,0.6,2.4,0.6,3.5C552.9,61.7,551.1,64,547.3,65.3z M523.9,53.2c-3.6,1.2-5.4,3.8-5.5,7.8l14.5-5
		c-1.7-2.2-3.7-3.2-6.2-3.2C525.9,52.7,524.9,52.8,523.9,53.2z M581.6,40.8c2-2.2,4.8-3.1,8.6-2.9c2.3,0.2,4.3,1.1,5.8,2.8
		c1.7,1.9,2.4,4.3,2.2,7.2c-0.2,2.7-1.7,4.8-4.5,6.1c-2.7,0.9-5.3,1.9-8,2.8c-2.8,1.2-4.4,3-4.5,5.4l-1.4,20.4
		c-0.2,2.8-1.3,5-3.1,6.8c-1.8,1.7-4,2.5-6.7,2.3c-2.6-0.2-4.7-1.2-6.2-3.1c-1.5-2-2.2-4.4-2-7.1l2.5-36.2c0.2-2.8,1.4-5,3.5-6.6
		c1.9-1.4,4-1.9,6.3-1.8C577.8,37.1,580.2,38.4,581.6,40.8z M611.1,36.9c-2.7,0.2-5-0.7-7-2.6c-2-1.9-3.1-4.2-3.3-6.9
		c-0.1-2.5,0.7-4.8,2.6-6.9c1.9-2,4.2-3.1,6.8-3.2c2.6-0.2,4.9,0.6,6.9,2.5c2.1,1.8,3.2,4,3.3,6.6c0.1,2.7-0.7,5.1-2.5,7.2
		C616.1,35.7,613.8,36.8,611.1,36.9z M613.9,92.3c-2.7,0.2-4.9-0.6-6.7-2.4c-1.7-1.7-2.7-4-2.8-6.8l-1.9-35.6c-0.2-2.8,0.5-5.1,2-7
		c1.6-1.9,3.7-3,6.4-3.1c2.7-0.1,4.8,0.7,6.6,2.5c1.8,1.7,2.7,4,2.9,6.8l1.9,35.6c0.1,2.8-0.6,5.1-2.2,7
		C618.7,91.1,616.6,92.1,613.9,92.3z M662.3,95c-2.1-0.5-3.8-1.5-5-3.1c-1.2-1.6-1.9-3.5-1.9-5.7c0-0.9,0.1-1.8,0.3-2.7l5.3-22.6
		c0.2-0.8,0.3-1.6,0.3-2.3c0-1.9-0.6-3.3-1.9-4.4c-1.3-1.1-2.9-1.7-4.7-1.7c-3.1,0-5.1,1.8-5.9,5.5l-5.2,22.7
		c-0.6,2.3-1.6,4.1-3.2,5.6c-1.6,1.4-3.5,2.1-5.6,2.1c-0.7,0-1.5-0.1-2.1-0.3c-2.2-0.5-3.8-1.5-5-3.1c-1.2-1.6-1.9-3.5-1.9-5.7
		c0-0.9,0.1-1.8,0.3-2.7l8-34.6c0.6-2.3,1.6-4.2,3.2-5.6c1.6-1.4,3.5-2.1,5.6-2.1c4,0,6.7,1.6,8.2,4.7c2-1,4.4-1.5,6.9-1.5
		c1.7,0,3.6,0.2,5.7,0.7c4.9,1.1,8.8,3.4,11.7,6.8c3,3.4,4.4,7.5,4.4,12.2c0,1.7-0.2,3.5-0.6,5.4l-5.8,24.9
		c-0.5,2.3-1.5,4.2-3.2,5.6c-1.6,1.4-3.5,2.1-5.7,2.1C663.8,95.3,663.2,95.2,662.3,95z M722.2,87.7c-2.2,2.6-5.5,4.4-10,5.5
		c-1.9,0.4-3.6,0.6-5.4,0.6c-7.2,0-13.1-3.3-17.8-10c-4.2-6-6.3-12.7-6.3-20.1c0-6.1,1.5-11.5,4.5-16c3.3-4.9,7.8-8.1,13.6-9.4
		c1.4-0.3,2.7-0.5,4.2-0.5c3,0,5.7,0.6,8.1,1.9c1-2.7,3.2-4.4,6.3-5.1c0.7-0.2,1.5-0.3,2.1-0.3c2.2,0,4,0.7,5.7,2.1
		c1.6,1.4,2.7,3.3,3.2,5.6l8.7,37.6c0.6,2.5,0.9,5,0.9,7.4c0,6.3-2,11.6-6,15.8c-4,4.3-9.4,7.2-16.2,8.7c-2,0.5-4.5,0.7-7.5,0.7
		c-4.3,0-8-0.5-11.1-1.6c-4.7-1.5-7-3.9-7-7.3c0-1.7,0.5-3.5,1.6-5.2s2.5-2.7,4.2-3.1c0.8-0.2,1.7-0.3,2.6-0.3c1,0,2.6,0.2,4.9,0.5
		c2.3,0.4,4.2,0.6,5.6,0.6c1.5,0,2.9-0.2,4.2-0.5C719.8,94.3,722.2,91.7,722.2,87.7z M700.7,63.3c0,1.2,0.2,2.3,0.5,3.5
		c1.4,6.3,4.3,9.4,8.7,9.4c2.4,0,4.3-0.9,5.7-2.8c1.2-1.6,1.9-3.7,1.9-6.2c0-1.2-0.2-2.4-0.5-3.6c-0.6-2.8-1.7-5.2-3.3-6.9
		c-1.6-1.8-3.5-2.7-5.6-2.7c-2.4,0-4.3,1-5.6,3C701.3,58.7,700.7,60.8,700.7,63.3z"/>
	<path class="st1" d="M704.3,107.9c-4.4,0-8.4-0.6-11.7-1.7c-6.8-2.1-8.2-6.1-8.2-9c0-2,0.6-4.1,1.8-6.1c1.4-2.1,3.1-3.3,5.1-3.8
		c-3.7-1.8-6.9-4.7-9.7-8.6c-4.4-6.3-6.6-13.4-6.6-21.1c0-0.6,0-1.2,0-1.8c-0.1,0.4-0.1,0.8-0.2,1.2L669,82
		c-0.6,2.7-1.8,4.9-3.7,6.5c-1.9,1.7-4.2,2.5-6.8,2.5c-0.8,0-1.7-0.1-2.5-0.3c-2.5-0.6-4.5-1.9-6-3.8s-2.2-4.2-2.2-6.7
		c0-1,0.1-2,0.3-3l5.3-22.7c0.2-0.7,0.2-1.3,0.2-1.9c0-1.3-0.4-2.3-1.3-3c-1-0.9-2.2-1.3-3.6-1.3c-1.5,0-3.4,0.5-4.2,4.1l-5.2,22.7
		c-0.6,2.7-1.9,4.8-3.8,6.5s-4.2,2.6-6.7,2.6c-0.9,0-1.8-0.1-2.6-0.3c-2.5-0.6-4.5-1.9-6-3.8c-1.4-1.9-2.2-4.1-2.2-6.7
		c0-1,0.1-2.1,0.3-3.1l8-34.7c0.6-2.7,1.9-4.9,3.8-6.5c1.9-1.7,4.2-2.5,6.7-2.5c4,0,7,1.5,8.9,4.3c3.5-1.2,7.5-1.4,12.3-0.2
		c5.2,1.2,9.5,3.7,12.6,7.3c3.2,3.7,4.9,8.2,4.9,13.4c0,0.3,0,0.6,0,1c0.7-4.3,2.1-8.2,4.4-11.6c3.5-5.3,8.5-8.7,14.7-10.2
		c1.5-0.3,3-0.5,4.6-0.5c2.6,0,5.1,0.4,7.3,1.3c1.4-2.3,3.7-3.8,6.7-4.5c0.9-0.2,1.7-0.3,2.5-0.3c2.6,0,4.9,0.9,6.8,2.6
		c1.9,1.7,3.1,3.9,3.7,6.5l8.7,37.6c0.6,2.6,1,5.3,1,7.8c0,6.7-2.2,12.5-6.5,17c-4.2,4.5-9.9,7.6-17.1,9.2
		C710.2,107.7,707.4,107.9,704.3,107.9z M694.6,90.5c-0.8,0-1.5,0.1-2.2,0.2c-1.2,0.3-2.2,1-3.1,2.3c-0.8,1.4-1.3,2.8-1.3,4.2
		c0,0.9,0,3.8,5.8,5.7c3,1,6.5,1.5,10.6,1.5c2.9,0,5.3-0.2,7.1-0.7c6.5-1.5,11.7-4.2,15.4-8.2c3.7-4,5.6-8.8,5.6-14.7
		c0-2.3-0.3-4.6-0.9-7l-8.7-37.6c-0.4-2-1.3-3.5-2.6-4.6c-1.3-1.1-2.8-1.7-4.5-1.7c-0.5,0-1.1,0.1-1.7,0.2c-2.6,0.6-4.3,1.9-5.1,4
		l-0.7,1.8l-1.7-0.9c-2.1-1.1-4.5-1.7-7.2-1.7c-1.3,0-2.6,0.1-3.8,0.4c-5.4,1.3-9.5,4.1-12.5,8.7c-2.8,4.3-4.2,9.3-4.2,15.1
		c0,7,2,13.4,6,19.1c4.4,6.2,9.7,9.3,16.4,9.3c1.6,0,3.3-0.2,5-0.5c4.1-0.9,7.1-2.6,9-4.9l3.2-3.8l-0.1,4.9
		c-0.1,3.4-1.6,7.7-8.5,9.3c-1.4,0.3-2.9,0.5-4.5,0.5c-1.5,0-3.4-0.2-5.8-0.6C696.9,90.7,695.4,90.5,694.6,90.5z M648.8,44.9
		c2.3,0,4.2,0.7,5.9,2.1c1.7,1.3,2.6,3.3,2.6,5.7c0,0.9-0.1,1.8-0.3,2.7l-5.4,22.5c-0.2,0.8-0.2,1.5-0.2,2.3c0,1.8,0.5,3.3,1.5,4.6
		c1,1.3,2.3,2.1,4,2.5l0,0c0.6,0.1,1.2,0.2,1.7,0.2c1.7,0,3.2-0.6,4.5-1.7c1.3-1.1,2.2-2.6,2.6-4.6l5.8-25c0.3-1.7,0.5-3.4,0.5-5
		c0-4.4-1.3-8-4-11.1c-2.7-3.1-6.3-5.2-10.7-6.2c-4.7-1.1-8.4-0.9-11.4,0.6l-1.6,0.8l-0.8-1.6c-1.2-2.5-3.3-3.7-6.6-3.7
		c-1.7,0-3.1,0.6-4.4,1.7c-1.4,1.1-2.2,2.7-2.7,4.7l-8,34.6c-0.2,0.7-0.2,1.5-0.2,2.3c0,1.8,0.5,3.3,1.5,4.6c0.9,1.3,2.3,2.1,4,2.5
		c0.6,0.2,1.2,0.2,1.7,0.2c1.7,0,3.1-0.6,4.4-1.7c1.3-1.2,2.2-2.7,2.7-4.7l5.2-22.7C642.4,46,645.9,44.9,648.8,44.9z M209.4,91.1
		c-0.8,0-1.7-0.1-2.5-0.3c-2.5-0.6-4.5-1.9-6-3.8s-2.2-4.2-2.2-6.7c0-1,0.1-2,0.3-3l5.3-22.7c0.2-0.7,0.2-1.3,0.2-1.9
		c0-1.3-0.4-2.3-1.3-3c-1-0.9-2.2-1.3-3.6-1.3c-1.5,0-3.4,0.5-4.2,4.1l-5.2,22.7c-0.6,2.7-1.9,4.8-3.8,6.5c-1.9,1.7-4.2,2.6-6.7,2.6
		c-0.9,0-1.8-0.1-2.6-0.3c-2.5-0.6-4.5-1.9-6-3.8c-1.1-1.4-1.8-3-2-4.8c-0.5,4.3-3.2,7.1-8,8.1c-0.9,0.2-1.9,0.3-2.8,0.3
		c-1.9,0-3.7-0.6-5.2-1.6c-2.7,3.1-6.2,5.2-10.4,6.1c-1.9,0.5-3.8,0.7-5.8,0.7c-6.2,0-11.8-2.2-16.7-6.6c-4.8-4.4-8-10.2-9.7-17.2
		c-0.6-2.6-0.9-5.2-0.9-7.8c0-6.6,1.8-12.4,5.3-17.4c3.6-5.1,8.4-8.4,14.3-9.8c4.3-1,8.5-0.7,12.2,0.8c1.4-2.3,3.6-3.9,6.5-4.6h0.1
		c1.1-0.2,2.1-0.3,3.1-0.3c3.4,0,7.9,1.8,9.9,10.4l7.4,32.2c0.3,1.2,0.4,2.2,0.6,3.2c0.1-0.5,0.1-1,0.2-1.5l8-34.7
		c0.6-2.7,1.9-4.9,3.8-6.5c1.9-1.7,4.2-2.5,6.7-2.5c4,0,7,1.5,8.9,4.3c3.5-1.2,7.5-1.4,12.3-0.2c5.2,1.2,9.5,3.7,12.6,7.3
		c3.2,3.7,4.9,8.2,4.9,13.4c0,1.8-0.2,3.8-0.6,5.7l-5.8,25c-0.6,2.7-1.8,4.9-3.7,6.5C214.2,90.2,212,91.1,209.4,91.1z M199.6,44.9
		c2.3,0,4.2,0.7,5.9,2.1c1.7,1.3,2.6,3.3,2.6,5.7c0,0.9-0.1,1.8-0.3,2.7l-5.4,22.5c-0.1,0.8-0.2,1.5-0.2,2.3c0,1.8,0.5,3.3,1.5,4.6
		c1,1.3,2.3,2.1,4,2.5l0,0c0.6,0.1,1.2,0.2,1.7,0.2c1.7,0,3.2-0.6,4.5-1.7s2.2-2.6,2.6-4.6l5.8-25c0.3-1.7,0.5-3.4,0.5-5
		c0-4.4-1.3-8-4-11.1s-6.3-5.2-10.7-6.2c-4.7-1.1-8.4-0.8-11.4,0.6l-1.6,0.8l-0.8-1.6c-1.2-2.5-3.3-3.7-6.6-3.7
		c-1.7,0-3.1,0.6-4.4,1.7c-1.4,1.1-2.2,2.7-2.7,4.7l-8,34.6c-0.2,0.7-0.2,1.5-0.2,2.3c0,1.8,0.5,3.3,1.5,4.6c1,1.3,2.3,2.1,4,2.5
		c0.6,0.2,1.2,0.2,1.7,0.2c1.7,0,3.1-0.6,4.4-1.7c1.3-1.2,2.2-2.7,2.7-4.7l5.2-22.7C193.2,46,196.8,44.9,199.6,44.9z M134.1,33.1
		c-1.3,0-2.7,0.2-4.1,0.5c-5.1,1.2-9.1,3.9-12.2,8.4c-3.1,4.4-4.7,9.6-4.7,15.4c0,2.3,0.3,4.7,0.8,7c1.5,6.3,4.4,11.5,8.6,15.4
		c4.3,3.8,9,5.7,14.4,5.7c1.6,0,3.3-0.2,5-0.6c4-0.9,7.1-3,9.6-6.3l1.2-1.7l1.4,1.5c1.2,1.3,2.6,1.9,4.2,1.9c0.7,0,1.3-0.1,2-0.2
		l0,0c3.7-0.8,5.3-2.7,5.3-6.1c0-1.2-0.2-2.7-0.6-4.5l-7.4-32.1c-1.8-7.7-5.4-7.7-6.5-7.7c-0.7,0-1.5,0.1-2.4,0.2
		c-2.4,0.6-4,2-4.9,4.1l-0.7,1.8l-1.7-0.9C139.2,33.7,136.7,33.1,134.1,33.1z M57,90.5c-2.4,0-4.6-0.8-6.5-2.2
		c-2.3-1.8-3.7-4.4-4.1-7.7L40,28.4c-0.1-0.7-0.1-1.3-0.1-1.8c0-2.9,0.9-5.4,2.7-7.3c1.7-2,4.1-3.2,7-3.5c3.1-0.4,5.9,0.4,8.2,2.2
		c2.3,1.7,3.7,4.3,4.1,7.7l1.9,15.5l20.8-2.5l-1.9-15.5c-0.1-0.6-0.1-1.1-0.1-1.7c0-3,0.9-5.5,2.7-7.4c1.8-2,4.2-3.1,7-3.4
		c3.1-0.4,5.8,0.3,8.1,2.1c2.3,1.7,3.7,4.3,4.2,7.7l6.4,52.2c0.1,0.6,0.1,1.2,0.1,1.8c0,2.9-0.9,5.4-2.7,7.4c-1.8,1.9-4.1,3.1-7,3.4
		l0,0c-3.1,0.4-5.9-0.3-8.2-2.1c-2.3-1.9-3.7-4.5-4-7.8l-2-16l-20.8,2.5l2,16c0.1,0.6,0.1,1.1,0.1,1.7c0,3-0.9,5.5-2.8,7.4
		c-1.7,1.9-4.1,3.1-6.9,3.4C58.1,90.5,57.5,90.5,57,90.5z M51.1,19.2c-0.4,0-0.7,0-1.1,0.1c-2,0.3-3.6,1-4.8,2.4
		c-1.2,1.3-1.8,2.9-1.8,5c0,0.4,0,0.9,0.1,1.4l6.4,52c0.3,2.4,1.2,4.2,2.8,5.4c1.6,1.3,3.4,1.7,5.6,1.4c2-0.2,3.6-1,4.8-2.3
		c1.3-1.3,1.9-3,1.9-5c0-0.4,0-0.8-0.1-1.3l-2.4-19.5l27.7-3.4l2.4,19.5c0.3,2.4,1.1,4.2,2.7,5.4c1.6,1.2,3.4,1.6,5.6,1.4
		c2.1-0.3,3.6-1,4.9-2.3c1.2-1.3,1.8-3,1.8-5c0-0.4,0-0.9-0.1-1.4l-6.4-52.1c-0.3-2.4-1.2-4.2-2.8-5.4c-1.6-1.3-3.4-1.7-5.6-1.4
		c-2.1,0.2-3.6,1-4.9,2.3c-1.2,1.3-1.8,2.9-1.8,5c0,0.4,0,0.8,0.1,1.3l2.3,19l-27.7,3.4l-2.3-19c-0.3-2.4-1.2-4.1-2.7-5.3
		C54.3,19.7,52.8,19.2,51.1,19.2z M270.6,89.5c-0.3,0-0.6,0-0.9,0l0,0c-3.2-0.3-5.6-1.5-7.3-3.6c-3.4,2-7.3,2.8-11.5,2.5
		c-7.2-0.7-13.1-4-17.5-9.9c-4-5.3-6.1-11.6-6.1-18.7c0-7.8,2.2-14.8,6.6-20.8c5-6.7,11.4-10.2,19.3-10.2c3.9,0,7.5,0.8,10.8,2.4
		l1-11c0.3-3.2,1.5-5.8,3.6-7.8c2.2-2.1,5-3,8.1-2.7c3.1,0.2,5.6,1.6,7.4,4c1.8,2.3,2.6,5.1,2.3,8.3l-5,56.8
		c-0.3,3.2-1.5,5.9-3.7,7.8C275.6,88.6,273.2,89.5,270.6,89.5z M270,86c2.1,0.1,3.8-0.5,5.2-1.8c1.6-1.4,2.4-3.2,2.6-5.6l5-56.8
		c0.2-2.3-0.3-4.3-1.6-5.9c-1.2-1.7-2.8-2.5-4.9-2.7c-2.2-0.2-4,0.4-5.4,1.8c-1.5,1.4-2.3,3.2-2.5,5.5l-1.5,16.6l-2.4-1.6
		c-3.3-2.2-7.2-3.2-11.4-3.2c-6.8,0-12.1,2.9-16.5,8.7c-4,5.4-6,11.6-6,18.7c0,6.3,1.8,11.9,5.4,16.6c3.8,5.1,8.7,7.9,15,8.5
		c4.1,0.3,7.6-0.6,10.7-2.8l1.6-1.2l1,1.7C265.4,84.6,267.2,85.7,270,86z M351.8,88.5c-0.4,0-0.8,0-1.1,0l0,0l-23.1-2
		c-3.4-0.3-6-1.6-7.9-4c-1.8-2.3-2.6-5.2-2.3-8.6l4.4-51.5c0.3-3.3,1.6-5.9,3.9-7.8s5-2.7,8.1-2.4c3.1,0.2,5.7,1.5,7.6,3.8
		c1.9,2.2,2.7,5,2.4,8.4L340,66.7l12.3,1.1c3.1,0.3,5.6,1.5,7.3,3.5c1.7,1.9,2.5,4.2,2.5,6.8c0,3-1,5.5-3,7.6
		C357.2,87.5,354.8,88.5,351.8,88.5z M351,85c2.4,0.2,4.3-0.4,5.8-2c1.4-1.4,2-3.1,2-5.2c0-1.7-0.6-3.2-1.7-4.5s-2.8-2.1-5-2.3
		l-15.8-1.4l4-45.8c0.2-2.4-0.3-4.3-1.6-5.8c-1.3-1.6-3-2.4-5.2-2.6s-4.1,0.3-5.6,1.6c-1.6,1.3-2.4,3-2.6,5.4l-4.4,51.7
		c-0.2,2.5,0.3,4.6,1.6,6.2c1.2,1.6,3,2.5,5.4,2.7L351,85z M522.6,88.5c-6.1,0-11.7-1.9-16.5-5.5c-4.8-3.7-8.3-8.7-10.4-14.9
		c-1.2-3.3-1.8-6.8-1.8-10.4c0-3.1,0.4-6,1.2-8.8c-1.7,2.4-4.4,3.7-7.9,3.7c-0.8,0-1.7-0.1-2.6-0.3l-6,26c-0.6,2.7-1.9,4.9-3.8,6.6
		c-2.5,2.1-5.6,2.9-9.2,2.3h-0.1c-2.5-0.6-4.5-1.9-6-3.8c-1.5-2-2.2-4.3-2.2-6.8c0-1,0.1-2,0.3-3l6.1-26.1c-2.8-0.9-4.7-2.4-5.8-4.7
		c0,0.6-0.1,1.3-0.2,2v0.1c-1.2,5-4.5,7.6-9.6,7.6c-0.8,0-1.7-0.1-2.6-0.3l-6,26c-0.6,2.7-1.9,4.9-3.8,6.6c-2.5,2.1-5.6,2.9-9.2,2.3
		h-0.1c-2.5-0.6-4.5-1.9-6-3.8c-1.5-2-2.2-4.3-2.2-6.8c0-1,0.1-2,0.3-3l6.1-26.1c-4.4-1.4-6.7-4.5-6.7-9c0-0.9,0.1-1.8,0.3-2.6
		c0.5-2.3,1.7-4.1,3.4-5.5c1.8-1.4,3.8-2.1,6.1-2.1c0.4,0,0.9,0,1.3,0.1l0.9-3.9c0.6-2.6,1.9-4.8,3.7-6.4c2-1.7,4.2-2.6,6.8-2.6
		c0.8,0,1.7,0.1,2.6,0.3c2.5,0.6,4.6,1.9,6,3.8s2.2,4.2,2.2,6.8c0,1-0.1,2-0.3,3l-1,3.6c4,1,6.1,2.9,7.1,5.1c0-0.8,0.1-1.5,0.3-2.3
		c0.5-2.3,1.7-4.1,3.4-5.5c1.8-1.4,3.8-2.1,6.1-2.1c0.4,0,0.9,0,1.3,0.1l0.9-3.9c0.6-2.6,1.9-4.8,3.7-6.4c2-1.7,4.2-2.6,6.8-2.6
		c0.8,0,1.7,0.1,2.6,0.3c2.5,0.6,4.6,1.9,6,3.8s2.2,4.2,2.2,6.8c0,1-0.1,2-0.3,3l-0.9,3.8c6.6,1.6,8,6,8,9.3c0,0.6,0,1.3-0.1,2
		c0.5-1,1-1.9,1.6-2.8c3.4-5.1,8-8.7,13.8-10.7c2.9-1,5.9-1.5,8.8-1.5c6,0,11.7,2,16.9,5.8c4.9,3.6,8.3,8.1,10.1,13.3
		c0.5,1.4,0.7,2.8,0.7,4.1c0,1.7-0.4,3.7-2,5.5c1,0.5,2,1.1,2.8,2c2,1.9,3,4.1,3,6.7c0,3.9-2.3,8-6.9,12.1c-3.9,3.7-8.3,6.3-13,8
		C529.3,87.9,525.9,88.5,522.6,88.5z M521.1,32.7c-2.6,0-5.2,0.4-7.7,1.3c-5,1.7-9.1,4.8-12,9.3c-2.7,4.2-4.1,9-4.1,14.3
		c0,3.2,0.5,6.3,1.6,9.2c1.9,5.6,5,10,9.2,13.3c4.2,3.2,9.1,4.8,14.4,4.8c3,0,6.1-0.5,9.1-1.6c4.3-1.5,8.2-3.9,11.8-7.2
		c3.8-3.5,5.7-6.7,5.7-9.6c0-1.6-0.6-3-1.9-4.2s-2.7-1.8-4.3-1.8c-0.3,0.1-0.6,0.2-1,0.4l-2.2,0.8c-0.8,0.6-2,1.7-3.6,3.5
		c-2.7,3-5.2,4.8-7.6,5.7c-1.7,0.6-3.4,0.9-5,0.9c-3,0-5.5-1-7.4-2.9l-2-2l24-8.3c0.7-0.5,1.2-0.8,1.8-1c0.8-0.3,1.5-0.4,2.2-0.5
		c2.8-1.4,3.2-3.3,3.2-4.7c0-0.9-0.2-1.9-0.5-2.9c-1.5-4.6-4.5-8.5-8.8-11.7C531.2,34.4,526.2,32.7,521.1,32.7z M466.1,83.6
		c2.6,0.4,4.6,0,6.3-1.5c1.3-1.2,2.2-2.7,2.7-4.7l6.8-29.5l3.1,0.8c0.7,0.2,1.4,0.2,2.1,0.2c3.4,0,5.3-1.5,6.2-4.9
		c0.1-0.7,0.2-1.3,0.2-1.9c0-3.3-1.7-5.1-5.5-6l-3.2-0.6l1.7-7.3c0.2-0.7,0.2-1.5,0.2-2.2c0-1.8-0.5-3.4-1.5-4.7
		c-1-1.3-2.3-2.1-4-2.5c-0.6-0.2-1.2-0.2-1.7-0.2c-1.7,0-3.2,0.6-4.5,1.7c-1.3,1.2-2.1,2.7-2.6,4.7l-1.7,7.3l-2.3-0.7
		c-0.5-0.1-1-0.1-1.5-0.1c-1.5,0-2.7,0.5-3.9,1.4c-1.1,0.9-1.8,2-2.2,3.6c-0.2,0.6-0.2,1.2-0.2,1.8c0,3.2,1.5,5.1,5,5.9l2.5,0.4
		l-6.9,29.7c-0.2,0.7-0.2,1.5-0.2,2.2c0,1.8,0.5,3.3,1.5,4.7C463.2,82.4,464.6,83.2,466.1,83.6z M427.1,83.6c2.6,0.4,4.6,0,6.3-1.5
		c1.3-1.2,2.2-2.7,2.7-4.7l6.8-29.5l3.1,0.8c0.7,0.2,1.4,0.2,2.1,0.2c3.4,0,5.3-1.5,6.2-4.9c0.1-0.7,0.2-1.3,0.2-1.9
		c0-3.3-1.7-5.1-5.5-6l-3.2-0.6l1.7-7.3c0.2-0.7,0.2-1.5,0.2-2.2c0-1.8-0.5-3.4-1.5-4.7c-1-1.3-2.3-2.1-4-2.5
		c-0.6-0.2-1.2-0.2-1.7-0.2c-1.7,0-3.2,0.6-4.5,1.7c-1.3,1.2-2.1,2.7-2.6,4.7l-1.7,7.3l-2.3-0.7c-0.5-0.1-1-0.1-1.5-0.1
		c-1.5,0-2.7,0.5-3.9,1.4c-1.1,0.9-1.8,2-2.2,3.6c-0.2,0.6-0.2,1.2-0.2,1.8c0,3.2,1.5,5.1,5,5.9l2.5,0.4l-7.2,29.6
		c-0.2,0.7-0.2,1.5-0.2,2.2c0,1.8,0.5,3.3,1.5,4.7C424.1,82.4,425.5,83.2,427.1,83.6z M521.4,68c1.7,0.4,3.7,0.3,5.9-0.5
		c1.4-0.5,3-1.6,4.7-3.2L521.4,68z M387.8,88.5c-6.1,0-11.7-1.9-16.5-5.5c-4.8-3.7-8.3-8.7-10.4-14.9c-1.2-3.3-1.8-6.8-1.8-10.4
		c0-6,1.6-11.5,4.6-16.2c3.4-5.1,8-8.7,13.8-10.7c2.9-1,5.9-1.5,8.8-1.5c6,0,11.7,2,16.9,5.8c4.9,3.6,8.3,8.1,10.1,13.3
		c0.5,1.4,0.7,2.8,0.7,4.1c0,1.7-0.4,3.7-2,5.5c1,0.5,2,1.1,2.8,2c2,1.9,3,4.1,3,6.7c0,3.9-2.3,8-6.9,12.1c-3.9,3.7-8.3,6.3-13,8
		C394.6,87.9,391.1,88.5,387.8,88.5z M386.2,32.7c-2.6,0-5.2,0.4-7.7,1.3c-5,1.7-9.1,4.8-12,9.3c-2.7,4.2-4.1,9-4.1,14.3
		c0,3.2,0.5,6.3,1.6,9.2c1.9,5.6,5,10,9.2,13.3c4.2,3.2,9.1,4.8,14.4,4.8c3,0,6.1-0.5,9.1-1.6c4.3-1.5,8.2-3.9,11.8-7.2
		c3.8-3.5,5.7-6.7,5.7-9.6c0-1.6-0.6-3-1.9-4.2s-2.7-1.8-4.3-1.8c-0.3,0.1-0.6,0.2-1,0.4l-2.2,0.8c-0.8,0.6-2,1.7-3.6,3.5
		c-2.7,3-5.2,4.8-7.6,5.7c-1.7,0.6-3.4,0.9-5,0.9c-3,0-5.5-1-7.4-2.9l-2-2l24-8.3c0.6-0.5,1.2-0.8,1.8-1c0.8-0.3,1.5-0.4,2.2-0.5
		c2.8-1.4,3.2-3.3,3.2-4.7c0-0.9-0.2-1.9-0.6-2.9c-1.5-4.6-4.5-8.5-8.8-11.7C396.6,34.4,391.6,32.7,386.2,32.7z M386.6,68
		c1.7,0.4,3.7,0.3,5.9-0.5c1.4-0.5,3-1.6,4.7-3.2L386.6,68z M607.2,88c-2.8,0-5.2-1-7.2-2.9c-2-2-3.1-4.7-3.3-7.9l-1.8-35.6
		c-0.2-3.2,0.6-6,2.4-8.2c0.6-0.7,1.3-1.4,2-1.9c-0.9-0.5-1.7-1.1-2.5-1.8c-2.4-2.2-3.7-4.9-3.9-8c-0.1-3,0.9-5.8,3-8.2
		c2.2-2.4,4.9-3.7,8-3.8c3-0.2,5.8,0.8,8.2,3c2.4,2.1,3.8,4.7,3.9,7.8c0.1,3.2-0.8,6-2.9,8.4c-0.7,0.8-1.5,1.5-2.4,2.1
		c0.8,0.5,1.5,1,2.1,1.7c2.1,2,3.2,4.7,3.4,7.9l1.9,35.6c0.1,3.2-0.7,6-2.6,8.3c-1.8,2.3-4.4,3.5-7.5,3.7
		C607.8,88,607.4,88,607.2,88z M605.6,33.1c-0.1,0-0.3,0-0.4,0c-2.1,0.1-3.8,1-5.1,2.5c-1.2,1.5-1.8,3.5-1.6,5.8l1.9,35.6
		c0.1,2.4,0.8,4.2,2.3,5.6c1.4,1.4,3.2,2.1,5.3,1.9l0,0c2.2-0.1,3.8-0.9,5-2.4c1.3-1.6,1.9-3.5,1.8-5.9l-1.9-35.6
		c-0.1-2.4-0.9-4.2-2.3-5.6C609.1,33.7,607.4,33.1,605.6,33.1z M604.8,13.1c-0.2,0-0.4,0-0.6,0c-2.2,0.1-4,1-5.6,2.7
		c-1.5,1.7-2.2,3.5-2.1,5.6c0.2,2.2,1.1,4,2.8,5.7c1.7,1.6,3.6,2.3,5.7,2.1l0,0c2.2-0.1,4-1,5.5-2.6c1.5-1.7,2.2-3.7,2.1-6
		c-0.1-2.1-1-3.8-2.7-5.3C608.2,13.8,606.6,13.1,604.8,13.1z M564.8,87.5c-0.3,0-0.6,0-0.9,0c-3.1-0.2-5.6-1.5-7.4-3.8
		c-1.8-2.3-2.6-5.1-2.4-8.3l2.5-36.2c0.3-3.4,1.7-6,4.2-7.9c2.2-1.6,4.7-2.3,7.5-2.1c3.3,0.2,5.9,1.3,7.6,3.1c2.2-1.6,5-2.3,8.4-2
		c2.8,0.2,5.2,1.3,7,3.3c2,2.3,2.9,5.2,2.7,8.5c-0.2,3.3-2.1,6-5.5,7.6l-0.2,0.1l-7.9,2.8c-2.9,1.3-3.4,2.8-3.4,3.9l-1.4,20.4
		c-0.3,3.2-1.5,5.9-3.6,7.9C569.9,86.5,567.6,87.5,564.8,87.5z M567.2,32.6c-1.7,0-3.1,0.5-4.4,1.5c-1.7,1.2-2.6,3-2.8,5.3
		l-2.5,36.2c-0.2,2.4,0.4,4.3,1.7,5.9c1.2,1.5,2.8,2.3,5,2.5c2.2,0.1,3.9-0.4,5.3-1.8c1.5-1.4,2.3-3.3,2.5-5.7l1.4-20.3
		c0.2-2.1,1.3-5,5.6-6.9h0.1l7.9-2.7c2.2-1.1,3.3-2.6,3.5-4.6c0.2-2.4-0.4-4.4-1.8-6c-1.2-1.3-2.7-2-4.7-2.2
		c-3.2-0.2-5.6,0.5-7.2,2.3l-1.7,1.8l-1.2-2.2c-1-1.9-3-2.9-6-3.1C567.8,32.6,567.4,32.6,567.2,32.6z M703.8,72
		c-3.6,0-8.4-1.9-10.4-10.8c-0.3-1.3-0.5-2.6-0.5-3.9c0-2.8,0.7-5.3,2.2-7.3c1.6-2.4,4-3.7,7-3.7c2.6,0,4.9,1.1,6.9,3.3
		c1.8,2,3.1,4.6,3.7,7.7c0.3,1.3,0.5,2.7,0.5,4c0,2.9-0.7,5.4-2.2,7.3C709.2,70.8,706.8,72,703.8,72z M702.1,49.7
		c-1.8,0-3.1,0.7-4.1,2.2c-1.1,1.5-1.6,3.2-1.6,5.3c0,1,0.1,2,0.4,3.1c1.8,8.1,5.7,8.1,7,8.1c1.9,0,3.3-0.7,4.4-2.1
		c1-1.3,1.5-3,1.5-5.1c0-1-0.1-2.1-0.4-3.2c-0.6-2.6-1.5-4.6-2.9-6.2C705.1,50.4,703.7,49.7,702.1,49.7z M254.9,71.7
		c-0.3,0-0.6,0-0.9,0c-2.9-0.2-5.4-1.9-6.9-4.8c-1.4-2.5-2.1-5.5-1.8-8.8c0.3-3.5,1.5-6.4,3.4-8.7c2-2.5,4.6-3.7,7.6-3.5l0,0
		c3,0.3,5.4,1.8,7,4.5c1.5,2.5,2.1,5.5,1.7,8.9c-0.3,3.6-1.4,6.6-3.2,9C259.9,70.5,257.5,71.7,254.9,71.7z M255.5,49.3
		c-1.6,0-3,0.7-4.2,2.2c-1.5,1.8-2.3,4-2.6,6.8c-0.2,2.7,0.2,4.9,1.3,6.8c1,1.9,2.4,2.9,4.2,3c1.9,0.2,3.4-0.5,4.7-2.1
		c1.4-1.8,2.3-4.2,2.5-7.1c0.3-2.7-0.1-5-1.2-6.8c-1-1.7-2.4-2.6-4.3-2.8C255.8,49.4,255.7,49.3,255.5,49.3z M138.6,71.7
		c-2.6,0-4.9-1.1-6.8-3.2c-1.8-1.9-3.1-4.4-3.8-7.4c-0.3-1.5-0.4-2.9-0.4-4.2c0-2.9,0.7-5.4,2.2-7.5c1.6-2.3,4-3.5,7-3.5
		c2.5,0,4.8,1.1,6.8,3.3c1.8,1.9,3.1,4.4,3.7,7.5c0.3,1.4,0.5,2.8,0.5,4.1c0,2.9-0.7,5.4-2.2,7.3C144,70.4,141.6,71.7,138.6,71.7z
		 M136.7,49.5c-1.8,0-3.2,0.6-4.1,2c-1,1.5-1.5,3.3-1.5,5.5c0,1.1,0.1,2.3,0.3,3.5c0.5,2.3,1.5,4.2,2.9,5.7c1.3,1.4,2.7,2,4.3,2
		c1.8,0,3.1-0.7,4.1-2.1c1.1-1.4,1.6-3.1,1.6-5.3c0-1-0.1-2.1-0.4-3.3c-0.5-2.4-1.5-4.4-2.9-5.9C139.6,50.2,138.2,49.5,136.7,49.5z
		 M376,57.4v-2.5c0.1-4.7,2.4-7.9,6.6-9.4l0,0c1.2-0.4,2.3-0.5,3.4-0.5c3,0,5.6,1.3,7.6,3.9l1.5,1.9L376,57.4z M383.8,48.8
		c-2,0.7-3.2,1.8-3.8,3.5l9-3.1C387.5,48.3,385.8,48.2,383.8,48.8z M510.8,57.4v-2.5c0.1-4.7,2.4-7.9,6.6-9.4l0,0
		c1.2-0.4,2.3-0.5,3.4-0.5c3,0,5.6,1.3,7.6,3.9l1.5,1.9L510.8,57.4z M518.6,48.8c-2,0.7-3.2,1.8-3.8,3.5l9-3.1
		C522.2,48.3,520.4,48.2,518.6,48.8z"/>
</g>
<path class="st2" d="M1.6,51.8l-1.6-6l9.6-2.6l-1.4-7c-0.6-3.2,1.4-6.4,4.6-7.3l6.8-1.8l-1.4-6.9c-0.7-3.2,1.3-6.4,4.4-7.3l6.9-1.9
	l-2.1-9.8L33.6,0l2.1,9.8c0.7,3.2-1.3,6.4-4.4,7.3l-7,1.9l1.4,6.9c0.7,3.3-1.3,6.5-4.5,7.3L14.4,35l1.4,7c0.6,3.2-1.3,6.4-4.5,7.2
	L1.6,51.8z"/>
<path class="st3" d="M761.1,121.8c-1.4,0-2.7-0.1-4.1-0.4c-3.5-0.8-6.7-2.5-9.2-5s-4.3-5.7-5.1-9.1c-0.8-3.5-0.6-7,0.7-10.4
	c1.2-3.3,3.4-6.2,6.2-8.4c2.8-2.2,6.2-3.5,9.8-3.8c0.9-0.1,1.7,0.4,2.1,1.1c0.4,0.8,0.4,1.7-0.2,2.4c-1.5,2-2.3,4.5-2.1,7.1
	c0.2,2.5,1.3,4.9,3.1,6.7c1.8,1.8,4.2,2.9,6.8,3.1s5.1-0.5,7.2-2c0.7-0.5,1.6-0.6,2.4-0.1c0.7,0.4,1.2,1.2,1.1,2.1
	c-0.3,3.5-1.7,6.9-3.9,9.7c-2.2,2.8-5.1,4.9-8.5,6.1C765.4,121.5,763.2,121.8,761.1,121.8z M755.5,90.1c-1.2,0.5-2.3,1.1-3.3,1.9
	c-2.2,1.7-3.8,3.9-4.7,6.4s-1.1,5.3-0.5,7.9s1.9,5,3.9,7c1.9,1.9,4.4,3.2,7.1,3.8c2.7,0.6,5.5,0.4,8.1-0.5s4.8-2.5,6.5-4.7
	c0.8-1,1.4-2,1.9-3.1c-1.8,0.5-3.7,0.8-5.6,0.6c-3.6-0.3-7-1.8-9.6-4.3s-4.1-5.9-4.4-9.5C754.7,93.7,754.9,91.9,755.5,90.1z"/>
</svg>
