<?xml version="1.0" encoding="utf-8"?>
<!-- Generator: Adobe Illustrator 27.9.0, SVG Export Plug-In . SVG Version: 6.00 Build 0)  -->
<svg version="1.1" id="Layer_1" xmlns="http://www.w3.org/2000/svg" xmlns:xlink="http://www.w3.org/1999/xlink" x="0px" y="0px"
	 viewBox="0 0 435.4 138.6" style="enable-background:new 0 0 435.4 138.6;" xml:space="preserve">
<style type="text/css">
	.st0{fill:#FCE1E4;}
	.st1{fill-rule:evenodd;clip-rule:evenodd;fill:#CDB4DB;}
</style>
<g>
	<path class="st0" d="M107.5,130.1c-4.2,0.5-8-0.4-11.1-2.8c-3.1-2.5-4.8-6-5.3-10.5l-3.6-28.5l-38.8,4.7l3.6,28.5
		c0.1,0.8,0.1,1.6,0.1,2.4c0,4.1-1.2,7.4-3.7,9.9c-2.4,2.7-5.5,4.2-9.3,4.6c-4.2,0.6-8-0.3-11.1-2.8c-3.1-2.4-4.9-5.9-5.5-10.5
		L12.5,41.6c-0.1-0.9-0.1-1.7-0.1-2.5c0-4,1.2-7.2,3.6-9.8c2.4-2.7,5.5-4.2,9.5-4.7c4.2-0.5,7.9,0.5,11,3c3.2,2.4,5,5.8,5.5,10.4
		l3.4,27.6l38.8-4.7l-3.4-27.6c-0.1-0.8-0.1-1.6-0.1-2.4c0-4.1,1.2-7.4,3.6-9.9c2.5-2.7,5.6-4.2,9.5-4.6c4.2-0.6,7.9,0.3,11,2.8
		c3.2,2.4,5,5.9,5.6,10.5l10.2,83.5c0.1,0.9,0.1,1.7,0.1,2.5c0,4-1.2,7.3-3.6,9.9C114.7,128.1,111.5,129.6,107.5,130.1z M199.4,91.4
		L161,104.8c2.6,2.6,5.9,3.9,9.9,3.9c2.3,0,4.6-0.4,7.1-1.3c3.4-1.2,7-4,11-8.3c4-4.3,7-6.9,9-7.7c1.2-0.4,2.4-0.6,3.6-0.6
		c3.5,0,6.5,1.2,9,3.7c2.7,2.5,4,5.4,4,8.7c0,5.4-3.4,11.2-10.1,17.3c-6,5.6-12.6,9.7-19.9,12.2c-5.1,1.8-10.3,2.7-15.4,2.7
		c-9.2,0-17.4-2.8-24.8-8.3c-7.2-5.5-12.4-13-15.7-22.5c-1.8-5-2.7-10.3-2.7-15.7c0-9.1,2.3-17.2,7-24.5c5-7.7,11.9-13,20.6-16
		c4.3-1.5,8.7-2.2,13.2-2.2c9.1,0,17.5,2.9,25.3,8.7c7.4,5.4,12.5,12.1,15.1,20c0.7,2,1,3.9,1,5.6C208.4,85.7,205.4,89.4,199.4,91.4
		z M162,72c-5.7,2-8.6,6.1-8.7,12.5l23.3-8c-2.7-3.5-6-5.2-9.9-5.2C165.2,71.3,163.6,71.5,162,72z M234.5,134.6
		c-4.2-0.3-7.6-2-10.1-5c-2.4-3.2-3.4-7-3.1-11.6l6.4-91c0.3-4.4,1.9-8.1,4.7-10.8c2.9-2.8,6.4-4,10.7-3.7c4.2,0.3,7.6,2,9.9,5.2
		c2.5,3.1,3.6,6.9,3.3,11.4l-6.4,91c-0.3,4.4-1.9,8.1-4.7,10.8C242.3,133.6,238.8,134.9,234.5,134.6z M272.5,134.6
		c-4.2-0.3-7.6-2-10.1-5c-2.4-3.2-3.4-7-3.1-11.6l6.4-91c0.3-4.4,1.9-8.1,4.7-10.8c2.9-2.8,6.4-4,10.7-3.7c4.2,0.3,7.6,2,9.9,5.2
		c2.5,3.1,3.6,6.9,3.3,11.4l-6.4,91c-0.3,4.4-1.9,8.1-4.7,10.8C280.3,133.6,276.7,134.9,272.5,134.6z M342,135.6
		c-12.4,0.6-22.7-3.4-31.1-11.9c-8.1-8.2-12.5-18.4-13.2-30.7c-0.6-12.1,2.8-22.7,10.1-31.9c7.6-9.6,17.4-14.7,29.5-15.4
		c12.2-0.6,22.5,3.5,31,12.3c8.2,8.3,12.6,18.5,13.3,30.5c0.6,12.4-2.7,23-9.8,31.9C364.3,129.9,354.4,134.9,342,135.6z M338.7,72.8
		c-4.1,0.2-7.2,2.1-9.5,5.8c-2.2,3.6-3.1,7.9-2.8,13c0.3,4.9,1.7,9.1,4.3,12.5c2.6,3.3,5.8,4.8,9.8,4.6c4.1-0.2,7.2-2.1,9.3-5.6
		c2.3-3.6,3.3-7.9,3-12.9c-0.3-5-1.7-9.2-4.3-12.6C346.1,74.1,342.8,72.6,338.7,72.8z M391.8,89.6c0-1.3,0.1-2.6,0.4-3.9l14.8-55.1
		c1.8-6.7,6.2-10.1,13.2-10.1c4.1,0,7.5,1.2,10.4,3.7c3.2,2.8,4.7,6.1,4.7,10.1c0,1.3-0.2,2.5-0.6,3.7l-14.7,55.1
		c-1.9,6.8-6.3,10.2-13.3,10.2c-4.1,0-7.6-1.3-10.5-3.9C393.3,96.9,391.8,93.6,391.8,89.6z M383.1,118.9c0-4.2,1.5-7.7,4.4-10.7
		c3-3.1,6.6-4.6,10.8-4.6c4.1,0,7.7,1.5,10.7,4.4c3.1,3,4.6,6.6,4.6,10.8c0,4.2-1.5,7.9-4.4,10.8c-3,3-6.6,4.4-10.8,4.4
		c-4.1,0-7.8-1.5-10.8-4.4C384.6,126.7,383.1,123.1,383.1,118.9z"/>
	<path class="st1" d="M233.1,5c-3.6-0.3-6.4,0.8-8.8,3c-2.4,2.3-3.7,5.3-4,9.2l0,0l-6.4,91c0,0,0,0,0,0c-0.3,4,0.7,7.3,2.6,9.9
		c2,2.5,4.7,3.8,8.3,4.1c3.6,0.3,6.4-0.8,8.8-3c2.4-2.3,3.7-5.3,4-9.2v0l6.4-91c0,0,0,0,0,0c0.3-4-0.7-7.2-2.7-9.7l0,0l0,0
		C239.3,6.7,236.7,5.3,233.1,5z M220.8,4.4c3.4-3.3,7.7-4.7,12.6-4.4c4.9,0.3,8.9,2.4,11.7,6.1c2.9,3.6,4.1,8.1,3.8,13.1v0l-6.4,91
		c0,0,0,0,0,0c-0.3,5-2.1,9.2-5.5,12.5c-3.4,3.3-7.7,4.7-12.6,4.4c-4.9-0.3-8.9-2.3-11.9-6l0,0l0,0c-2.8-3.7-3.9-8.2-3.6-13.2l0,0
		l6.4-91c0,0,0,0,0,0C215.7,11.9,217.5,7.7,220.8,4.4z M271,5c-3.6-0.3-6.4,0.8-8.8,3c-2.4,2.3-3.7,5.3-4,9.2l0,0l-6.4,91
		c0,0,0,0,0,0c-0.3,4,0.7,7.3,2.6,9.9c2,2.5,4.7,3.8,8.3,4.1c3.6,0.3,6.4-0.8,8.8-3c2.4-2.3,3.7-5.3,4-9.2l6.4-91c0,0,0,0,0,0
		c0.3-4-0.7-7.2-2.7-9.7l0,0l0,0C277.2,6.7,274.6,5.3,271,5z M258.8,4.4c3.4-3.3,7.7-4.7,12.6-4.4c4.9,0.3,8.9,2.4,11.7,6.1
		c2.9,3.6,4.1,8.1,3.8,13.1l0,0l-6.4,91c0,0,0,0,0,0c-0.3,5-2.1,9.2-5.5,12.5c-3.4,3.3-7.7,4.7-12.6,4.4c-4.9-0.3-8.9-2.3-11.9-6
		l0,0l0,0c-2.8-3.7-3.9-8.2-3.6-13.2v0l6.4-91c0,0,0,0,0,0C253.6,11.9,255.4,7.7,258.8,4.4z M93.1,11.2c-2.5-2-5.4-2.8-9.1-2.3l0,0
		l0,0c-3.3,0.3-5.9,1.6-7.9,3.8c-1.9,2-2.9,4.7-2.9,8.2c0,0.7,0,1.4,0.1,2.1L77,53l-43.8,5.3l-3.7-30.1l0,0c-0.4-4-2-6.8-4.5-8.6
		l0,0l0,0c-2.5-2-5.5-2.8-9.1-2.4c-3.4,0.4-6,1.8-7.9,3.9l0,0l0,0C6,23.2,5,25.8,5,29.2c0,0.7,0,1.4,0.1,2.2c0,0,0,0,0,0l10.2,83.4
		c0,0,0,0,0,0c0.5,4.1,2.1,7,4.5,8.9l0,0c2.6,2,5.6,2.8,9.2,2.3l0,0l0,0c3.3-0.3,5.8-1.6,7.7-3.8l0,0l0,0c2-2,3-4.7,3-8.2
		c0-0.7,0-1.4-0.1-2.1L36,81l43.8-5.3l3.9,31l0,0c0.4,4,1.9,6.8,4.4,8.8c2.6,1.9,5.6,2.7,9.3,2.3c3.4-0.4,6-1.7,7.9-3.8
		c1.9-2.2,2.9-4.9,2.9-8.3c0-0.7,0-1.4-0.1-2.2c0,0,0,0,0,0L97.8,20.1c0,0,0,0,0,0C97.3,15.9,95.7,13.1,93.1,11.2L93.1,11.2
		L93.1,11.2z M96.2,7.2c-3.6-2.9-8-4-12.8-3.3c-4.4,0.5-8.1,2.2-11,5.4l0,0c-2.9,3.1-4.2,7.1-4.2,11.6c0,0.9,0.1,1.8,0.2,2.7
		l3.1,25.1l-33.9,4.1l-3.1-25.1c-0.6-5.1-2.7-9.2-6.4-12.1c-3.6-2.9-8-4-12.8-3.5l0,0l0,0c-4.5,0.6-8.2,2.4-11,5.5
		C1.4,20.9,0,24.7,0,29.2C0,30.1,0.1,31,0.2,32l0,0l10.2,83.5l0,0c0.7,5.2,2.7,9.3,6.4,12.2c3.7,2.9,8.1,4,13,3.3
		c4.4-0.5,8.1-2.2,10.9-5.4c3-3.1,4.4-7,4.4-11.6c0-0.9-0.1-1.8-0.2-2.7l-3.2-26l33.9-4.1l3.2,26c0.6,5.1,2.6,9.2,6.2,12.2l0,0l0,0
		c3.7,2.8,8.1,3.9,12.9,3.3l0,0l0,0c4.5-0.6,8.2-2.3,11-5.4l0,0l0,0c2.8-3.2,4.2-7.1,4.2-11.6c0-0.9-0.1-1.8-0.2-2.8l0,0l-10.2-83.5
		l0,0C102.1,14.3,100,10.1,96.2,7.2z M403.4,15.2c-1.7,1.3-2.9,3.2-3.7,6.2l0,0l-14.8,55.1c-0.2,1.1-0.4,2.2-0.4,3.2
		c0,3.2,1.2,5.9,3.6,8.1c2.5,2.2,5.4,3.2,8.9,3.2c3.1,0,5.4-0.7,7.1-2c1.7-1.3,3-3.3,3.9-6.3c0,0,0,0,0,0l14.7-55.2l0-0.1
		c0.3-0.9,0.5-1.9,0.5-2.9c0-3.2-1.2-5.9-3.9-8.2c-2.4-2-5.2-3.1-8.7-3.1C407.3,13.2,405,13.9,403.4,15.2z M400.3,11.2
		c2.7-2.1,6.2-3,10.1-3c4.6,0,8.7,1.4,12,4.3l0,0l0,0c3.7,3.2,5.6,7.2,5.6,12c0,1.5-0.2,3-0.7,4.4L412.7,84l0,0l0,0
		c-1,3.8-2.9,6.9-5.6,9c-1.9,1.5-4.2,2.4-6.7,2.8c0.2,0.2,0.4,0.4,0.6,0.6c3.5,3.4,5.3,7.7,5.3,12.6c0,4.9-1.7,9.1-5.2,12.6
		c-3.4,3.4-7.7,5.2-12.6,5.2c-4.8,0-9-1.7-12.6-5.1l0,0l0,0c-3.4-3.4-5.2-7.7-5.2-12.6c0-4.8,1.7-9,5.2-12.4c2.5-2.6,5.5-4.3,8.9-5
		l0,0c-3.5-3.1-5.3-7.1-5.3-11.8c0-1.5,0.2-3,0.5-4.4l0,0l14.8-55.2C395.8,16.4,397.6,13.3,400.3,11.2z M356.6,49.9
		c-8-8.3-17.6-12.1-29-11.5c-11.3,0.7-20.5,5.4-27.7,14.5l0,0c-6.9,8.7-10.1,18.7-9.5,30.2c0.7,11.7,4.8,21.3,12.5,29.1
		c7.9,8,17.6,11.7,29.2,11.1c11.7-0.7,20.9-5.4,28-14.2c6.7-8.4,9.8-18.4,9.2-30.2C368.5,67.4,364.3,57.8,356.6,49.9L356.6,49.9
		L356.6,49.9z M360.1,46.4c-9-9.3-20-13.7-32.9-13.1l0,0l0,0c-12.8,0.7-23.3,6.2-31.3,16.4c-7.7,9.7-11.2,20.9-10.6,33.5l0,0v0
		c0.7,12.8,5.4,23.6,13.9,32.3c8.9,9,20,13.2,33,12.6h0l0,0c13-0.7,23.6-6.1,31.6-16.1c7.5-9.4,10.9-20.6,10.3-33.5l0,0l0,0
		C373.5,66,368.8,55.2,360.1,46.4z M157.1,38.7c-4.2,0-8.3,0.7-12.4,2.1c-8.2,2.8-14.6,7.8-19.3,15c-4.4,6.8-6.6,14.5-6.6,23.1
		c0,5.2,0.8,10.1,2.5,14.9l0,0l0,0c3.1,9.1,8.1,16.2,14.9,21.4c6.9,5.2,14.6,7.8,23.2,7.8c4.8,0,9.7-0.8,14.6-2.5l0,0
		c6.9-2.3,13.2-6.2,19-11.6l0,0l0,0c6.5-6,9.3-11.1,9.3-15.5c0-2.6-1-4.9-3.2-6.9l0,0l0,0c-2.1-2-4.4-3-7.1-3
		c-0.5,0.2-1,0.4-1.6,0.6c0,0,0,0,0,0l-3.5,1.2c-0.3,0.2-0.6,0.4-0.9,0.7c-1.4,1.2-3.1,2.8-5,5c-4.1,4.5-8.1,7.6-12,9
		c-2.7,1-5.4,1.5-8,1.5c-4.6,0-8.6-1.5-11.7-4.6l-2.8-2.8l37.9-13.2c1-0.7,1.9-1.2,2.8-1.6l0,0l0.1,0c1.1-0.4,2.2-0.6,3.4-0.7
		c1.6-0.8,2.8-1.7,3.6-2.7c1.1-1.3,1.7-3,1.7-5.1c0-1.5-0.3-3-0.9-4.8l0,0l0,0c-2.5-7.4-7.2-13.6-14.2-18.8l0,0l0,0
		C173.5,41.4,165.6,38.7,157.1,38.7z M197.7,79.5c1.7,0.7,3.4,1.8,4.8,3.2c3.1,2.9,4.8,6.5,4.8,10.6c0,6.5-4,12.9-10.9,19.2
		c-6.3,5.8-13.2,10.1-20.7,12.7c-5.4,1.9-10.8,2.8-16.2,2.8c-9.7,0-18.5-2.9-26.3-8.8l0,0l0,0c-7.6-5.9-13.1-13.8-16.6-23.7
		c-1.9-5.3-2.8-10.8-2.8-16.5c0-9.5,2.4-18.2,7.4-25.8l0,0l0,0c5.3-8.2,12.7-13.9,21.9-17c4.6-1.6,9.3-2.4,14-2.4
		c9.7,0,18.6,3.1,26.8,9.2c7.8,5.7,13.1,12.8,16,21.2c0.8,2.2,1.2,4.3,1.2,6.4c0,3.1-0.9,5.9-2.8,8.3
		C198,79.1,197.9,79.3,197.7,79.5z M175.9,88.9l-19.1,6.6c1.3,0.4,2.7,0.7,4.3,0.7c1.9,0,4-0.4,6.3-1.2l0,0l0,0
		C169.8,94.2,172.6,92.2,175.9,88.9z M151.4,59.7c1.8-0.6,3.6-0.9,5.3-0.9c4.8,0,8.8,2.2,11.9,6.2l2.1,2.8l-29.9,10.3l0.1-3.6
		c0.1-3.5,0.9-6.7,2.7-9.3C145.4,62.7,148.1,60.9,151.4,59.7L151.4,59.7L151.4,59.7z M152.9,64.5c-2.4,0.9-4.1,2.1-5.2,3.7
		c-0.5,0.8-1,1.7-1.3,2.7l15.6-5.4c-1.6-1.1-3.4-1.6-5.3-1.6C155.6,63.9,154.3,64.1,152.9,64.5z M340.6,66.1c-2.9-4-7-6-11.9-5.7
		c-4.9,0.2-8.8,2.7-11.5,7l0,0l0,0c-2.5,4.1-3.5,9-3.2,14.5v0c0.3,5.4,1.9,10,4.8,13.8l0,0l0,0c3,3.9,7.1,5.8,11.9,5.5
		c4.9-0.2,8.7-2.6,11.3-6.8c2.6-4.1,3.7-8.9,3.3-14.4C345.1,74.6,343.6,69.9,340.6,66.1z M336.6,69.1c-2-2.7-4.5-3.9-7.6-3.7
		c-3.2,0.2-5.6,1.6-7.5,4.6c-1.8,3-2.7,6.8-2.4,11.6c0.3,4.5,1.6,8.2,3.8,11.1c2.1,2.7,4.6,3.8,7.7,3.6l0,0c3.2-0.2,5.6-1.6,7.3-4.4
		l0,0l0,0c1.9-3,2.8-6.8,2.6-11.4C340.2,75.7,338.9,72,336.6,69.1L336.6,69.1L336.6,69.1z M388.5,96.2c-3.6,0-6.5,1.3-9,3.8l0,0l0,0
		c-2.5,2.5-3.7,5.4-3.7,8.9c0,3.6,1.2,6.6,3.7,9c2.6,2.5,5.6,3.7,9.1,3.7c3.6,0,6.6-1.2,9.1-3.7c2.5-2.5,3.7-5.5,3.7-9.1
		c0-3.6-1.3-6.5-3.8-9l0,0l0,0C394.9,97.4,392,96.2,388.5,96.2z"/>
</g>
</svg>
