<?xml version="1.0" encoding="utf-8"?>
<!-- Generator: Adobe Illustrator 27.9.0, SVG Export Plug-In . SVG Version: 6.00 Build 0)  -->
<svg version="1.1" id="Layer_1" xmlns="http://www.w3.org/2000/svg" xmlns:xlink="http://www.w3.org/1999/xlink" x="0px" y="0px"
	 viewBox="0 0 437 199" style="enable-background:new 0 0 437 199;" xml:space="preserve">
<style type="text/css">
	.st0{fill:#FCE1E4;}
	.st1{fill-rule:evenodd;clip-rule:evenodd;fill:#CDB4DB;}
</style>
<g>
	<path class="st0" d="M108.2,160.3c-4.2,0.5-8-0.4-11.1-2.8c-3.1-2.5-4.8-6-5.3-10.5l-3.6-28.5l-38.8,4.7l3.6,28.5
		c0.1,0.8,0.1,1.6,0.1,2.4c0,4.1-1.2,7.4-3.7,9.9c-2.4,2.7-5.5,4.2-9.3,4.6c-4.2,0.6-8-0.3-11.1-2.8c-3.1-2.4-4.9-5.9-5.5-10.5
		L13.2,71.8c-0.1-0.9-0.1-1.7-0.1-2.5c0-4,1.2-7.2,3.6-9.8c2.4-2.7,5.5-4.2,9.5-4.7c4.2-0.5,7.9,0.5,11,3c3.2,2.4,5,5.8,5.5,10.4
		L46,95.7L84.8,91l-3.4-27.6c-0.1-0.8-0.1-1.6-0.1-2.4c0-4.1,1.2-7.4,3.6-9.9c2.5-2.7,5.6-4.2,9.5-4.6c4.2-0.6,7.9,0.3,11,2.8
		c3.2,2.4,5,5.9,5.6,10.5l10.2,83.5c0.1,0.9,0.1,1.7,0.1,2.5c0,4-1.2,7.3-3.6,9.9C115.4,158.3,112.2,159.8,108.2,160.3z
		 M200.1,121.6L161.7,135c2.6,2.6,5.9,3.9,9.9,3.9c2.3,0,4.6-0.4,7.1-1.3c3.4-1.2,7-4,11-8.3c4-4.3,7-6.9,9-7.7
		c1.2-0.4,2.4-0.6,3.6-0.6c3.5,0,6.5,1.2,9,3.7c2.7,2.5,4,5.4,4,8.7c0,5.4-3.4,11.2-10.1,17.3c-6,5.6-12.6,9.7-19.9,12.2
		c-5.1,1.8-10.3,2.7-15.4,2.7c-9.2,0-17.4-2.8-24.8-8.3c-7.2-5.5-12.4-13-15.7-22.5c-1.8-5-2.7-10.3-2.7-15.7c0-9.1,2.3-17.2,7-24.5
		c5-7.7,11.9-13,20.6-16c4.3-1.5,8.7-2.2,13.2-2.2c9.1,0,17.5,2.9,25.3,8.7c7.4,5.4,12.5,12.1,15.1,20c0.7,2,1,3.9,1,5.6
		C209.1,115.9,206.1,119.6,200.1,121.6z M162.7,102.2c-5.7,2-8.6,6.1-8.7,12.5l23.3-8c-2.7-3.5-6-5.2-9.9-5.2
		C165.9,101.5,164.3,101.7,162.7,102.2z M235.2,164.8c-4.2-0.3-7.6-2-10.1-5c-2.4-3.2-3.4-7-3.1-11.6l6.4-91
		c0.3-4.4,1.9-8.1,4.7-10.8c2.9-2.8,6.4-4,10.7-3.7c4.2,0.3,7.6,2,9.9,5.2c2.5,3.1,3.6,6.9,3.3,11.4l-6.4,91
		c-0.3,4.4-1.9,8.1-4.7,10.8C243,163.8,239.5,165.1,235.2,164.8z M273.2,164.8c-4.2-0.3-7.6-2-10.1-5c-2.4-3.2-3.4-7-3.1-11.6
		l6.4-91c0.3-4.4,1.9-8.1,4.7-10.8c2.9-2.8,6.4-4,10.7-3.7c4.2,0.3,7.6,2,9.9,5.2c2.5,3.1,3.6,6.9,3.3,11.4l-6.4,91
		c-0.3,4.4-1.9,8.1-4.7,10.8C281,163.8,277.4,165.1,273.2,164.8z M342.7,165.8c-12.4,0.6-22.7-3.4-31.1-11.9
		c-8.1-8.2-12.5-18.4-13.2-30.7c-0.6-12.1,2.8-22.7,10.1-31.9c7.6-9.6,17.4-14.7,29.5-15.4c12.2-0.6,22.5,3.5,31,12.3
		c8.2,8.3,12.6,18.5,13.3,30.5c0.6,12.4-2.7,23-9.8,31.9C365,160.1,355.1,165.1,342.7,165.8z M339.4,103c-4.1,0.2-7.2,2.1-9.5,5.8
		c-2.2,3.6-3.1,7.9-2.8,13c0.3,4.9,1.7,9.1,4.3,12.5c2.6,3.3,5.8,4.8,9.8,4.6c4.1-0.2,7.2-2.1,9.3-5.6c2.3-3.6,3.3-7.9,3-12.9
		c-0.3-5-1.7-9.2-4.3-12.6C346.8,104.3,343.5,102.8,339.4,103z M392.5,119.9c0-1.3,0.1-2.6,0.4-3.9l14.8-55.1
		c1.8-6.7,6.2-10.1,13.2-10.1c4.1,0,7.5,1.2,10.4,3.7c3.2,2.8,4.7,6.1,4.7,10.1c0,1.3-0.2,2.5-0.6,3.7l-14.7,55.1
		c-1.9,6.8-6.3,10.2-13.3,10.2c-4.1,0-7.6-1.3-10.5-3.9C394,127.1,392.5,123.8,392.5,119.9z M383.8,149.1c0-4.2,1.5-7.7,4.4-10.7
		c3-3.1,6.6-4.6,10.8-4.6c4.1,0,7.7,1.5,10.7,4.4c3.1,3,4.6,6.6,4.6,10.8c0,4.2-1.5,7.9-4.4,10.8c-3,3-6.6,4.4-10.8,4.4
		c-4.1,0-7.8-1.5-10.8-4.4C385.3,156.9,383.8,153.3,383.8,149.1z"/>
	<path class="st1" d="M233.8,35.2c-3.6-0.3-6.4,0.8-8.8,3c-2.4,2.3-3.7,5.3-4,9.2l0,0l-6.4,91c0,0,0,0,0,0c-0.3,4,0.7,7.3,2.6,9.9
		c2,2.5,4.7,3.8,8.3,4.1c3.6,0.3,6.4-0.8,8.8-3c2.4-2.3,3.7-5.3,4-9.2v0l6.4-91c0,0,0,0,0,0c0.3-4-0.7-7.2-2.7-9.7l0,0l0,0
		C240,36.9,237.4,35.5,233.8,35.2z M221.5,34.7c3.4-3.3,7.7-4.7,12.6-4.4c4.9,0.3,8.9,2.4,11.7,6.1c2.9,3.6,4.1,8.1,3.8,13.1l0,0
		l-6.4,91c0,0,0,0,0,0c-0.3,5-2.1,9.2-5.5,12.5c-3.4,3.3-7.7,4.7-12.6,4.4c-4.9-0.3-8.9-2.3-11.9-6l0,0l0,0
		c-2.8-3.7-3.9-8.2-3.6-13.2l0,0l6.4-91c0,0,0,0,0,0C216.4,42.1,218.2,37.9,221.5,34.7z M271.7,35.2c-3.6-0.3-6.4,0.8-8.8,3
		c-2.4,2.3-3.7,5.3-4,9.2l0,0l-6.4,91c0,0,0,0,0,0c-0.3,4,0.7,7.3,2.6,9.9c2,2.5,4.7,3.8,8.3,4.1c3.6,0.3,6.4-0.8,8.8-3
		c2.4-2.3,3.7-5.3,4-9.2l6.4-91c0,0,0,0,0,0c0.3-4-0.7-7.2-2.7-9.7l0,0l0,0C277.9,36.9,275.3,35.5,271.7,35.2z M259.5,34.7
		c3.4-3.3,7.7-4.7,12.6-4.4c4.9,0.3,8.9,2.4,11.7,6.1c2.9,3.6,4.1,8.1,3.8,13.1l0,0l-6.4,91c0,0,0,0,0,0c-0.3,5-2.1,9.2-5.5,12.5
		c-3.4,3.3-7.7,4.7-12.6,4.4c-4.9-0.3-8.9-2.3-11.9-6l0,0l0,0c-2.8-3.7-3.9-8.2-3.6-13.2l0,0l6.4-91c0,0,0,0,0,0
		C254.3,42.1,256.1,37.9,259.5,34.7z M93.8,41.4c-2.5-2-5.4-2.8-9.1-2.3l0,0l0,0c-3.3,0.3-5.9,1.6-7.9,3.8c-1.9,2-2.9,4.7-2.9,8.2
		c0,0.7,0,1.4,0.1,2.1l3.7,30.1l-43.8,5.3l-3.7-30.1l0,0c-0.4-4-2-6.8-4.5-8.6l0,0l0,0c-2.5-2-5.5-2.8-9.1-2.4
		c-3.4,0.4-6,1.8-7.9,3.9l0,0l0,0c-1.9,2-2.9,4.7-2.9,8.1c0,0.7,0,1.4,0.1,2.2c0,0,0,0,0,0l10.2,83.4c0,0,0,0,0,0
		c0.5,4.1,2.1,7,4.5,8.9l0,0c2.6,2,5.6,2.8,9.2,2.3l0,0l0,0c3.3-0.3,5.8-1.6,7.7-3.8l0,0l0,0c2-2,3-4.7,3-8.2c0-0.7,0-1.4-0.1-2.1
		l-3.9-30.9l43.8-5.3l3.9,31l0,0c0.4,4,1.9,6.8,4.4,8.8c2.6,1.9,5.6,2.7,9.3,2.3c3.4-0.4,6-1.7,7.9-3.8c1.9-2.2,2.9-4.9,2.9-8.3
		c0-0.7,0-1.4-0.1-2.2c0,0,0,0,0,0L98.5,50.3c0,0,0,0,0,0C98,46.1,96.4,43.3,93.8,41.4L93.8,41.4L93.8,41.4z M96.9,37.4
		c-3.6-2.9-8-4-12.8-3.3c-4.4,0.5-8.1,2.2-11,5.4l0,0c-2.9,3.1-4.2,7.1-4.2,11.6c0,0.9,0.1,1.8,0.2,2.7l3.1,25.1L38.3,83L35.2,58
		c-0.6-5.1-2.7-9.2-6.4-12.1c-3.6-2.9-8-4-12.8-3.5l0,0l0,0c-4.5,0.6-8.2,2.4-11,5.5c-2.8,3.1-4.2,7-4.2,11.5c0,0.9,0.1,1.8,0.2,2.8
		l0,0l10.2,83.5l0,0c0.7,5.2,2.7,9.3,6.4,12.2c3.7,2.9,8.1,4,13,3.3c4.4-0.5,8.1-2.2,10.9-5.4c3-3.1,4.4-7,4.4-11.6
		c0-0.9-0.1-1.8-0.2-2.7l-3.2-26l33.9-4.1l3.2,26c0.6,5.1,2.6,9.2,6.2,12.2l0,0l0,0c3.7,2.8,8.1,3.9,12.9,3.3l0,0l0,0
		c4.5-0.6,8.2-2.3,11-5.4l0,0l0,0c2.8-3.2,4.2-7.1,4.2-11.6c0-0.9-0.1-1.8-0.2-2.8l0,0l-10.2-83.5l0,0
		C102.8,44.5,100.7,40.3,96.9,37.4z M404.1,45.4c-1.7,1.3-2.9,3.2-3.7,6.2l0,0l-14.8,55.1c-0.2,1.1-0.4,2.2-0.4,3.2
		c0,3.2,1.2,5.9,3.6,8.1c2.5,2.2,5.4,3.2,8.9,3.2c3.1,0,5.4-0.7,7.1-2c1.7-1.3,3-3.3,3.9-6.3c0,0,0,0,0,0l14.7-55.2l0-0.1
		c0.3-0.9,0.5-1.9,0.5-2.9c0-3.2-1.2-5.9-3.9-8.2c-2.4-2-5.2-3.1-8.7-3.1C408,43.4,405.7,44.1,404.1,45.4z M401,41.4
		c2.7-2.1,6.2-3,10.1-3c4.6,0,8.7,1.4,12,4.3l0,0l0,0c3.7,3.2,5.6,7.2,5.6,12c0,1.5-0.2,3-0.7,4.4l-14.7,55.1l0,0l0,0
		c-1,3.8-2.9,6.9-5.6,9c-1.9,1.5-4.2,2.4-6.7,2.8c0.2,0.2,0.4,0.4,0.6,0.6c3.5,3.4,5.3,7.7,5.3,12.6c0,4.9-1.7,9.1-5.2,12.6
		c-3.4,3.4-7.7,5.2-12.6,5.2c-4.8,0-9-1.7-12.6-5.1l0,0l0,0c-3.4-3.4-5.2-7.7-5.2-12.6c0-4.8,1.7-9,5.2-12.4c2.5-2.6,5.5-4.3,8.9-5
		l0,0c-3.5-3.1-5.3-7.1-5.3-11.8c0-1.5,0.2-3,0.5-4.4l0,0l14.8-55.2C396.5,46.6,398.3,43.5,401,41.4z M357.3,80.1
		c-8-8.3-17.6-12.1-29-11.5c-11.3,0.7-20.5,5.4-27.7,14.5l0,0c-6.9,8.7-10.1,18.7-9.5,30.2c0.7,11.7,4.8,21.3,12.5,29.1
		c7.9,8,17.6,11.7,29.2,11.1c11.7-0.7,20.9-5.4,28-14.2c6.7-8.4,9.8-18.4,9.2-30.2C369.2,97.6,365,88,357.3,80.1L357.3,80.1
		L357.3,80.1z M360.8,76.7c-9-9.3-20-13.7-32.9-13.1l0,0l0,0c-12.8,0.7-23.3,6.2-31.3,16.4c-7.7,9.7-11.2,20.9-10.6,33.5l0,0v0
		c0.7,12.8,5.4,23.6,13.9,32.3c8.9,9,20,13.2,33,12.6h0l0,0c13-0.7,23.6-6.1,31.6-16.1c7.5-9.4,10.9-20.6,10.3-33.5l0,0l0,0
		C374.2,96.2,369.5,85.4,360.8,76.7z M157.7,68.9c-4.2,0-8.3,0.7-12.4,2.1c-8.2,2.8-14.6,7.8-19.3,15c-4.4,6.8-6.6,14.5-6.6,23.1
		c0,5.2,0.8,10.1,2.5,14.9l0,0l0,0c3.1,9.1,8.1,16.2,14.9,21.4c6.9,5.2,14.6,7.8,23.2,7.8c4.8,0,9.7-0.8,14.6-2.5l0,0
		c6.9-2.3,13.2-6.2,19-11.6l0,0l0,0c6.5-6,9.3-11.1,9.3-15.5c0-2.6-1-4.9-3.2-6.9l0,0l0,0c-2.1-2-4.4-3-7.1-3
		c-0.5,0.2-1,0.4-1.6,0.6c0,0,0,0,0,0l-3.5,1.2c-0.3,0.2-0.6,0.4-0.9,0.7c-1.4,1.2-3.1,2.8-5,5c-4.1,4.5-8.1,7.6-12,9
		c-2.7,1-5.4,1.5-8,1.5c-4.6,0-8.6-1.5-11.7-4.6l-2.8-2.8l37.9-13.2c1-0.7,1.9-1.2,2.8-1.6l0,0l0.1,0c1.1-0.4,2.2-0.6,3.4-0.7
		c1.6-0.8,2.8-1.7,3.6-2.7c1.1-1.3,1.7-3,1.7-5.1c0-1.5-0.3-3-0.9-4.8l0,0l0,0c-2.5-7.4-7.2-13.6-14.2-18.8l0,0l0,0
		C174.2,71.6,166.3,68.9,157.7,68.9z M198.4,109.7c1.7,0.7,3.4,1.8,4.8,3.2c3.1,2.9,4.8,6.5,4.8,10.6c0,6.5-4,12.9-10.9,19.2
		c-6.3,5.8-13.2,10.1-20.7,12.7c-5.4,1.9-10.8,2.8-16.2,2.8c-9.7,0-18.5-2.9-26.3-8.8l0,0l0,0c-7.6-5.9-13.1-13.8-16.6-23.7
		c-1.9-5.3-2.8-10.8-2.8-16.5c0-9.5,2.4-18.2,7.4-25.8l0,0l0,0c5.3-8.2,12.7-13.9,21.9-17c4.6-1.6,9.3-2.4,14-2.4
		c9.7,0,18.6,3.1,26.8,9.2c7.8,5.7,13.1,12.8,16,21.2c0.8,2.2,1.2,4.3,1.2,6.4c0,3.1-0.9,5.9-2.8,8.3
		C198.7,109.3,198.6,109.5,198.4,109.7z M176.6,119.1l-19.1,6.6c1.3,0.4,2.7,0.7,4.3,0.7c1.9,0,4-0.4,6.3-1.2l0,0l0,0
		C170.5,124.4,173.3,122.4,176.6,119.1z M152.1,89.9c1.8-0.6,3.6-0.9,5.3-0.9c4.8,0,8.8,2.2,11.9,6.2l2.1,2.8l-29.9,10.3l0.1-3.6
		c0.1-3.5,0.9-6.7,2.7-9.3C146.1,92.9,148.8,91.1,152.1,89.9L152.1,89.9L152.1,89.9z M153.6,94.7c-2.4,0.9-4.1,2.1-5.2,3.7
		c-0.5,0.8-1,1.7-1.3,2.7l15.6-5.4c-1.6-1.1-3.4-1.6-5.3-1.6C156.3,94.1,155,94.3,153.6,94.7z M341.3,96.3c-2.9-4-7-6-11.9-5.7
		c-4.9,0.2-8.8,2.7-11.5,7l0,0l0,0c-2.5,4.1-3.5,9-3.2,14.5v0c0.3,5.4,1.9,10,4.8,13.8l0,0l0,0c3,3.9,7.1,5.8,11.9,5.5
		c4.9-0.2,8.7-2.6,11.3-6.8c2.6-4.1,3.7-8.9,3.3-14.4C345.8,104.8,344.3,100.1,341.3,96.3z M337.3,99.3c-2-2.7-4.5-3.9-7.6-3.7
		c-3.2,0.2-5.6,1.6-7.5,4.6c-1.8,3-2.7,6.8-2.4,11.6c0.3,4.5,1.6,8.2,3.8,11.1c2.1,2.7,4.6,3.8,7.7,3.6l0,0c3.2-0.2,5.6-1.6,7.3-4.4
		l0,0l0,0c1.9-3,2.8-6.8,2.6-11.4C340.9,105.9,339.6,102.2,337.3,99.3L337.3,99.3L337.3,99.3z M389.2,126.4c-3.6,0-6.5,1.3-9,3.8
		l0,0l0,0c-2.5,2.5-3.7,5.4-3.7,8.9c0,3.6,1.2,6.6,3.7,9c2.6,2.5,5.6,3.7,9.1,3.7c3.6,0,6.6-1.2,9.1-3.7c2.5-2.5,3.7-5.5,3.7-9.1
		c0-3.6-1.3-6.5-3.8-9l0,0l0,0C395.6,127.6,392.7,126.4,389.2,126.4z"/>
</g>
</svg>
