<svg width="437" height="199" viewBox="0 0 437 199" fill="none" xmlns="http://www.w3.org/2000/svg">
<path d="M108.24 148.882C103.991 149.376 100.285 148.437 97.1229 146.065C94.0596 143.595 92.2809 140.087 91.7868 135.541L88.2294 107.082L49.3945 111.825L52.9519 140.285C53.0507 141.075 53.1001 141.866 53.1001 142.656C53.1001 146.708 51.8649 150.018 49.3945 152.587C47.0229 155.255 43.9102 156.787 40.0564 157.182C35.8073 157.775 32.1016 156.836 28.9395 154.366C25.8762 151.994 24.0481 148.486 23.4552 143.842L13.2277 60.3915C13.1289 59.5022 13.0795 58.6622 13.0795 57.8717C13.0795 53.919 14.2653 50.6581 16.6369 48.0889C19.0085 45.4208 22.1706 43.8398 26.1232 43.3457C30.3724 42.8516 34.0286 43.8398 37.0919 46.3102C40.254 48.6818 42.0821 52.1403 42.5762 56.6859L45.9854 84.2557L84.8202 79.5125L81.411 51.9427C81.3122 51.1522 81.2628 50.3616 81.2628 49.5711C81.2628 45.5196 82.4486 42.2093 84.8202 39.6401C87.2906 36.972 90.4528 35.4404 94.3066 35.0451C98.5557 34.4522 102.212 35.391 105.275 37.8614C108.437 40.233 110.315 43.7409 110.908 48.3853L121.135 131.836C121.234 132.725 121.283 133.565 121.283 134.356C121.283 138.308 120.098 141.619 117.726 144.287C115.354 146.856 112.192 148.388 108.24 148.882ZM200.092 110.195L161.701 123.535C164.271 126.104 167.581 127.389 171.632 127.389C173.905 127.389 176.277 126.944 178.747 126.055C182.107 124.869 185.763 122.102 189.716 117.754C193.668 113.407 196.682 110.837 198.758 110.047C199.943 109.652 201.129 109.454 202.315 109.454C205.773 109.454 208.787 110.689 211.357 113.16C214.025 115.63 215.359 118.545 215.359 121.905C215.359 127.34 211.999 133.12 205.279 139.247C199.252 144.88 192.631 148.931 185.417 151.401C180.279 153.18 175.14 154.07 170.002 154.07C160.812 154.07 152.561 151.303 145.248 145.769C138.035 140.235 132.798 132.725 129.537 123.239C127.758 118.199 126.869 112.962 126.869 107.527C126.869 98.4359 129.191 90.2835 133.835 83.0699C138.875 75.3622 145.742 70.0261 154.438 67.0616C158.786 65.5794 163.184 64.8383 167.63 64.8383C176.721 64.8383 185.17 67.7533 192.977 73.5835C200.388 79.0184 205.428 85.6885 208.096 93.5938C208.787 95.5702 209.133 97.4477 209.133 99.2264C209.133 104.464 206.119 108.12 200.092 110.195ZM162.739 90.7776C157.008 92.7539 154.092 96.9042 153.994 103.228L177.265 95.2243C174.597 91.7657 171.287 90.0365 167.334 90.0365C165.852 90.0365 164.32 90.2835 162.739 90.7776ZM235.225 153.328C230.976 153.032 227.617 151.352 225.146 148.289C222.775 145.127 221.737 141.273 222.033 136.727L228.407 45.7173C228.704 41.2705 230.285 37.6637 233.15 34.8969C236.016 32.13 239.573 30.8948 243.822 31.1913C248.072 31.4877 251.382 33.217 253.753 36.3791C256.224 39.4424 257.311 43.2469 257.014 47.7924L250.641 138.802C250.344 143.249 248.763 146.856 245.898 149.623C243.032 152.39 239.475 153.625 235.225 153.328ZM273.179 153.328C268.93 153.032 265.57 151.352 263.1 148.289C260.728 145.127 259.691 141.273 259.987 136.727L266.361 45.7173C266.657 41.2705 268.238 37.6637 271.104 34.8969C273.97 32.13 277.527 30.8948 281.776 31.1913C286.025 31.4877 289.336 33.217 291.707 36.3791C294.178 39.4424 295.265 43.2469 294.968 47.7924L288.594 138.802C288.298 143.249 286.717 146.856 283.851 149.623C280.986 152.39 277.428 153.625 273.179 153.328ZM342.701 154.366C330.349 154.959 319.973 151.006 311.574 142.508C303.471 134.306 299.074 124.079 298.382 111.825C297.789 99.7699 301.149 89.1471 308.461 79.9572C316.07 70.372 325.902 65.2335 337.958 64.5418C350.112 63.9489 360.439 68.0498 368.937 76.8445C377.139 85.145 381.585 95.3231 382.277 107.379C382.87 119.731 379.609 130.354 372.494 139.247C364.984 148.635 355.053 153.674 342.701 154.366ZM339.44 91.5187C335.389 91.7163 332.226 93.6433 329.954 97.2995C327.78 100.857 326.841 105.205 327.137 110.343C327.434 115.284 328.867 119.434 331.436 122.794C334.005 126.055 337.266 127.587 341.219 127.389C345.27 127.191 348.383 125.314 350.557 121.757C352.83 118.199 353.818 113.901 353.521 108.861C353.225 103.821 351.792 99.6217 349.223 96.2619C346.753 92.9021 343.492 91.3211 339.44 91.5187ZM392.538 108.416C392.538 107.132 392.686 105.847 392.983 104.562L407.805 49.4229C409.584 42.7034 413.981 39.3436 420.997 39.3436C425.049 39.3436 428.507 40.5788 431.373 43.0492C434.535 45.8161 436.116 49.1759 436.116 53.1285C436.116 54.4131 435.919 55.6483 435.523 56.8341L420.849 111.974C418.972 118.792 414.525 122.201 407.509 122.201C403.457 122.201 399.949 120.917 396.985 118.347C394.02 115.679 392.538 112.369 392.538 108.416ZM383.793 137.617C383.793 133.466 385.275 129.909 388.24 126.944C391.204 123.881 394.811 122.349 399.06 122.349C403.21 122.349 406.768 123.832 409.732 126.796C412.795 129.761 414.327 133.367 414.327 137.617C414.327 141.866 412.845 145.472 409.88 148.437C406.916 151.401 403.309 152.884 399.06 152.884C394.91 152.884 391.303 151.401 388.24 148.437C385.275 145.472 383.793 141.866 383.793 137.617Z" fill="#FCE1E4"/>
<path fill-rule="evenodd" clip-rule="evenodd" d="M233.767 23.8036C230.169 23.5526 227.323 24.576 225.005 26.8137C222.64 29.0973 221.28 32.0952 221.02 36.0019L221.019 36.0103L214.647 127.008C214.646 127.01 214.646 127.012 214.646 127.014C214.385 131.039 215.298 134.266 217.238 136.872C219.231 139.325 221.915 140.701 225.518 140.953C229.115 141.204 231.962 140.18 234.28 137.943C236.645 135.659 238.004 132.661 238.265 128.754L238.265 128.746L244.638 37.7481C244.638 37.7462 244.638 37.7442 244.639 37.7423C244.9 33.7199 243.94 30.5645 241.926 28.0669L241.898 28.0326L241.872 27.9975C239.973 25.4652 237.355 24.0539 233.767 23.8036ZM221.532 23.2167C224.946 19.9207 229.214 18.4738 234.115 18.8157C239.009 19.1572 243.003 21.1929 245.846 24.9624C248.751 28.584 249.957 33.0235 249.628 38.0735L249.627 38.0854L243.254 129.087C243.254 129.088 243.254 129.088 243.254 129.089C242.921 134.075 241.118 138.29 237.752 141.54C234.339 144.836 230.07 146.283 225.17 145.941C220.291 145.6 216.264 143.629 213.319 139.976L213.291 139.942L213.265 139.907C210.481 136.196 209.328 131.728 209.657 126.683L209.658 126.671L216.031 35.6693C216.031 35.6672 216.031 35.6651 216.031 35.6629C216.365 30.6789 218.167 26.4655 221.532 23.2167ZM271.72 23.8036C268.123 23.5526 265.276 24.576 262.959 26.8137C260.594 29.0973 259.234 32.0952 258.974 36.0019L258.973 36.0103L252.6 127.008C252.6 127.01 252.6 127.012 252.6 127.014C252.338 131.039 253.251 134.266 255.192 136.872C257.184 139.325 259.869 140.701 263.471 140.953C267.069 141.204 269.915 140.18 272.233 137.943C274.598 135.659 275.958 132.661 276.218 128.754L282.592 37.7481C282.592 37.7472 282.592 37.7463 282.592 37.7454C282.854 33.7215 281.894 30.5651 279.879 28.0669L279.852 28.0326L279.826 27.9975C277.926 25.4652 275.309 24.0539 271.72 23.8036ZM259.486 23.2167C262.9 19.9207 267.168 18.4738 272.068 18.8157C276.963 19.1571 280.957 21.1928 283.799 24.9621C286.705 28.5837 287.911 33.0233 287.581 38.0735L287.58 38.0854L281.207 129.087C281.207 129.088 281.207 129.088 281.207 129.089C280.874 134.075 279.072 138.29 275.706 141.54C272.292 144.836 268.024 146.283 263.123 145.941C258.245 145.6 254.218 143.629 251.272 139.976L251.245 139.942L251.218 139.907C248.435 136.196 247.282 131.728 247.611 126.683L247.612 126.671L253.985 35.6693C253.985 35.6672 253.985 35.6651 253.985 35.6629C254.319 30.6789 256.121 26.4655 259.486 23.2167ZM93.8242 29.9258C91.3503 27.9306 88.4042 27.1324 84.7705 27.6395L84.7254 27.6458L84.6801 27.6504C81.3886 27.988 78.8029 29.2653 76.7742 31.4557C74.897 33.4901 73.8812 36.1607 73.8812 39.6895C73.8812 40.3755 73.9241 41.0625 74.0101 41.751L77.727 71.8089L33.929 77.1583L30.2112 47.0928L30.2092 47.0744C29.7771 43.099 28.2303 40.3185 25.7103 38.4285L25.6751 38.4022L25.6409 38.3746C23.1505 36.3662 20.1832 35.5249 16.5413 35.946C13.1207 36.3757 10.5432 37.7089 8.62379 39.8681L8.6082 39.8857L8.59228 39.9029C6.70329 41.9493 5.69788 44.5776 5.69788 47.9901C5.69788 48.6734 5.74039 49.416 5.82929 50.2201C5.8298 50.2247 5.8303 50.2292 5.83081 50.2338L16.0535 133.644C16.0537 133.646 16.054 133.648 16.0543 133.65C16.5828 137.78 18.1565 140.625 20.5883 142.508L20.597 142.514C23.1857 144.537 26.1993 145.331 29.8293 144.825L29.8744 144.818L29.9197 144.814C33.2091 144.476 35.7254 143.204 37.6444 141.045L37.6769 141.008L37.7108 140.973C39.6713 138.934 40.7185 136.276 40.7185 132.775C40.7185 132.089 40.6757 131.402 40.5896 130.713L36.7213 99.7662L80.5193 94.4169L84.3884 125.37L84.3905 125.39C84.8236 129.374 86.332 132.224 88.7766 134.21C91.3715 136.143 94.4092 136.94 98.0577 136.518C101.497 136.086 104.079 134.79 105.992 132.727C107.902 130.569 108.902 127.876 108.902 124.474C108.902 123.791 108.859 123.048 108.771 122.244C108.77 122.24 108.769 122.235 108.769 122.23L98.5463 38.8203C98.546 38.8184 98.5458 38.8165 98.5456 38.8146C98.0205 34.7102 96.4148 31.8706 93.8936 29.9797L93.8585 29.9534L93.8242 29.9258ZM96.9289 26.0062C93.2945 23.0904 88.9559 22.0174 84.1246 22.6812C79.7287 23.1416 76.0062 24.9258 73.1042 28.0599L73.1016 28.0627C70.2365 31.1666 68.8812 35.1162 68.8812 39.6895C68.8812 40.5845 68.9372 41.4786 69.0488 42.3712L72.1503 67.4528L38.2785 71.5899L35.1779 46.5153C34.6205 41.4241 32.5229 37.3038 28.7455 34.4551C25.1188 31.545 20.7891 30.4184 15.9529 30.9808L15.9422 30.982L15.9316 30.9833C11.4603 31.5423 7.72243 33.365 4.90236 36.5288C2.05898 39.6181 0.697876 43.5056 0.697876 47.9901C0.697876 48.8839 0.753692 49.8167 0.861392 50.786L0.86295 50.8L11.0922 134.264L11.0937 134.277C11.7516 139.43 13.8321 143.598 17.5224 146.457C21.2457 149.365 25.6264 150.449 30.4752 149.783C34.8567 149.324 38.5387 147.547 41.3491 144.403C44.3062 141.309 45.7185 137.359 45.7185 132.775C45.7185 131.88 45.6626 130.985 45.551 130.093L42.3046 104.121L76.1763 99.9844L79.4221 125.951C79.9784 131.03 82.0149 135.181 85.6719 138.13L85.7061 138.157L85.7413 138.184C89.4601 140.973 93.8189 142.045 98.6469 141.483L98.6575 141.482L98.6682 141.481C103.12 140.924 106.854 139.164 109.682 136.101L109.697 136.083L109.713 136.066C112.536 132.89 113.902 128.968 113.902 124.474C113.902 123.58 113.846 122.647 113.738 121.678L113.737 121.664L103.508 38.1996L103.506 38.1871C102.847 33.0218 100.709 28.857 96.9289 26.0062ZM404.073 33.9683C402.418 35.2331 401.125 37.2177 400.34 40.181L400.338 40.1903L385.527 95.2855C385.279 96.3762 385.157 97.4582 385.157 98.5347C385.157 101.764 386.327 104.396 388.758 106.592C391.248 108.743 394.164 109.82 397.627 109.82C400.726 109.82 403.016 109.072 404.703 107.779C406.39 106.485 407.722 104.456 408.555 101.438C408.555 101.435 408.556 101.432 408.557 101.428L423.246 46.235L423.27 46.1619C423.578 45.2381 423.735 44.2703 423.735 43.2469C423.735 40.0678 422.506 37.3797 419.852 35.055C417.475 33.0089 414.61 31.962 411.116 31.962C408.007 31.962 405.731 32.7017 404.073 33.9683ZM401.038 29.9953C403.777 27.9021 407.208 26.962 411.116 26.962C415.72 26.962 419.771 28.3834 423.124 31.2741L423.131 31.2801L423.138 31.2861C426.804 34.4938 428.735 38.5233 428.735 43.2469C428.735 44.7654 428.504 46.2423 428.039 47.6665L413.383 102.735L413.381 102.745L413.378 102.756C412.333 106.551 410.503 109.632 407.745 111.747C405.81 113.231 403.539 114.145 401.004 114.558C401.207 114.744 401.406 114.935 401.604 115.132C405.142 118.563 406.946 122.813 406.946 127.735C406.946 132.637 405.207 136.883 401.767 140.323C398.326 143.764 394.081 145.502 389.178 145.502C384.36 145.502 380.135 143.754 376.619 140.352L376.605 140.338L376.59 140.323C373.15 136.883 371.411 132.637 371.411 127.735C371.411 122.92 373.158 118.734 376.576 115.309C379.108 112.699 382.084 111.033 385.447 110.339L385.431 110.324C381.945 107.187 380.157 103.203 380.157 98.5347C380.157 97.0559 380.327 95.5828 380.665 94.1187L380.675 94.0751L395.507 38.9015C396.501 35.1453 398.296 32.0902 401.038 29.9953ZM357.257 68.7C349.259 60.423 339.635 56.602 328.209 57.1567C316.881 57.8094 307.708 62.5971 300.538 71.6299L300.536 71.6321C293.615 80.3297 290.435 90.3478 290.997 101.811C291.658 113.495 295.827 123.132 303.47 130.869C311.349 138.84 321.023 142.545 332.69 141.988C344.351 141.332 353.611 136.616 360.66 127.804C367.359 119.431 370.463 109.424 369.899 97.6296C369.239 86.1629 365.033 76.5691 357.277 68.72L357.267 68.71L357.257 68.7ZM360.844 65.2163C351.85 55.913 340.828 51.5352 327.954 52.1631L327.944 52.1637L327.933 52.1643C315.155 52.8974 304.667 58.3864 296.621 68.5212C288.921 78.2004 285.382 89.4236 286.003 102.067L286.004 102.076L286.004 102.085C286.728 114.903 291.354 125.719 299.914 134.383C308.832 143.406 319.906 147.607 332.939 146.981L332.949 146.981L332.959 146.98C345.997 146.25 356.596 140.888 364.565 130.927C372.094 121.516 375.512 110.281 374.893 97.3772L374.892 97.3656L374.891 97.3539C374.166 84.7192 369.483 73.9639 360.844 65.2163ZM157.749 57.4566C153.585 57.4566 149.46 58.1496 145.363 59.5463C137.2 62.3294 130.786 67.3109 126.051 74.5488C121.685 81.3326 119.487 89.0072 119.487 97.6453C119.487 102.802 120.33 107.757 122.012 112.525L122.016 112.535L122.019 112.544C125.137 121.614 130.102 128.696 136.883 133.899C143.758 139.1 151.477 141.688 160.12 141.688C164.965 141.688 169.827 140.85 174.718 139.157L174.726 139.155C181.579 136.808 187.899 132.951 193.691 127.539L193.702 127.528L193.713 127.518C200.248 121.56 202.977 116.403 202.977 112.023C202.977 109.421 201.981 107.153 199.776 105.112L199.759 105.096L199.742 105.08C197.667 103.084 195.323 102.113 192.606 102.073C192.097 102.288 191.571 102.489 191.029 102.676C191.027 102.676 191.025 102.677 191.024 102.677L187.537 103.889C187.27 104.096 186.985 104.328 186.681 104.588C185.283 105.779 183.62 107.425 181.684 109.555C177.616 114.029 173.628 117.141 169.706 118.528C167.007 119.499 164.351 120.007 161.751 120.007C157.12 120.007 153.146 118.515 150.052 115.421L147.232 112.601L185.165 99.42C186.135 98.7231 187.079 98.1743 187.986 97.8289L188.035 97.8101L188.085 97.7934C189.195 97.4237 190.319 97.193 191.455 97.1086C193.072 96.3256 194.246 95.4149 195.062 94.4247C196.161 93.0921 196.752 91.4483 196.752 89.3447C196.752 87.8921 196.469 86.2949 195.854 84.5381L195.85 84.5249L195.845 84.5117C193.358 77.1432 188.657 70.8809 181.617 65.7179L181.608 65.7114L181.599 65.7049C174.192 60.1728 166.261 57.4566 157.749 57.4566ZM198.362 98.238C200.107 98.9725 201.721 100.05 203.191 101.459C206.312 104.356 207.977 107.913 207.977 112.023C207.977 118.51 203.991 124.911 197.093 131.203C190.833 137.05 183.917 141.291 176.349 143.884C170.965 145.747 165.552 146.688 160.12 146.688C150.387 146.688 141.606 143.744 133.858 137.881L133.852 137.876L133.845 137.871C126.204 132.009 120.698 124.076 117.294 114.18C115.422 108.871 114.487 103.355 114.487 97.6453C114.487 88.1043 116.932 79.4766 121.851 71.8349L121.856 71.8275L121.861 71.8201C127.205 63.6468 134.525 57.9586 143.75 54.8137C148.349 53.2459 153.019 52.4566 157.749 52.4566C167.415 52.4566 176.379 55.5684 184.582 61.6922C192.355 67.3948 197.729 74.466 200.578 82.899C201.344 85.0904 201.752 87.244 201.752 89.3447C201.752 92.4784 200.836 95.2813 198.92 97.605C198.742 97.8217 198.556 98.0327 198.362 98.238ZM176.555 107.705L157.469 114.337C158.737 114.78 160.157 115.007 161.751 115.007C163.694 115.007 165.779 114.628 168.019 113.821L168.026 113.819L168.034 113.816C170.475 112.954 173.319 110.998 176.555 107.705ZM152.112 78.5097C153.906 77.949 155.689 77.6548 157.452 77.6548C162.269 77.6548 166.278 79.8174 169.363 83.8157L171.49 86.5738L141.557 96.8695L141.612 93.3077C141.668 89.769 142.517 86.6302 144.327 84.054C146.142 81.4692 148.779 79.6579 152.042 78.5325L152.077 78.5206L152.112 78.5097ZM153.638 83.2713C151.189 84.122 149.513 85.3696 148.418 86.9278C147.872 87.7059 147.435 88.612 147.127 89.666L162.763 84.2881C161.163 83.1718 159.403 82.6548 157.452 82.6548C156.261 82.6548 154.993 82.8513 153.638 83.2713ZM341.341 84.8802C338.392 80.8807 334.346 78.9006 329.437 79.14C324.508 79.3805 320.624 81.7952 317.949 86.098L317.944 86.1061L317.939 86.1142C315.443 90.1986 314.441 95.0793 314.76 100.606L314.76 100.611C315.081 105.962 316.648 110.612 319.568 114.431L319.579 114.445L319.591 114.46C322.631 118.319 326.653 120.244 331.459 120.004C336.356 119.766 340.204 117.427 342.795 113.2C345.394 109.121 346.456 104.283 346.136 98.8325C345.816 93.4019 344.259 88.7043 341.341 84.8802ZM337.327 87.8612C335.337 85.154 332.867 83.9787 329.68 84.1341C326.509 84.2888 324.07 85.7258 322.2 88.7307C320.352 91.7588 319.478 95.5698 319.751 100.314C320.023 104.836 321.318 108.481 323.529 111.379C325.624 114.031 328.12 115.165 331.212 115.011L331.215 115.01C334.413 114.854 336.785 113.446 338.542 110.571L338.555 110.55L338.569 110.529C340.505 107.497 341.416 103.745 341.144 99.1262C340.871 94.4863 339.567 90.791 337.355 87.8989L337.341 87.8802L337.327 87.8612ZM389.178 114.968C385.609 114.968 382.65 116.223 380.155 118.801L380.14 118.816L380.126 118.831C377.625 121.332 376.411 124.255 376.411 127.735C376.411 131.324 377.633 134.288 380.112 136.774C382.72 139.291 385.703 140.502 389.178 140.502C392.775 140.502 395.742 139.276 398.231 136.788C400.72 134.299 401.946 131.331 401.946 127.735C401.946 124.166 400.69 121.206 398.112 118.711L398.097 118.697L398.083 118.682C395.582 116.181 392.658 114.968 389.178 114.968Z" fill="#CDB4DB"/>
</svg>
