<?xml version="1.0" encoding="utf-8"?>
<!-- Generator: Adobe Illustrator 27.5.0, SVG Export Plug-In . SVG Version: 6.00 Build 0)  -->
<svg version="1.1" id="Layer_1" xmlns="http://www.w3.org/2000/svg" xmlns:xlink="http://www.w3.org/1999/xlink" x="0px" y="0px"
	 viewBox="0 0 886 182" style="enable-background:new 0 0 886 182;" xml:space="preserve">
<style type="text/css">
	.st0{fill:#DAEAF6;}
	.st1{fill:#FFAFCC;}
	.st2{fill:#FFF1A9;}
	.st3{fill:#CDB4DB;}
</style>
<path class="st0" d="M80.4,130.7c-1.9,0.4-3.8,0.6-5.9,0.6c-4.9,0-9.2-1-12.9-2.9c-4.6-2.4-6.9-5.8-6.9-10.2c0-2.7,0.9-5,2.6-6.9
	c1.7-1.9,3.9-2.8,6.6-2.8c1.3,0,3.4,0.4,6.3,1.1c2.5,0.7,4.4,1,5.7,0.8c1.9-0.4,2.9-1.5,2.9-3.4c0-0.3-0.2-1.5-0.6-3.7l-8.3-47
	c-0.1-0.9-0.2-1.7-0.2-2.6c0-3.2,1.1-5.8,3.2-7.8c2.2-2.1,5-3.1,8.2-3.1c2.7,0,5,0.9,6.9,2.6c2,1.6,3.3,4,3.8,7l8.4,48.1
	c0.4,2.4,0.7,4.6,0.7,6.8c0,7-2.2,12.7-6.6,16.9C90.7,127.6,86,129.7,80.4,130.7z M164.8,125c-1,0.2-1.9,0.3-2.9,0.3
	c-2.5,0-4.7-1-6.6-2.9c-3.2,4.4-7.4,7.2-12.7,8.3c-2.1,0.5-4.3,0.8-6.4,0.8c-7,0-13.2-2.4-18.7-7.3c-5.4-5-9.1-11.5-11-19.6
	c-0.7-3-1-5.9-1-8.9c0-7.5,2-14,6-19.7c4-5.7,9.3-9.3,15.9-10.9c1.9-0.4,3.7-0.7,5.4-0.7c3.5,0,6.7,0.8,9.7,2.3
	c1.3-3.3,3.8-5.3,7.3-6.2c1.2-0.2,2.3-0.3,3.3-0.3c4.9,0,8.2,3.6,9.9,10.9l8.9,38.6c0.5,2.4,0.8,4.3,0.8,5.9
	C172.8,120.7,170.1,123.8,164.8,125z M127.1,95.4c0,1.5,0.1,3,0.4,4.6c0.7,3.2,2.1,5.8,4,7.9c1.9,2.1,4.2,3.1,6.7,3.1
	c2.9,0,5.1-1.1,6.7-3.4c1.5-2,2.2-4.5,2.2-7.6c0-1.4-0.2-2.9-0.6-4.4c-0.7-3.3-2.1-5.9-4-8c-1.9-2.1-4.1-3.2-6.6-3.2
	c-2.9,0-5.1,1.1-6.7,3.3C127.8,89.7,127.1,92.3,127.1,95.4z M227.7,73.7l-11.1,71c-0.9,5.7-3.6,9.1-8,10.1c-1.1,0.3-2.2,0.4-3.2,0.4
	c-2.4,0-4.6-0.7-6.4-2.1c-1.8-1.3-2.9-3.1-3.3-5.2c-0.2-0.8-0.3-1.9-0.3-3.1c0-3,0.5-7.2,1.4-12.6c0.5-2.5,1-5,1.4-7.6l-26.5-38.1
	c-1.6-2.2-2.3-4.4-2.3-6.7c0-2.4,0.9-4.5,2.7-6.4c1.6-1.8,3.4-2.9,5.4-3.3c1-0.2,1.9-0.3,2.8-0.3c3.9,0,6.9,1.7,9.2,5.2l13.5,20.7
	l3.7-24.7c0.4-2.8,1.6-5.2,3.6-7c2-1.9,4.4-2.9,7.1-2.9c2.3,0,4.4,0.6,6.2,1.8c2.1,1.4,3.5,3.3,4,5.6C228,70.2,228,72,227.7,73.7z
	 M245,64.1c-3.2,0.2-6-0.8-8.4-3.1c-2.4-2.3-3.8-5-4-8.2c-0.1-3,0.9-5.8,3.1-8.2c2.3-2.4,5-3.7,8.1-3.9c3.1-0.2,5.9,0.8,8.3,3
	c2.5,2.1,3.9,4.8,4,7.9c0.1,3.3-0.9,6.2-3,8.7C251,62.7,248.3,64,245,64.1z M248.5,130.5c-3.2,0.2-5.9-0.7-8-2.9
	c-2.1-2.1-3.2-4.8-3.3-8.1l-2.2-42.7c-0.2-3.3,0.6-6.2,2.4-8.4c1.9-2.3,4.5-3.6,7.7-3.8c3.2-0.1,5.8,0.9,7.9,3
	c2.1,2.1,3.3,4.8,3.4,8.1l2.3,42.7c0.1,3.3-0.7,6.2-2.7,8.4C254.2,129.1,251.7,130.3,248.5,130.5z M306.7,133.8
	c-2.5-0.6-4.5-1.9-6-3.8c-1.5-1.9-2.2-4.2-2.2-6.8c0-1,0.1-2.1,0.3-3.2l6.3-27.1c0.2-1,0.3-1.9,0.3-2.8c0-2.2-0.8-4-2.3-5.2
	c-1.6-1.3-3.4-2-5.7-2c-3.7,0-6.1,2.2-7.1,6.6l-6.2,27.2c-0.7,2.7-2,5-3.9,6.7c-1.9,1.7-4.2,2.6-6.7,2.6c-0.9,0-1.7-0.1-2.6-0.3
	c-2.6-0.6-4.6-1.9-6-3.8c-1.5-1.9-2.2-4.2-2.2-6.8c0-1.1,0.1-2.2,0.3-3.2l9.6-41.6c0.7-2.8,2-5,3.9-6.7c1.9-1.7,4.1-2.6,6.7-2.6
	c4.7,0,8,1.9,9.8,5.7c2.4-1.2,5.2-1.8,8.3-1.8c2.1,0,4.3,0.3,6.8,0.9c5.9,1.3,10.5,4,14,8.1c3.6,4.1,5.3,9,5.3,14.7
	c0,2.1-0.2,4.2-0.7,6.4l-7,29.9c-0.6,2.8-1.9,5-3.8,6.7c-1.9,1.7-4.2,2.6-6.8,2.6C308.4,134.1,307.5,134,306.7,133.8z M387.5,98.1
	l-28.8,10c1.9,1.9,4.4,2.9,7.4,2.9c1.7,0,3.5-0.3,5.3-1c2.5-0.9,5.3-3,8.2-6.2c3-3.3,5.2-5.2,6.8-5.8c0.9-0.3,1.8-0.4,2.7-0.4
	c2.6,0,4.9,0.9,6.8,2.8c2,1.9,3,4,3,6.6c0,4.1-2.5,8.4-7.6,13c-4.5,4.2-9.5,7.3-14.9,9.1c-3.9,1.3-7.7,2-11.6,2
	c-6.9,0-13.1-2.1-18.6-6.2c-5.4-4.2-9.3-9.8-11.8-16.9c-1.3-3.8-2-7.7-2-11.8c0-6.8,1.7-12.9,5.2-18.3c3.8-5.8,8.9-9.8,15.5-12
	c3.3-1.1,6.6-1.7,9.9-1.7c6.8,0,13.2,2.2,19,6.6c5.6,4.1,9.3,9.1,11.3,15c0.5,1.5,0.8,2.9,0.8,4.2C394.3,93.8,392,96.6,387.5,98.1z
	 M359.5,83.6c-4.3,1.5-6.5,4.6-6.6,9.3l17.5-6c-2-2.6-4.5-3.9-7.4-3.9C361.8,83,360.7,83.2,359.5,83.6z M495.9,89.7
	c-1.5-5.9-3.3-17.7-5.6-35.2c-0.1-0.7-0.1-1.3-0.1-2c0-2.9,0.9-5.3,2.7-7.2c1.9-1.9,4.2-3.1,7.1-3.4c3.2-0.4,5.9,0.3,8.2,2.1
	c2.4,1.8,3.8,4.4,4.2,7.9l7.7,62.7c0.1,0.6,0.1,1.2,0.1,1.8c0,3-0.9,5.4-2.7,7.4c-1.8,1.9-4.2,3.1-7.1,3.4c-1.5,0.2-3.2,0-5.1-0.7
	c-1.9-0.7-3.4-1.7-4.6-2.9l-36.6-37.7c1.5,5.9,3.3,17.5,5.6,34.8c0.1,0.7,0.1,1.3,0.1,2c0,2.9-0.9,5.3-2.8,7.2
	c-1.8,1.9-4.1,3.1-7,3.4c-3.2,0.4-6-0.3-8.3-2.1c-2.3-1.8-3.7-4.4-4.1-7.9L440,60.7c-0.1-0.6-0.1-1.2-0.1-1.8c0-3,0.9-5.4,2.7-7.3
	c1.8-2,4.1-3.2,7.1-3.6c1.5-0.2,3.2,0,5.1,0.8c1.9,0.7,3.4,1.6,4.6,2.8L495.9,89.7z M570.4,125c-2.6,3.1-6.6,5.3-12,6.6
	c-2.2,0.4-4.4,0.7-6.4,0.7c-8.6,0-15.7-4-21.3-12c-5-7.2-7.6-15.2-7.6-24.1c0-7.3,1.8-13.7,5.4-19.2c3.9-5.9,9.4-9.7,16.3-11.3
	c1.6-0.4,3.3-0.6,5-0.6c3.6,0,6.9,0.7,9.7,2.2c1.3-3.2,3.8-5.2,7.6-6.1c0.9-0.2,1.7-0.3,2.6-0.3c2.6,0,4.9,0.9,6.8,2.6
	c1.9,1.7,3.2,3.9,3.8,6.7l10.5,45.1c0.7,3,1.1,6,1.1,8.9c0,7.6-2.4,13.9-7.2,19c-4.7,5.1-11.2,8.6-19.5,10.4c-2.4,0.6-5.4,0.9-9,0.9
	c-5.1,0-9.6-0.6-13.3-1.9c-5.6-1.8-8.4-4.7-8.4-8.8c0-2.1,0.6-4.2,1.9-6.2c1.3-2,3-3.2,5-3.7c1-0.2,2-0.3,3.1-0.3
	c1.2,0,3.2,0.2,5.9,0.6c2.8,0.4,5,0.7,6.7,0.7c1.8,0,3.4-0.2,5-0.6C567.5,132.9,570.3,129.8,570.4,125z M544.5,95.7
	c0,1.4,0.2,2.8,0.6,4.2c1.7,7.6,5.2,11.3,10.5,11.3c2.9,0,5.2-1.1,6.9-3.3c1.5-1.9,2.2-4.4,2.2-7.4c0-1.4-0.2-2.9-0.6-4.3
	c-0.7-3.4-2.1-6.2-4-8.3c-1.9-2.1-4.1-3.2-6.7-3.2c-2.9,0-5.1,1.2-6.7,3.6C545.2,90.2,544.5,92.7,544.5,95.7z M627.6,131.3
	c-9,0.4-16.3-1.5-21.8-5.9c-5.4-4.4-8.3-10.7-8.7-18.7l-1.6-28.9c-0.1-3.3,0.7-6.2,2.6-8.4c1.9-2.4,4.5-3.6,7.7-3.8
	c3.1-0.1,5.7,0.9,7.9,3c2.2,2.1,3.3,4.8,3.4,8.1l1.4,28.5c0.1,2.4,1,4.2,2.4,5.4c1.6,1.3,3.4,1.9,5.6,1.8c2.1-0.1,3.8-0.9,5.2-2.3
	s2-3.3,1.9-5.7l-1.4-28.5c-0.2-3.3,0.6-6.2,2.4-8.4c1.9-2.4,4.5-3.6,7.7-3.8c3.2-0.1,5.8,0.8,7.9,2.9c2.1,2.1,3.3,4.8,3.4,8.2
	l1.6,28.8c0.4,8.1-1.8,14.6-6.8,19.6C643.6,128,636.6,130.7,627.6,131.3z M716.1,73.7l-11.1,71c-0.9,5.7-3.6,9.1-8,10.1
	c-1.1,0.3-2.2,0.4-3.2,0.4c-2.4,0-4.6-0.7-6.4-2.1c-1.8-1.3-2.9-3.1-3.3-5.2c-0.2-0.8-0.3-1.9-0.3-3.1c0-3,0.5-7.2,1.4-12.6
	c0.5-2.5,1-5,1.4-7.6l-26.5-38.1c-1.6-2.2-2.3-4.4-2.3-6.7c0-2.4,0.9-4.5,2.7-6.4c1.6-1.8,3.4-2.9,5.4-3.3c1-0.2,1.9-0.3,2.8-0.3
	c3.9,0,6.9,1.7,9.2,5.2l13.5,20.7L695,71c0.4-2.8,1.6-5.2,3.6-7c2-1.9,4.4-2.9,7.1-2.9c2.3,0,4.4,0.6,6.2,1.8c2.1,1.4,3.5,3.3,4,5.6
	C716.3,70.2,716.4,72,716.1,73.7z M775.2,98.1l-28.8,10c1.9,1.9,4.4,2.9,7.4,2.9c1.7,0,3.5-0.3,5.3-1c2.5-0.9,5.3-3,8.2-6.2
	c3-3.3,5.2-5.2,6.8-5.8c0.9-0.3,1.8-0.4,2.7-0.4c2.6,0,4.9,0.9,6.8,2.8c2,1.9,3,4,3,6.6c0,4.1-2.5,8.4-7.6,13
	c-4.5,4.2-9.5,7.3-14.9,9.1c-3.9,1.3-7.7,2-11.6,2c-6.9,0-13.1-2.1-18.6-6.2c-5.4-4.2-9.3-9.8-11.8-16.9c-1.3-3.8-2-7.7-2-11.8
	c0-6.8,1.7-12.9,5.2-18.3c3.8-5.8,8.9-9.8,15.5-12c3.3-1.1,6.6-1.7,9.9-1.7c6.8,0,13.2,2.2,19,6.6c5.6,4.1,9.3,9.1,11.3,15
	c0.5,1.5,0.8,2.9,0.8,4.2C782,93.8,779.7,96.6,775.2,98.1z M747.2,83.6c-4.3,1.5-6.5,4.6-6.6,9.3l17.5-6c-2-2.6-4.5-3.9-7.4-3.9
	C749.5,83,748.4,83.2,747.2,83.6z M833.7,133.8c-2.5-0.6-4.5-1.9-6-3.8c-1.5-1.9-2.2-4.2-2.2-6.8c0-1,0.1-2.1,0.3-3.2l6.3-27.1
	c0.2-1,0.3-1.9,0.3-2.8c0-2.2-0.8-4-2.3-5.2c-1.6-1.3-3.4-2-5.7-2c-3.7,0-6.1,2.2-7.1,6.6l-6.2,27.2c-0.7,2.7-2,5-3.9,6.7
	c-1.9,1.7-4.2,2.6-6.7,2.6c-0.9,0-1.7-0.1-2.6-0.3c-2.6-0.6-4.6-1.9-6-3.8c-1.5-1.9-2.2-4.2-2.2-6.8c0-1.1,0.1-2.2,0.3-3.2l9.6-41.6
	c0.7-2.8,2-5,3.9-6.7c1.9-1.7,4.2-2.6,6.7-2.6c4.7,0,8,1.9,9.8,5.7c2.4-1.2,5.2-1.8,8.3-1.8c2.1,0,4.3,0.3,6.8,0.9
	c5.9,1.3,10.5,4,14,8.1c3.6,4.1,5.3,9,5.3,14.7c0,2.1-0.2,4.2-0.7,6.4l-7,29.9c-0.6,2.8-1.9,5-3.8,6.7c-1.9,1.7-4.2,2.6-6.8,2.6
	C835.4,134.1,834.6,134,833.7,133.8z"/>
<path class="st1" d="M687.8,151c-2.8,0-5.4-0.8-7.5-2.5c-2.1-1.6-3.4-3.7-4-6.2c-0.3-1-0.4-2.1-0.4-3.5c0-3.1,0.5-7.4,1.5-12.9
	c0.5-2.3,0.9-4.6,1.3-6.8l-26-37.5c-1.8-2.5-2.6-5.1-2.6-7.7c0-2.8,1.1-5.4,3.1-7.6c1.8-2,3.9-3.3,6.4-3.9c1.1-0.2,2.1-0.4,3.1-0.4
	c4.5,0,8.1,2,10.7,6l10.9,16.8l3-20.1c0.5-3.2,1.9-5.9,4.1-8c2.3-2.2,5.1-3.4,8.3-3.4c2.6,0,5,0.7,7.2,2.1c2.5,1.7,4.1,3.9,4.8,6.6
	c0.5,2,0.6,4,0.2,5.9l-11.1,71c-1,6.5-4.1,10.3-9.3,11.5C690.2,150.9,689,151,687.8,151z M662.6,65.5c-0.8,0-1.6,0.1-2.4,0.3
	c-1.7,0.4-3.2,1.3-4.5,2.8c-1.5,1.6-2.2,3.4-2.2,5.3c0,1.8,0.7,3.8,2,5.7l26.9,38.7l-0.1,0.7c-0.4,2.5-0.9,5.1-1.5,7.6
	c-0.9,5.2-1.4,9.4-1.4,12.2c0,1.1,0.1,2,0.3,2.7l0,0.1c0.4,1.7,1.2,3.1,2.7,4.2c1.6,1.2,3.3,1.8,5.4,1.8c0.9,0,1.8-0.1,2.8-0.4
	c3.8-0.9,6-3.7,6.7-8.7l11.1-71.1c0.3-1.5,0.2-3-0.2-4.5c-0.4-1.9-1.5-3.4-3.3-4.5c-1.6-1-3.3-1.5-5.3-1.5c-2.3,0-4.2,0.8-5.9,2.4
	c-1.7,1.6-2.7,3.6-3,6l-4.3,29.2l-16-24.5C668.4,67,665.9,65.5,662.6,65.5z M199.4,151c-2.8,0-5.4-0.8-7.5-2.5
	c-2.1-1.6-3.4-3.7-4-6.2c-0.3-1-0.4-2.1-0.4-3.5c0-3.1,0.5-7.4,1.5-12.9c0.5-2.3,0.9-4.6,1.3-6.8l-26-37.5c-1.8-2.5-2.6-5.1-2.6-7.7
	c0-2.8,1.1-5.4,3.1-7.6c1.8-2,3.9-3.3,6.4-3.9c1.1-0.2,2.1-0.4,3.1-0.4c4.5,0,8.1,2,10.7,6l10.9,16.8l3-20.1c0.5-3.2,1.9-5.9,4.1-8
	c2.3-2.2,5.1-3.4,8.3-3.4c2.6,0,5,0.7,7.2,2.1c2.5,1.7,4.1,3.9,4.8,6.6c0.5,2,0.6,4,0.2,5.9l-11.1,71c-1,6.5-4.1,10.3-9.3,11.5
	C201.8,150.9,200.6,151,199.4,151z M174.3,65.5c-0.8,0-1.6,0.1-2.4,0.3c-1.7,0.4-3.2,1.3-4.5,2.8c-1.5,1.6-2.2,3.4-2.2,5.3
	c0,1.8,0.7,3.8,2,5.7l26.9,38.7l-0.1,0.7c-0.4,2.5-0.9,5.1-1.5,7.6c-0.9,5.2-1.4,9.4-1.4,12.2c0,1.1,0.1,2,0.3,2.7l0,0.1
	c0.4,1.7,1.2,3.1,2.7,4.2c1.6,1.2,3.3,1.8,5.4,1.8c0.9,0,1.8-0.1,2.8-0.4c3.8-0.9,6-3.7,6.7-8.7L220,67.4c0.3-1.5,0.2-3-0.2-4.5
	c-0.4-1.9-1.5-3.4-3.3-4.5c-1.6-1-3.3-1.5-5.3-1.5c-2.3,0-4.2,0.8-5.9,2.4c-1.7,1.6-2.7,3.6-3,6L198,94.5L182,70
	C180.1,67,177.5,65.5,174.3,65.5z M550.1,150.1c-5.3,0-10-0.7-13.9-2c-6.4-2-9.6-5.5-9.6-10.4c0-2.4,0.7-4.8,2.1-7.1
	c1.6-2.4,3.7-3.9,6.1-4.5c0.3-0.1,0.6-0.1,0.9-0.2c-4.7-2.1-8.9-5.6-12.5-10.7c-5.2-7.5-7.9-15.9-7.9-25.1c0-7.7,1.9-14.4,5.7-20.2
	c4.2-6.3,10-10.3,17.4-12.1c1.8-0.4,3.6-0.6,5.4-0.6c3.2,0,6.2,0.6,8.9,1.7c1.6-2.8,4.3-4.6,8-5.5c1-0.2,2-0.4,3-0.4
	c3,0,5.7,1,7.9,3c2.2,1.9,3.7,4.5,4.3,7.6l10.4,45.1c0.8,3.1,1.2,6.3,1.2,9.3c0,8-2.6,14.8-7.7,20.2c-5,5.3-11.8,9-20.3,11
	C557,149.8,553.8,150.1,550.1,150.1z M538.3,129.2c-1,0-1.9,0.1-2.7,0.3c-1.6,0.3-2.9,1.3-3.9,2.9c-1,1.7-1.6,3.5-1.6,5.3
	c0,1.2,0,4.8,7.2,7.1c3.6,1.2,7.9,1.8,12.8,1.8c3.5,0,6.4-0.3,8.6-0.8c7.9-1.8,14.1-5.1,18.6-9.9c4.6-4.8,6.8-10.7,6.8-17.8
	c0-2.7-0.4-5.6-1.1-8.5l-10.5-45.2c-0.5-2.4-1.6-4.3-3.2-5.8c-1.6-1.4-3.5-2.1-5.6-2.1c-0.7,0-1.4,0.1-2.1,0.3
	c-3.2,0.8-5.3,2.4-6.4,5.1l-0.7,1.8l-1.7-0.9c-2.5-1.3-5.5-2-8.9-2c-1.6,0-3.1,0.2-4.6,0.5c-6.6,1.5-11.6,5-15.3,10.6
	c-3.4,5.2-5.2,11.3-5.2,18.3c0,8.5,2.4,16.3,7.2,23.1c5.3,7.6,11.8,11.3,19.9,11.3c1.9,0,4-0.2,6.1-0.6c5-1.2,8.7-3.2,11-6l3.2-3.8
	l-0.1,5c-0.1,3.9-1.8,9-9.9,10.8c-1.7,0.4-3.5,0.6-5.4,0.6c-1.7,0-4-0.2-6.9-0.7C541.3,129.4,539.4,129.2,538.3,129.2z M558.7,125.3
	c-0.5,0.2-0.9,0.4-1.4,0.6C557.8,125.7,558.3,125.5,558.7,125.3z M830.2,129.9c-1,0-2-0.1-3-0.4c-2.9-0.7-5.2-2.2-7-4.4
	c-1.7-2.2-2.6-4.9-2.6-7.8c0-1.1,0.1-2.3,0.4-3.6l6.3-27.2c0.2-0.8,0.3-1.6,0.3-2.4c0-1.7-0.5-2.9-1.7-3.9c-1.3-1.1-2.8-1.6-4.6-1.6
	c-1.9,0-4.3,0.6-5.4,5.2l-6.2,27.2c-0.8,3.1-2.2,5.7-4.4,7.6c-2.2,2-4.9,3-7.8,3c-1,0-2.1-0.1-3-0.4c-2.9-0.7-5.3-2.2-7-4.4
	c-1.7-2.2-2.6-4.8-2.6-7.8c0-1.2,0.1-2.4,0.4-3.6l9.6-41.6c0.8-3.2,2.3-5.7,4.5-7.6c2.2-2,4.9-3,7.8-3c4.8,0,8.4,1.7,10.6,5.2
	c4.1-1.6,9-1.8,14.8-0.4c6.2,1.4,11.2,4.3,14.9,8.7c3.8,4.4,5.8,9.7,5.8,15.8c0,2.2-0.2,4.5-0.7,6.8l-7,30c-0.7,3.2-2.1,5.7-4.4,7.6
	C835.9,128.9,833.3,129.9,830.2,129.9z M818.5,75.1c2.6,0,4.9,0.8,6.8,2.4c1.9,1.6,2.9,3.8,2.9,6.6c0,1-0.1,2.1-0.4,3.2l-6.3,27.1
	c-0.2,0.9-0.3,1.9-0.3,2.8c0,2.2,0.6,4.1,1.9,5.7c1.2,1.6,2.9,2.6,5,3.1l0,0c0.7,0.2,1.5,0.3,2.1,0.3c2.2,0,4-0.7,5.6-2.1
	c1.7-1.4,2.7-3.3,3.2-5.7l7-29.9c0.4-2,0.6-4.1,0.6-6c0-5.3-1.6-9.7-4.9-13.5c-3.2-3.8-7.6-6.3-13.1-7.6c-2.3-0.6-4.5-0.8-6.4-0.8
	c-2.8,0-5.4,0.5-7.6,1.6l-1.6,0.8l-0.8-1.6c-1.5-3.1-4.2-4.7-8.2-4.7c-2.1,0-3.9,0.7-5.5,2.1c-1.7,1.4-2.8,3.3-3.3,5.8l-9.6,41.6
	c-0.2,0.9-0.3,1.8-0.3,2.8c0,2.2,0.6,4.1,1.9,5.7c1.2,1.6,2.8,2.6,5,3.1c0.7,0.2,1.4,0.3,2.2,0.3c2.1,0,3.9-0.7,5.5-2.1
	c1.7-1.5,2.8-3.4,3.3-5.8l6.2-27.2C811.2,76.5,815.3,75.1,818.5,75.1z M303.2,129.9c-1,0-1.9-0.1-3-0.4c-2.9-0.7-5.3-2.2-7-4.4
	c-1.7-2.2-2.6-4.9-2.6-7.8c0-1.1,0.1-2.3,0.4-3.6l6.3-27.2c0.2-0.8,0.3-1.6,0.3-2.4c0-1.7-0.5-2.9-1.7-3.9c-1.3-1.1-2.8-1.6-4.6-1.6
	c-1.9,0-4.3,0.6-5.4,5.2l-6.2,27.2c-0.8,3.1-2.2,5.7-4.4,7.6c-2.2,2-4.9,3-7.8,3c-1,0-2.1-0.1-3-0.4c-2.9-0.7-5.3-2.2-7-4.4
	c-1.7-2.2-2.6-4.8-2.6-7.8c0-1.2,0.1-2.4,0.4-3.6l9.6-41.6c0.8-3.2,2.3-5.7,4.5-7.6c2.2-2,4.9-3,7.8-3c4.8,0,8.4,1.7,10.5,5.2
	c4.1-1.6,9-1.8,14.8-0.4c6.2,1.4,11.2,4.3,14.9,8.7c3.8,4.4,5.8,9.7,5.8,15.8c0,2.2-0.2,4.5-0.7,6.8l-7,30c-0.7,3.2-2.1,5.7-4.4,7.6
	C308.9,128.9,306.2,129.9,303.2,129.9z M291.4,75.1c2.6,0,4.9,0.8,6.8,2.4c1.9,1.6,2.9,3.8,2.9,6.6c0,1-0.1,2.1-0.4,3.2l-6.3,27.1
	c-0.2,0.9-0.3,1.9-0.3,2.8c0,2.2,0.6,4.1,1.9,5.7c1.2,1.6,2.9,2.6,5,3.1l0,0c0.7,0.2,1.5,0.3,2.1,0.3c2.2,0,4-0.7,5.6-2.1
	c1.7-1.4,2.7-3.3,3.2-5.7l7-29.9c0.4-2,0.6-4.1,0.6-6c0-5.3-1.6-9.7-4.9-13.5c-3.2-3.8-7.6-6.3-13.1-7.6c-2.3-0.6-4.5-0.8-6.4-0.8
	c-2.8,0-5.4,0.5-7.6,1.6l-1.6,0.8l-0.8-1.6c-1.5-3.1-4.2-4.7-8.2-4.7c-2.1,0-3.9,0.7-5.5,2.1c-1.7,1.4-2.8,3.3-3.3,5.8l-9.6,41.6
	c-0.2,0.9-0.3,1.8-0.3,2.8c0,2.2,0.6,4.1,1.9,5.7c1.2,1.6,2.8,2.6,5,3.1c0.7,0.2,1.4,0.3,2.2,0.3c2.1,0,3.9-0.7,5.5-2.1
	c1.7-1.5,2.8-3.4,3.3-5.8l6.2-27.2C284.2,76.5,288.3,75.1,291.4,75.1z M452.5,129.2c-2.9,0-5.5-0.9-7.8-2.6
	c-2.7-2.1-4.3-5.1-4.8-9.1l-7.7-62.7c-0.1-0.7-0.1-1.3-0.1-2c0-3.4,1.1-6.3,3.1-8.5c2-2.3,4.8-3.7,8.2-4.1c1.7-0.3,3.8,0,6,0.9
	c2.1,0.7,3.9,1.8,5.2,3.2L486.9,78c-1.2-6.7-2.7-16.5-4.3-29.4c-0.1-0.8-0.1-1.5-0.1-2.2c0-3.3,1.1-6.2,3.1-8.4
	c2.2-2.2,4.9-3.6,8.2-4c3.7-0.4,6.9,0.4,9.5,2.5c2.7,2,4.4,5.1,4.9,9.1l7.7,62.7c0.1,0.7,0.1,1.3,0.1,2c0,3.4-1,6.3-3.1,8.6
	c-2.1,2.3-4.8,3.6-8.2,4c-1.7,0.3-3.7,0-5.9-0.8c-2.1-0.9-3.9-2-5.2-3.3l-32.4-33.3c1.2,6.6,2.7,16.3,4.3,29
	c0.1,0.8,0.1,1.5,0.1,2.2c0,3.3-1.1,6.2-3.3,8.4c-2,2.2-4.7,3.5-8,4C453.7,129.2,453.1,129.2,452.5,129.2z M444.7,43.7
	c-0.3,0-0.5,0-0.8,0.1c-2.6,0.3-4.6,1.3-6.1,3c-1.5,1.6-2.2,3.6-2.2,6.2c0,0.5,0,1,0.1,1.6l7.7,62.7c0.4,3,1.5,5.2,3.4,6.7
	c2,1.5,4.3,2.1,7.1,1.8c2.5-0.3,4.4-1.3,5.9-2.9c1.6-1.6,2.3-3.6,2.3-6c0-0.6,0-1.2-0.1-1.8c-2.2-17.1-4.1-28.7-5.5-34.6L455,74
	l41.1,42.4c1,1,2.3,1.8,4,2.5c1.6,0.5,3,0.7,4.2,0.6c2.6-0.3,4.6-1.3,6.1-2.9c1.5-1.7,2.2-3.7,2.2-6.3c0-0.5,0-1-0.1-1.6L504.7,46
	c-0.4-3-1.5-5.2-3.5-6.7c-2-1.5-4.2-2.1-7-1.8c-2.5,0.3-4.5,1.3-6.1,2.9c-1.5,1.6-2.2,3.6-2.2,6c0,0.6,0,1.2,0.1,1.8
	c2.2,17.4,4.1,29.2,5.5,35l1.6,6.4l-41.1-42.9c-0.9-1-2.2-1.8-3.9-2.3C446.9,43.9,445.7,43.7,444.7,43.7z M130.2,127.3
	c-7.4,0-14.1-2.6-19.8-7.8c-5.7-5.2-9.5-12.1-11.5-20.5c-0.7-3.1-1-6.2-1-9.3c0-7.8,2.1-14.8,6.3-20.7c4.2-6,9.9-9.9,16.9-11.6
	c5.2-1.2,10.3-0.8,14.7,1.1c1.7-2.9,4.2-4.7,7.7-5.6l0.1,0c1.3-0.2,2.5-0.4,3.7-0.4c5.8,0,9.7,4.1,11.6,12.2l8.9,38.6
	c0.6,2.5,0.8,4.6,0.8,6.3c0,5.9-3.2,9.7-9.4,11c-1.1,0.3-2.2,0.4-3.3,0.4c-2.3,0-4.5-0.7-6.3-2.1c-3.3,3.9-7.5,6.4-12.5,7.5
	C134.8,127.1,132.5,127.3,130.2,127.3z M126.9,60.3c-1.6,0-3.3,0.2-5,0.6c-6.1,1.4-11.1,4.9-14.9,10.2c-3.8,5.3-5.7,11.6-5.7,18.7
	c0,2.8,0.3,5.7,1,8.5c1.8,7.7,5.4,14,10.5,18.7c5.1,4.6,11,6.9,17.5,6.9c2,0,4-0.2,6-0.7c4.9-1.1,8.7-3.6,11.7-7.7l1.2-1.7l1.4,1.5
	c1.5,1.6,3.3,2.4,5.3,2.4c0.8,0,1.7-0.1,2.5-0.3l0,0c4.5-1,6.6-3.4,6.6-7.6c0-1.4-0.2-3.3-0.7-5.5l-8.9-38.6
	c-2.2-9.5-6.7-9.5-8.2-9.5c-0.9,0-1.9,0.1-3,0.3c-3,0.8-5,2.5-6.1,5.2l-0.7,1.8l-1.7-0.9C133,61,130.1,60.3,126.9,60.3z
	 M619.2,127.1c-8.3,0-15.2-2.1-20.5-6.3c-5.8-4.8-8.9-11.5-9.3-20l-1.6-28.9c-0.2-3.8,0.8-7,2.9-9.6c2.2-2.8,5.3-4.3,9-4.4
	c3.6-0.2,6.7,1,9.2,3.5c2.5,2.4,3.8,5.5,4,9.3l1.4,28.4c0.1,1.9,0.7,3.3,1.8,4.2c1.2,1,2.6,1.4,4.4,1.4c1.6-0.1,2.9-0.7,4-1.8
	c1-1,1.5-2.5,1.4-4.3L624.5,70c-0.2-3.7,0.7-7,2.8-9.6c2.2-2.8,5.3-4.3,9-4.4c3.7-0.2,6.8,1,9.2,3.4c2.5,2.4,3.8,5.5,4,9.4l1.6,28.8
	c0.5,8.6-2,15.6-7.3,20.9c-5.2,5.2-12.6,8.1-22,8.6l0,0C620.8,127,620,127.1,619.2,127.1z M600.4,61.3c-0.2,0-0.3,0-0.5,0
	c-2.7,0.1-4.8,1.2-6.4,3.1c-1.6,2-2.3,4.3-2.2,7.3l1.6,28.9c0.4,7.6,3,13.3,8,17.4c5.1,4.1,12,5.9,20.6,5.5
	c8.6-0.5,15.2-3.1,19.8-7.6c4.6-4.6,6.7-10.6,6.3-18.2L646,68.9c-0.1-3-1.1-5.3-2.9-7.1c-1.7-1.7-3.9-2.5-6.6-2.4
	c-2.7,0.1-4.8,1.2-6.4,3.1c-1.6,2-2.3,4.3-2.1,7.2l1.4,28.5c0.2,2.9-0.6,5.2-2.4,7c-1.7,1.7-3.8,2.7-6.3,2.8
	c-2.7,0.1-4.9-0.6-6.8-2.2c-1.9-1.6-2.9-3.8-3.1-6.7l-1.4-28.5c-0.1-2.9-1.1-5.2-2.9-6.9C604.8,62.1,602.8,61.3,600.4,61.3z
	 M68.5,127c-5.2,0-9.8-1-13.7-3.1c-5.2-2.7-7.8-6.6-7.8-11.8c0-3.2,1-5.9,3-8.1c2-2.2,4.7-3.3,7.8-3.3c1.5,0,3.7,0.4,6.8,1.2
	c2.9,0.8,4.3,0.9,4.9,0.8c1.1-0.2,1.4-0.6,1.4-1.7c0-0.1-0.1-0.6-0.5-3.4l-8.3-47c-0.2-1-0.2-2-0.2-2.9c0-3.7,1.3-6.7,3.8-9.1
	c2.5-2.4,5.7-3.6,9.4-3.6c3.1,0,5.8,1,8.1,3c2.3,1.9,3.8,4.6,4.3,8l8.4,48.1c0.5,2.4,0.7,4.8,0.7,7.1c0,7.5-2.4,13.6-7.1,18.2
	c-3.9,3.6-8.9,6-14.8,7C72.8,126.8,70.7,127,68.5,127z M57.8,104.2c-2.2,0-3.9,0.7-5.3,2.2c-1.4,1.5-2.1,3.4-2.1,5.7
	c0,3.8,1.9,6.6,5.9,8.7c3.4,1.8,7.5,2.7,12.1,2.7c1.9,0,3.8-0.2,5.5-0.5l0,0c5.3-0.9,9.6-3,13-6.1c4-3.9,6-9,6-15.6
	c0-2-0.2-4.2-0.6-6.5L84,46.6c-0.5-2.6-1.5-4.6-3.2-5.9c-1.7-1.5-3.5-2.2-5.8-2.2c-2.8,0-5.1,0.9-7,2.6c-1.8,1.7-2.7,3.8-2.7,6.5
	c0,0.7,0.1,1.5,0.2,2.3l8.3,47c0.6,3.4,0.6,3.8,0.6,4c0,2.8-1.6,4.6-4.3,5.2c-1.6,0.3-3.7,0-6.5-0.8
	C60.3,104.4,58.7,104.2,57.8,104.2z M746.6,126.8c-7.2,0-13.9-2.2-19.6-6.6c-5.7-4.4-9.8-10.3-12.4-17.7c-1.4-3.9-2.1-8.1-2.1-12.4
	c0-7.1,1.9-13.6,5.5-19.3c4-6.1,9.5-10.4,16.4-12.7c3.4-1.2,6.9-1.8,10.5-1.8c7.2,0,13.9,2.3,20.1,6.9c5.8,4.3,9.8,9.6,12,15.9
	c0.6,1.6,0.9,3.3,0.9,4.8c0,2.1-0.6,4.6-2.6,6.7c1.4,0.5,2.6,1.4,3.8,2.5c2.3,2.2,3.5,4.8,3.5,7.8c0,4.6-2.7,9.4-8.1,14.3
	c-4.7,4.4-9.9,7.6-15.5,9.5C754.8,126.1,750.7,126.8,746.6,126.8z M744.9,59.9c-3.1,0-6.3,0.5-9.3,1.6c-6.1,2.1-11,5.9-14.6,11.3
	c-3.3,5.1-4.9,10.9-4.9,17.4c0,3.9,0.6,7.6,1.9,11.2c2.3,6.8,6.1,12.2,11.2,16.1c5.1,3.9,11,5.9,17.5,5.9c3.6,0,7.3-0.6,11-1.9
	c5.2-1.8,10-4.7,14.3-8.7c4.7-4.2,7-8.2,7-11.7c0-2-0.8-3.8-2.4-5.3c-1.6-1.5-3.4-2.3-5.5-2.3c-0.4,0.2-0.8,0.3-1.2,0.5l-2.6,0.9
	c-1,0.8-2.4,2.1-4.4,4.3c-3.2,3.5-6.1,5.7-8.9,6.7c-2,0.7-4,1.1-5.9,1.1c-3.5,0-6.4-1.1-8.7-3.4l-2-2l28.3-9.8
	c0.8-0.6,1.5-0.9,2.1-1.2c0.9-0.3,1.7-0.5,2.6-0.5c3.6-1.7,4.1-4.2,4.1-5.9c0-1.1-0.2-2.4-0.7-3.6c-1.9-5.6-5.5-10.3-10.7-14.2
	C757.3,62,751.3,59.9,744.9,59.9z M744.3,102.6c2.2,0.9,5.2,0.9,8.3-0.3c2-0.7,4.3-2.4,6.8-5L744.3,102.6z M358.9,126.8
	c-7.2,0-13.9-2.2-19.6-6.6c-5.7-4.4-9.8-10.3-12.4-17.7c-1.4-3.9-2.1-8.1-2.1-12.4c0-7.1,1.9-13.6,5.5-19.3
	c4-6.1,9.5-10.4,16.4-12.7c3.4-1.2,6.9-1.8,10.5-1.8c7.2,0,13.9,2.3,20.1,6.9c5.8,4.3,9.8,9.6,12,15.9c0.6,1.6,0.9,3.3,0.9,4.8
	c0,2.1-0.6,4.6-2.6,6.7c1.4,0.5,2.6,1.4,3.8,2.5c2.3,2.2,3.5,4.8,3.5,7.8c0,4.6-2.7,9.4-8.1,14.3c-4.7,4.4-9.9,7.6-15.5,9.5
	C367.1,126.1,363,126.8,358.9,126.8z M357.2,59.9c-3.1,0-6.3,0.5-9.3,1.6c-6.1,2.1-11,5.9-14.6,11.3c-3.3,5.1-4.9,10.9-4.9,17.4
	c0,3.9,0.6,7.6,1.9,11.2c2.3,6.8,6.1,12.2,11.2,16.1c5.1,3.9,11,5.9,17.5,5.9c3.6,0,7.3-0.6,11-1.9c5.2-1.8,10-4.7,14.3-8.7
	c4.7-4.2,7-8.2,7-11.7c0-2-0.8-3.8-2.4-5.3c-1.6-1.5-3.4-2.3-5.5-2.3c-0.4,0.2-0.8,0.3-1.2,0.5l-2.6,0.9c-1,0.8-2.4,2.1-4.4,4.3
	c-3.2,3.5-6.1,5.7-8.9,6.7c-2,0.7-4,1.1-5.9,1.1c-3.5,0-6.4-1.1-8.7-3.4l-2-2l28.3-9.8c0.8-0.6,1.5-0.9,2.1-1.2
	c0.9-0.3,1.7-0.5,2.6-0.5c3.6-1.7,4.1-4.2,4.1-5.9c0-1.1-0.2-2.4-0.7-3.6c-1.9-5.6-5.5-10.3-10.7-14.2
	C369.6,62,363.6,59.9,357.2,59.9z M356.6,102.6c2.2,0.9,5.2,0.9,8.3-0.3c2-0.7,4.3-2.4,6.8-5L356.6,102.6z M241.6,126.3
	c-3.3,0-6.1-1.2-8.4-3.4c-2.4-2.4-3.7-5.5-3.8-9.3l-2.2-42.7c-0.2-3.7,0.7-7,2.8-9.6c0.9-1,1.8-1.9,2.9-2.5
	c-1.2-0.6-2.4-1.4-3.5-2.4c-2.8-2.6-4.3-5.8-4.5-9.4c-0.2-3.5,1-6.7,3.6-9.5c2.6-2.8,5.8-4.3,9.3-4.5c3.6-0.3,6.8,0.9,9.6,3.5
	c2.8,2.4,4.4,5.5,4.6,9.1c0.2,3.7-1,7-3.4,9.9c-1,1.1-2.1,2-3.3,2.7c1.1,0.6,2.1,1.3,3,2.2c2.4,2.3,3.8,5.5,3.9,9.3l2.3,42.7
	c0.2,3.8-0.9,7-3.1,9.7c-2.1,2.7-5.1,4.1-8.8,4.3C242.2,126.2,241.9,126.3,241.6,126.3z M239.6,60.3c-0.2,0-0.4,0-0.5,0
	c-2.7,0.2-4.8,1.2-6.4,3.2c-1.6,1.9-2.2,4.3-2,7.2l2.2,42.7c0.1,2.9,1.1,5.2,2.8,7c1.8,1.8,4,2.6,6.6,2.4l0,0c2.7-0.1,4.7-1.1,6.3-3
	c1.7-2,2.4-4.4,2.3-7.3l-2.3-42.7c-0.1-2.9-1.1-5.2-2.9-7C244.1,61.1,242.1,60.3,239.6,60.3z M238.6,36.4c-0.2,0-0.5,0-0.7,0
	c-2.7,0.1-5,1.2-7,3.3c-1.9,2.1-2.8,4.4-2.6,6.9c0.2,2.7,1.3,5,3.5,7c2.1,2,4.4,2.8,7.1,2.6l0,0c2.8-0.1,5-1.2,6.9-3.3
	c1.9-2.2,2.7-4.6,2.6-7.4c-0.1-2.6-1.2-4.8-3.4-6.6C243.1,37.2,241,36.4,238.6,36.4z M549.5,107c-6.2,0-10.3-4.3-12.2-12.7
	c-0.4-1.5-0.6-3.1-0.6-4.6c0-3.3,0.9-6.2,2.5-8.6c1.9-2.8,4.6-4.3,8.1-4.3c3,0,5.7,1.3,8,3.8c2.1,2.4,3.6,5.4,4.4,9.1
	c0.4,1.6,0.6,3.2,0.6,4.7c0,3.4-0.9,6.3-2.6,8.5C555.7,105.6,553,107,549.5,107z M547.4,80.3c-2.3,0-4,0.9-5.2,2.8
	c-1.3,1.8-1.9,4-1.9,6.6c0,1.2,0.2,2.5,0.5,3.8c2.3,10,7.2,10,8.8,10c2.3,0,4.1-0.9,5.5-2.6c1.2-1.6,1.9-3.8,1.9-6.4
	c0-1.3-0.2-2.6-0.5-3.9c-0.7-3.1-1.9-5.7-3.6-7.6C551.2,81.2,549.4,80.3,547.4,80.3z M132.2,106.7c-3,0-5.7-1.2-8-3.7
	c-2.1-2.3-3.6-5.2-4.4-8.7c-0.3-1.7-0.5-3.4-0.5-5c0-3.4,0.9-6.3,2.5-8.8c1.9-2.7,4.6-4.1,8.1-4.1c3,0,5.6,1.3,7.9,3.8
	c2.1,2.3,3.6,5.2,4.4,8.8c0.4,1.7,0.6,3.3,0.6,4.8c0,3.4-0.9,6.3-2.6,8.6C138.4,105.2,135.7,106.7,132.2,106.7z M130,80
	c-2.3,0-4,0.8-5.2,2.6c-1.3,1.9-1.9,4.1-1.9,6.8c0,1.4,0.1,2.8,0.4,4.2c0.7,2.8,1.9,5.2,3.6,7c1.6,1.7,3.4,2.6,5.4,2.6
	c2.3,0,4-0.9,5.2-2.7c1.3-1.7,1.9-3.9,1.9-6.6c0-1.3-0.2-2.6-0.5-4c-0.7-3-1.9-5.4-3.6-7.2C133.6,80.8,131.9,80,130,80z M732.8,89.4
	l0-2.5c0.1-5.5,2.8-9.2,7.7-11l0,0c1.3-0.4,2.7-0.6,4-0.6c3.5,0,6.5,1.5,8.8,4.6l1.5,1.9L732.8,89.4z M741.7,79.2
	c-2.7,1-4.4,2.6-5,5.1l12.2-4.2C746.9,78.7,744.5,78.4,741.7,79.2z M345.1,89.4l0-2.5c0.1-5.5,2.8-9.2,7.7-11l0,0
	c1.3-0.4,2.7-0.6,4-0.6c3.5,0,6.5,1.5,8.8,4.6l1.5,1.9L345.1,89.4z M354,79.2c-2.7,1-4.4,2.6-5,5.1l12.2-4.2
	C359.2,78.7,356.8,78.4,354,79.2z"/>
<path class="st2" d="M24.9,1.8c1.4-2.2,4.6-2.4,6.2-0.3l8.3,11c0.5,0.7,1.3,1.2,2.1,1.4l13.4,3.3c2.6,0.6,3.7,3.6,2.2,5.8L49,34.3
	c-0.5,0.7-0.7,1.6-0.7,2.4l1,13.7c0.2,2.6-2.3,4.6-4.8,3.8l-13.2-4.1c-0.8-0.3-1.7-0.2-2.5,0.1L16,55.5c-2.4,1-5.1-0.8-5.2-3.4
	l-0.2-13.8c0-0.9-0.3-1.7-0.9-2.4L0.9,25.4c-1.7-2-0.8-5.1,1.7-6l13-4.4c0.8-0.3,1.5-0.8,2-1.6L24.9,1.8z"/>
<path class="st3" d="M831.2,150.4c-2.2-2-1.3-5.6,1.5-6.4l15.5-4.2c0.7-0.2,1.3-0.5,1.8-1.1l11.1-11.8c2-2.1,5.6-1.2,6.4,1.6
	l4.2,15.6c0.2,0.7,0.6,1.3,1.1,1.8l12.1,10.9c2.2,2,1.3,5.6-1.5,6.4l-16,4.3c-0.7,0.2-1.3,0.6-1.8,1.1l-10.8,11.9
	c-2,2.2-5.7,1.3-6.4-1.6l-3.8-15.9c-0.2-0.7-0.6-1.4-1.1-1.9L831.2,150.4z"/>
</svg>
