<?xml version="1.0" encoding="utf-8"?>
<!-- Generator: Adobe Illustrator 27.5.0, SVG Export Plug-In . SVG Version: 6.00 Build 0)  -->
<svg version="1.1" id="Layer_1" xmlns="http://www.w3.org/2000/svg" xmlns:xlink="http://www.w3.org/1999/xlink" x="0px" y="0px"
	 viewBox="0 0 662.3 502.2" style="enable-background:new 0 0 662.3 502.2;" xml:space="preserve">
<style type="text/css">
	.st0{fill:#DAEAF6;}
	.st1{fill:#A2D2FF;}
</style>
<path class="st0" d="M71.9,78.2c-1,0-1.8,0.3-2.9,0.3c-10.1,2-17.5,11.7-17.6,21.5c-0.3,13,11,22.9,23.7,23.3
	c13.8,0.3,25-11.8,24.8-25.2c-0.1-3.9-1.2-8.5-3.3-12.2c-3.7-6.2-10.2-9.2-17.3-9.4C76.5,76.8,74.2,77.1,71.9,78.2z"/>
<path class="st0" d="M132.2,108c-2,5-2.7,10.2-2.4,14.8c-1.5,7.5,0,15.8,4.2,23c5,8.8,13.4,14.9,22.6,17.6
	c7.8,2.7,16.4,3.1,24.4,0.4c20.2-6.2,32.6-28.2,26.8-48.6c-4.1-14-17-25.2-31-28.4C159.4,83.2,139.5,90.5,132.2,108z"/>
<path class="st0" d="M73.8,144c-4.1,2.9-7.4,6.6-8.7,11.5c-1,4.2-0.7,6.8,0.1,10.6c0.8,4.1,3.8,8.8,6.9,11.6
	c3.4,3.1,5.8,4.1,9.9,5.8c2.3,0.7,4.7,1,7,0.9c2.6,0,5.2-0.6,7.5-1.7c2.3-0.8,4.4-2.1,6.2-4.2c1.8-1.8,3.3-3.9,4.1-6.3
	c1.3-2.4,1.7-5,1.5-7.5c-0.3-4.9-2-10.1-5.6-13.7c-0.3-0.5-0.8-1-1.1-1.5c-0.8-0.8-1.3-1.8-2.1-2.3c-1.1-1-2.9-2.3-4.2-3.1
	c-1-0.5-2.1-1-2.9-1.3c-1-0.5-1.8-0.8-3.1-1C84.1,140.8,78.4,140.9,73.8,144z"/>
<path class="st0" d="M188.7,423.4c-1.9,7.2,2.5,16.2,9.1,19.2c12.9,6,26.6-1.9,39.9-2.9c13.9-1,26.9-2,40.7,1.9
	c11.8,3.1,22.7,8.7,31.9,16.9c12.2,10.9,20,25.4,34.4,33.6c13.4,7.4,33.1-1.4,35.2-17c6.3-44.8-47.1-81.8-86-90
	c-19-3.9-41.9-4.2-60.2,2.1C216.6,392.8,193.9,404.8,188.7,423.4z"/>
<path class="st0" d="M375.7-11.9c57,25.6,83,89.9,136.4,119.9c69.4,38.9,129.7-53.6,195.2-15.3c118.1,109.7-8.1,300.4-100.9,379.7
	c-23,19.5-45.8,31.6-77.1,29.6c-96.6-6.8-150-100.5-234.2-134.7c-37.7-15.2-73-8.9-105.3,14.5c-36,26-70.3,64.6-118.7,61.1
	C-6.3,437.1-14,343.7,17,288.4c26.7-71.2,101.2-84.1,163.4-108.9C278.3,144,240.1-72.7,375.7-11.9z"/>
<path class="st1" d="M572.2,493.6c-2.3,0-4.6-0.1-7-0.2c-50.5-3.6-89.4-31.3-121.8-57.1c-6.6-5.2-13-10.5-19.3-15.6
	c-28.8-23.6-58.7-48-93.2-62l-0.1-0.1c-36.3-14.6-71.7-9.7-105.2,14.6c-7.5,5.4-15,11.5-22.3,17.3l-4.6,3.7
	c-8.2,6.6-17.8,14.1-27.8,20.6c-22.7,14.8-43,21-64,19.5c-18.3-1.3-33.6-7.7-45.4-18.8c-10.6-10-18.1-23.4-22.2-39.9
	c-7.5-30.1-2.1-67.7,13.6-95.8l0,0c11.6-31.1,33.4-53.9,68.4-71.8c15.5-7.9,32.5-14.3,47-19.6c4.6-1.7,9.3-3.3,13.9-4.9
	c11.3-4,23-8.1,34-12.5l0.1-0.1c21.5-7.8,38.2-24.8,52.7-53.4c8.6-17,15.5-36.2,22.1-54.8c2.8-7.9,5.7-16,8.6-23.6
	c9.1-23.7,20-47.4,37.8-60.3c18.6-13.5,42.8-13.2,73.9,0.7c27.8,12.5,47.9,33.8,69.5,58.3l3.8,4.4c18.6,21.1,37.8,43,62.8,57.1
	l0.3,0.1c35,19.6,67.6,5.9,99-7.4c32.6-13.7,63.3-26.7,95.6-8.2l0.5,0.3l0.4,0.4c51.6,48.2,61.3,117.7,28.2,200.8
	c-30.2,75.8-88.7,143.5-129.6,178.5C617.7,484.6,596.9,493.6,572.2,493.6z M334.9,349.4c35.8,14.6,66.2,39.5,95.5,63.5
	c6.3,5.1,12.7,10.4,19.2,15.6c38.8,30.8,73.4,51.9,116.2,54.9c25,1.6,45.2-6.3,70-27.2c40-34.2,97.3-100.4,126.8-174.5
	c21.9-55,35.2-132.4-25.3-189.4c-27.8-15.6-54.9-4.2-86.3,9c-32.1,13.5-68.4,28.9-107.5,7.1l-0.3-0.2
	c-26.6-14.9-46.4-37.5-65.6-59.4l-3.8-4.4c-20.8-23.6-40.2-44.1-66.1-55.8c-28-12.5-48.3-13.1-64-1.7
	c-15.7,11.4-26.2,34.6-34.3,55.8c-2.9,7.5-5.8,15.5-8.6,23.3c-6.8,18.9-13.8,38.4-22.6,56c-15.7,31-34.1,49.5-58.1,58.3
	c-11.2,4.4-22.9,8.6-34.2,12.6c-4.7,1.7-9.4,3.3-14,4.9c-14.2,5.1-30.8,11.4-45.8,19.1c-32.7,16.7-52.9,37.8-63.6,66.5l-0.3,0.7
	l-0.4,0.7c-14.6,26-19.5,60.8-12.7,88.5c3.6,14.6,10.1,26.3,19.3,35c10.1,9.5,23.3,14.9,39.2,16.1c18.9,1.4,36.7-4.2,57.8-17.9
	c9.6-6.2,18.9-13.6,27-20l4.6-3.7c7.4-6,15.1-12.1,22.7-17.6c36.5-26.4,75.1-31.7,114.9-15.7L334.9,349.4z"/>
</svg>
