<?xml version="1.0" encoding="utf-8"?>
<!-- Generator: Adobe Illustrator 27.5.0, SVG Export Plug-In . SVG Version: 6.00 Build 0)  -->
<svg version="1.1" id="Layer_1" xmlns="http://www.w3.org/2000/svg" xmlns:xlink="http://www.w3.org/1999/xlink" x="0px" y="0px"
	 viewBox="0 0 662.4 555.8" style="enable-background:new 0 0 662.4 555.8;" xml:space="preserve">
<style type="text/css">
	.st0{fill:#FFAFCC;}
	.st1{fill:none;stroke:#FFAFCC;stroke-width:7;stroke-miterlimit:10;}
	.st2{fill:none;stroke:#FFAFCC;stroke-width:6;stroke-miterlimit:10;}
	.st3{fill:#FCE1E4;}
</style>
<path class="st0" d="M295.1,112.1c-15.6-16.9-49.9,2.1-38,27.3C272.5,174,322.4,138.3,295.1,112.1z"/>
<path class="st0" d="M393.8,87.7c-39.6-32.4-80.2,49.4-25.3,53.6C396.8,144.6,415.6,107,393.8,87.7z"/>
<path class="st0" d="M309.8,78.9c-0.8,6,3.4,11.4,9.4,12.2c6,0.8,11.4-3.4,12.2-9.4c0.8-6-3.4-11.4-9.4-12.2S310.6,72.9,309.8,78.9z
	"/>
<path class="st1" d="M196.9,97.5c-1.3,9.6,5.5,18.4,15.1,19.7c9.6,1.3,18.4-5.5,19.7-15.1c1.3-9.6-5.5-18.4-15.1-19.7
	C206.9,81.1,198.1,87.9,196.9,97.5z"/>
<path class="st2" d="M431.1,70.3c0.7,4.6-3.7,8.2-8.1,6.6l-27.6-10.5l-27.6-10.5c-4.3-1.6-5.2-7.4-1.7-10.3L389,27.1l22.8-18.3
	c3.6-2.9,8.9-0.8,9.7,3.7l4.8,28.8L431.1,70.3z"/>
<path class="st3" d="M0.2,385.4c-1,15.1,2.1,30.4,8.9,41.5c11.6,18.5,32.5,32.5,54.1,37c23.1,4.8,59.8-5.3,54.8-36
	c-2.4-14.2-14-22.2-25.6-29c-3.6-2.2-7.2-4.4-9.1-8.1c-2.4-4.5-1.2-10.1-0.6-15.2c1.4-19.1-10.5-43.2-31.6-45.1
	C18.8,327.4,1.8,356.1,0.2,385.4z"/>
<path class="st3" d="M463,522c109.2,19.8,222.6,16.9,330.3-10.3c31.4-8,55-15.9,80.2-36.5c60.8-49.9,64.1-138,23.7-202.1
	c-27.8-44.2-70.5-76.6-113.7-105.7c-43.2-29.1-89.6-60.6-128.3-97.6c-32.9-31.8-65-79.4-118-68c-58.4,12.5-77.1,73.5-108.7,116
	c-74.5,99.3-214-1.5-293.9,81.5C11.3,327.3,224.7,445.6,323.8,483.5C368.8,500.6,415.4,513.4,463,522z"/>
<path class="st0" d="M584.6,555.8c-47.4,0-95.1-4.2-142.1-12.8c-47.9-8.7-94.7-21.7-139.2-38.6c-54.6-20.9-130-60.3-178-108.3
	c-27.7-27.7-43.7-55.6-47.6-82.9c-4.6-32,7.7-63.3,36.4-93.2c38.2-39.7,89-37.3,142.8-34.9l6.2,0.3c60.2,2.7,109.1,0.9,144.9-46.9
	l0.1-0.1c8.1-10.9,15.5-23.3,22-34.1l0.7-1.2c6.8-11.3,13.8-23,21.5-33.7c13.1-18.1,32.2-39.8,64.4-46.7
	c23.2-4.9,44.3,0.7,66.5,17.8c9.9,7.6,19,16.7,26.6,24.5c2.5,2.6,5.1,5.3,7.6,8l0.3,0.3c5.6,5.9,11.3,11.9,16.9,17.3l0.2,0.2
	c39,37.3,86.4,69.3,128.2,97.5c42.6,28.7,85.8,61.4,113.7,105.7c20.2,32.2,29.5,70,26.1,106.4c-3.6,38.3-21.3,72.3-49.8,95.7
	c-24.1,19.7-45.9,27.8-80.2,36.5C712.1,548.1,648.6,555.8,584.6,555.8z M219.3,194.1c-37.3,0-71.6,5.4-98.1,33
	c-26.4,27.5-37.8,56-33.7,84.8c3.6,25.1,18.6,51,44.8,77.2c46.9,46.9,120.9,85.6,174.5,106.1c43.9,16.7,90.1,29.5,137.4,38.1
	C553.2,553,666,549.5,770.3,523c32.9-8.4,53.7-16,76.3-34.5c52.8-43.3,62.1-124.6,21.6-189.1c-26.9-42.8-69.2-74.7-110.8-102.8
	c-42.2-28.5-90.1-60.8-129.7-98.7l-0.1-0.1c-5.7-5.5-11.5-11.6-17.1-17.5l-0.4-0.4c-2.5-2.6-5-5.3-7.5-7.9
	c-7.4-7.6-16.2-16.4-25.5-23.6c-20-15.4-38-20.3-58.3-16c-22.5,4.8-40.5,18-58.4,42.8c-7.4,10.3-14,21.3-21,33l-0.7,1.2
	c-6.7,11.1-14.2,23.7-22.7,35.1l-0.1,0.2c-41.9,55.7-103.6,52.9-153.2,50.7l-6.3-0.3C243.8,194.7,231.4,194.1,219.3,194.1z"/>
</svg>
