<?xml version="1.0" encoding="utf-8"?>
<!-- Generator: Adobe Illustrator 27.9.0, SVG Export Plug-In . SVG Version: 6.00 Build 0)  -->
<svg version="1.1" id="Layer_1" xmlns="http://www.w3.org/2000/svg" xmlns:xlink="http://www.w3.org/1999/xlink" x="0px" y="0px"
	 viewBox="0 0 662.4 503" style="enable-background:new 0 0 662.4 503;" xml:space="preserve">
<style type="text/css">
	.st0{fill:#FFAFCC;}
	.st1{fill:none;stroke:#FFAFCC;stroke-width:6.3336;stroke-miterlimit:10;}
	.st2{fill:none;stroke:#FFAFCC;stroke-width:5.4288;stroke-miterlimit:10;}
	.st3{fill:#FCE1E4;}
</style>
<g>
	<path class="st0" d="M267,101.3c-14.1-15.3-45.1,1.9-34.4,24.7C246.5,157.3,291.7,125,267,101.3z"/>
	<path class="st0" d="M356.3,79.3c-35.8-29.3-72.6,44.7-22.9,48.5C359,130.7,376,96.7,356.3,79.3z"/>
	<path class="st0" d="M280.3,71.3c-0.7,5.4,3.1,10.3,8.5,11c5.4,0.7,10.3-3.1,11-8.5c0.7-5.4-3.1-10.3-8.5-11
		C285.9,62.1,281,65.9,280.3,71.3z"/>
	<path class="st1" d="M178.1,88.1c-1.2,8.7,5,16.6,13.7,17.8c8.7,1.2,16.6-5,17.8-13.7s-5-16.6-13.7-17.8
		C187.2,73.3,179.2,79.4,178.1,88.1z"/>
	<path class="st2" d="M390,63.5c0.6,4.2-3.3,7.4-7.3,6l-25-9.5l-25-9.5c-3.9-1.4-4.7-6.7-1.5-9.3L352,24.4l20.6-16.6
		c3.3-2.6,8.1-0.7,8.8,3.3l4.3,26.1L390,63.5z"/>
	<path class="st3" d="M0.2,348.6c-0.9,13.7,1.9,27.5,8.1,37.5c10.5,16.7,29.4,29.4,48.9,33.5c20.9,4.3,54.1-4.8,49.6-32.6
		c-2.2-12.8-12.7-20.1-23.2-26.2c-3.3-2-6.5-4-8.2-7.3c-2.2-4.1-1.1-9.1-0.5-13.8c1.3-17.3-9.5-39.1-28.6-40.8
		C17,296.1,1.6,322.1,0.2,348.6z"/>
	<path class="st3" d="M418.9,472.2c98.8,17.9,201.4,15.3,298.9-9.3c28.4-7.2,49.8-14.4,72.6-33c55-45.1,58-124.9,21.4-182.9
		c-25.2-40-63.8-69.3-102.9-95.6s-81.1-54.8-116.1-88.3C563,34.3,534-8.8,486,1.5c-52.8,11.3-69.8,66.5-98.4,105
		c-67.4,89.8-193.6-1.4-265.9,73.7C10.2,296.1,203.3,403.1,293,437.4C333.7,452.9,375.8,464.4,418.9,472.2z"/>
	<path class="st0" d="M528.9,502.8c-42.9,0-86-3.8-128.6-11.6c-43.3-7.9-85.7-19.6-125.9-34.9c-49.4-18.9-117.6-54.6-161.1-98
		c-25.1-25.1-39.5-50.3-43.1-75c-4.2-29,7-57.3,32.9-84.3c34.6-35.9,80.5-33.7,129.2-31.6l5.6,0.3c54.5,2.4,98.7,0.8,131.1-42.4
		l0.1-0.1c7.3-9.9,14-21.1,19.9-30.9l0.6-1.1c6.2-10.2,12.5-20.8,19.5-30.5c11.9-16.4,29.1-36,58.3-42.3c21-4.4,40.1,0.6,60.2,16.1
		c9,6.9,17.2,15.1,24.1,22.2c2.3,2.4,4.6,4.8,6.9,7.2l0.3,0.3c5.1,5.3,10.2,10.8,15.3,15.7l0.2,0.2c35.3,33.7,78.2,62.7,116,88.2
		c38.5,26,77.6,55.6,102.9,95.6c18.3,29.1,26.7,63.3,23.6,96.3c-3.3,34.7-19.3,65.4-45.1,86.6c-21.8,17.8-41.5,25.2-72.6,33
		C644.3,495.8,586.8,502.8,528.9,502.8z M198.4,175.5c-33.7,0-64.8,4.9-88.8,29.9c-23.9,24.9-34.2,50.7-30.5,76.7
		c3.3,22.7,16.8,46.1,40.5,69.9c42.4,42.4,109.4,77.5,157.9,96c39.7,15.1,81.5,26.7,124.3,34.5c98.6,17.8,200.7,14.7,295.1-9.3
		c29.8-7.6,48.6-14.5,69-31.2c47.8-39.2,56.2-112.7,19.5-171.1c-24.3-38.7-62.6-67.6-100.3-93c-38.2-25.8-81.5-55-117.4-89.3
		l-0.1-0.1c-5.2-5-10.4-10.5-15.5-15.8l-0.4-0.4c-2.3-2.4-4.5-4.8-6.8-7.1c-6.7-6.9-14.7-14.8-23.1-21.4
		c-18.1-13.9-34.4-18.4-52.7-14.5C449,33.6,432.8,45.5,416.6,68c-6.7,9.3-12.7,19.3-19,29.9l-0.6,1.1c-6.1,10-12.8,21.4-20.5,31.8
		l-0.1,0.2c-37.9,50.4-93.7,47.9-138.6,45.9l-5.7-0.3C220.6,176.1,209.4,175.5,198.4,175.5z"/>
</g>
</svg>
