<?xml version="1.0" encoding="utf-8"?>
<!-- Generator: Adobe Illustrator 27.5.0, SVG Export Plug-In . SVG Version: 6.00 Build 0)  -->
<svg version="1.1" id="Layer_1" xmlns="http://www.w3.org/2000/svg" xmlns:xlink="http://www.w3.org/1999/xlink" x="0px" y="0px"
	 viewBox="0 0 661.5 504.9" style="enable-background:new 0 0 661.5 504.9;" xml:space="preserve">
<style type="text/css">
	.st0{fill:none;stroke:#CDB4DB;stroke-width:12;stroke-miterlimit:10;}
	.st1{fill:none;stroke:#CDB4DB;stroke-width:7;stroke-miterlimit:10;}
	.st2{fill:none;stroke:#CDB4DB;stroke-width:6;stroke-linecap:round;stroke-linejoin:round;stroke-miterlimit:10;}
	.st3{fill:#E8DFF5;}
	.st4{fill:#CDB4DB;}
</style>
<path class="st0" d="M433.1,283.2c-0.1,11.6,9.1,21.1,20.7,21.2c11.6,0.1,21.1-9.1,21.2-20.7c0.1-11.6-9.1-21.1-20.7-21.2
	C442.8,262.3,433.3,271.6,433.1,283.2z"/>
<path class="st1" d="M488.6,239.4c-0.1,6.3,5,11.6,11.3,11.6c6.3,0.1,11.6-5,11.6-11.3c0.1-6.3-5-11.6-11.3-11.6
	C493.9,228,488.7,233.1,488.6,239.4z"/>
<path class="st2" d="M523.9,294.2L500.1,284 M517,277.2l-10,23.9"/>
<path class="st3" d="M40.1,369.7C98.6,457.6,223.8,439,297,382.7c36.8-28.2,66.5-64.3,97.7-98.2c28.4-30.8,64-72.4,109.2-75.2
	c20-1.1,33.2,12.6,50.8,18.4c50.5,16.7,96.5-33.3,104.7-79.3C676.1,54.5,587.8-2.1,510-26.6C327.4-84.1,73.3,2.4,21.3,201.8
	C7,255.5,8.2,321.9,40.1,369.7z"/>
<path class="st4" d="M140.5,415.1c-10,0-19.8-0.8-29.2-2.3c-40.4-6.7-73.3-27.6-95.1-60.5c-15.5-23.2-24.8-51.5-27.6-84.1
	c-2.4-28.5,0.3-58.9,8-87.9C7.6,138.4,27.7,99.9,56.3,66C83,34.3,116.6,7.2,156-14.6c101.4-56.1,230.1-70.2,335.8-37
	c45.5,14.3,85.3,36.6,112.1,62.6c34.9,34,48.6,73.7,40.8,118c-5.4,30.6-25.6,60.3-51.4,75.7c-19.2,11.5-39.9,14.1-59.8,7.5
	c-6.7-2.2-12.7-5.4-18.5-8.6c-9.8-5.3-19-10.2-30.5-9.6c-40.6,2.5-74.1,39-101,68.3c-1.6,1.8-3.2,3.5-4.8,5.3
	c-6,6.5-12,13.2-17.9,19.7c-24.8,27.5-50.4,56-80.5,79.1c-23.1,17.7-50.7,31.5-79.8,39.9C180.2,412.2,159.9,415.1,140.5,415.1z
	 M371.6-59.3C299-59.3,224.5-41,160.8-5.9c-56.1,31-128.5,89-154.5,188.7c-16.3,61.2-9.5,122.5,18.2,163.8l0,0
	c20.3,30.5,50.9,50,88.5,56.2c51.8,8.6,115-8.8,161.2-44.3c29.4-22.5,54.7-50.6,79.1-77.8c5.9-6.5,11.9-13.3,18-19.8
	c1.6-1.7,3.2-3.5,4.8-5.3c28.1-30.6,63-68.8,107.7-71.5c14.3-0.8,25.2,5.1,35.8,10.8c5.7,3,11,5.9,16.9,7.9
	c17,5.6,34.8,3.3,51.5-6.6c23.1-13.8,41.9-41.4,46.7-68.9c19.1-108.4-107-157.1-146-169.4C451.8-53.7,412-59.3,371.6-59.3z"/>
<path class="st3" d="M310.8,445c-31.9-30-83.8-14.8-120.5-4.3c-15.2,4.5-12.9,26.1,2.8,27.5c19.5,1.9,40.1,5.2,59.7,10
	c14.9,3.8,31.3,10.8,46.4,5.2C313.9,478.1,324.6,458.1,310.8,445z"/>
<path class="st3" d="M212.2,485.5c-9.1-7.1-20.8-9-31.8-10.5c-7.3-1-11,10.9-4.4,14c9.5,4.6,17.9,11.1,27.5,15.2
	c4.7,2.1,10.6-1.3,12.5-5.6C218.3,493.7,216.4,488.9,212.2,485.5z"/>
</svg>
