<?xml version="1.0" encoding="utf-8"?>
<!-- Generator: Adobe Illustrator 27.5.0, SVG Export Plug-In . SVG Version: 6.00 Build 0)  -->
<svg version="1.1" id="Layer_1" xmlns="http://www.w3.org/2000/svg" xmlns:xlink="http://www.w3.org/1999/xlink" x="0px" y="0px"
	 viewBox="0 0 658 563" style="enable-background:new 0 0 658 563;" xml:space="preserve">
<style type="text/css">
	.st0{fill:none;stroke:#FDE35E;stroke-width:8;stroke-miterlimit:10;}
	.st1{fill:none;stroke:#FDE35E;stroke-width:10;stroke-miterlimit:10;}
	.st2{fill:#FDE35E;}
	.st3{fill:#FFF1A9;}
</style>
<path class="st0" d="M567.6,216c1.4,5.4,7,8.5,12.3,7.1c5.4-1.4,8.5-7,7.1-12.3c-1.4-5.4-7-8.5-12.3-7.1
	C569.3,205.1,566.2,210.6,567.6,216z"/>
<path class="st1" d="M642.4,142.5c7.8,15.6,1.5,34.2-13.7,42.5c-15.6,7.8-34.2,1.5-42.5-13.7"/>
<path class="st0" d="M642,342.7l6.9-19c0.9-2.5-0.2-5.2-2.6-6.3l-14.3-6.5c-2.4-1.1-3.5-3.9-2.6-6.3l5.5-14.5
	c0.9-2.5-0.2-5.3-2.7-6.4l-14.1-6.2c-2.4-1.1-3.6-3.8-2.7-6.3l5.4-14.9c0.9-2.5-0.3-5.2-2.7-6.3l-18.5-8.1"/>
<path class="st2" d="M629.4,233.3c-1.6,0.4-2.9-1.1-2.4-2.6l4.1-11.2c0.1-0.4,0.2-0.8,0.1-1.2l-2.9-11.9c-0.4-1.5,1.1-2.9,2.6-2.4
	l11.4,4c0.4,0.1,0.8,0.1,1.1,0.1l12-2.9c1.6-0.4,2.9,1.1,2.4,2.6l-4.1,11.2c-0.1,0.4-0.2,0.8-0.1,1.2l2.9,11.9
	c0.4,1.5-1.1,2.9-2.6,2.4l-11.4-4c-0.4-0.1-0.8-0.1-1.1-0.1L629.4,233.3z"/>
<path class="st3" d="M368.2,122.1c11.6-10,17.8-24.9,21.3-39.8c2.7-11.6,6.7-31.4-0.8-41.4c-2.7-3.5-6.7-5.1-10.8-3
	c-10.5,6-14.5,22.2-18.9,33.3c-5.4,13.5-10,28.1-8.9,43C350.7,124,361.2,128.3,368.2,122.1z"/>
<path class="st3" d="M431,144.1c-0.3-10.8-17.8-15.2-25.9-16.5c-12.9-2.2-23.8-1.1-35.1,6c-4.2,2.6-2.4,9.2,2.5,9.3
	c12.7,0.3,25.9,1.3,38,5.8C416.5,151.2,431.4,156.3,431,144.1z"/>
<path class="st3" d="M589.4,273.5c-9.4-17.1-22.2-32.8-38-46.3c-50.8-43.1-118.1-60.2-181.9-72.8c-22.9-4.5-45.4-20.9-35.7-46.7
	c7.2-18.6,16.8-34.4,11.2-55.5C324.2-25.3,211.4-2.4,164.9,30.7c-21.1,15-39.5,35.7-64.5,44.5C67.9,86.6,30,79-4,83.7
	c-36.4,5.2-69.8,23.4-91.6,53c-24.7,33.9-19.8,81.1,3.1,114.3c36.6,52.8,94.1,95.7,143.3,136.1c58.6,48.3,123.5,103.1,194.3,131.6
	c68.1,27.4,149.6,34.4,218.5,6.3c62.2-25.4,114.5-74.1,135.9-139C612.8,347.1,607.8,307.4,589.4,273.5z"/>
<path class="st2" d="M347.5,563c-4.4,0-8.9-0.1-13.4-0.3c-36.3-1.6-74-9.9-108.9-23.9c-67.8-27.4-131.3-79.7-187.3-125.8l-7.1-5.8
	c-6.9-5.6-13.9-11.3-20.6-16.8c-44.7-36.3-91-73.8-122.6-119.2c-11.5-16.8-18.4-37-19.4-56.9c-1.1-21.5,4.6-41.3,16.3-57.4
	c21.2-28.8,53.7-47.6,91.6-53c13.3-1.8,26.8-1.8,41.1-1.7l0.2,0c3.8,0,7.6,0,11.4,0c17.1-0.1,35.3-1,51.7-6.8
	c13.3-4.7,24.5-12.7,33.7-19.9c4.1-3.2,8-6.5,11.8-9.6c6.4-5.3,12.4-10.3,19-15c21.3-15.1,60.4-30.5,99.7-30.7
	c19.9-0.1,36.7,3.8,50,11.5c15.3,8.8,25.5,22.5,30.4,40.7c4.6,17.3-0.9,30.4-7.2,45.5c-1.4,3.2-2.7,6.5-4.1,10l0,0
	c-5.5,14.8,0,25.2,5.6,31.4c6.8,7.3,17.7,12.9,30.1,15.4c60.7,12,129.7,28.4,181.9,72.8c15.6,13.4,28.4,29,38,46.3
	c19.2,35.4,22.8,75.4,10.1,112.5c-20.2,61.4-69.7,112-135.9,139C414.3,557,382,563,347.5,563z M37.3,399.5l6.9,5.7
	c55.4,45.7,118.2,97.5,184.6,124.3c72.4,29.1,149.3,31.4,211,6.3c63.5-25.9,110.9-74.3,130.1-132.9l0-0.1
	c11.8-34.5,8.4-71.6-9.4-104.5c-9-16.2-21-30.9-35.7-43.5C474.6,212,407,196,347.6,184.2c-14.6-2.9-27.2-9.4-35.5-18.4
	c-10.6-11.5-13.4-26.3-7.7-41.5l0.1-0.3c1.4-3.6,2.8-6.9,4.1-10.1c6.1-14.6,10.5-25.1,6.8-39.1c-4.2-15.5-12.8-27.2-25.8-34.6
	c-11.8-6.8-26.9-10.3-45-10.2c-36.9,0.2-74.5,15.1-93.9,28.8c-6.3,4.5-12.2,9.4-18.4,14.6c-3.8,3.2-7.8,6.5-12,9.8
	c-9.8,7.7-21.8,16.3-36.5,21.5c-17.8,6.3-37,7.2-55,7.4c-3.9,0-7.7,0-11.5,0l-0.2,0c-13.9-0.1-27.1-0.1-39.6,1.6
	c-35.2,5-65.4,22.4-85,49c-20.4,28-19.1,70.3,3.3,102.7c30.7,44.3,76.4,81.3,120.6,117.2C23.2,388,30.3,393.7,37.3,399.5L37.3,399.5
	z"/>
</svg>
